<svg height="480pt" viewBox="0 0 480.21228 480" width="480pt" xmlns="http://www.w3.org/2000/svg"><path d="m376.003906 104.109375c-10.957031-.027344-21.835937 1.839844-32.160156 5.519531.082031-1.839844.160156-3.679687.160156-5.519531 0-53.019531-42.980468-96-96-96-53.019531 0-96 42.980469-96 96-.015625 4.175781.25 8.34375.800782 12.480469-7.921876-3.003906-16.328126-4.523438-24.800782-4.480469-34.214844.078125-63.675781 24.164063-70.558594 57.679687-31.65625 7.402344-52.734374 37.355469-49.011718 69.648438 3.722656 32.296875 31.0625 56.667969 63.570312 56.671875h304c2.722656 0 5.363282-.078125 8-.320313 51.359375-4.203124 90.238282-48.199218 88.089844-99.683593-2.148438-51.480469-44.558594-92.085938-96.089844-91.996094zm0 0" fill="#9bc9ff"/><g fill="#1e81ce"><path d="m176.003906 480.109375c-17.671875 0-32-14.324219-32-32 0-14.605469 20.839844-52.472656 25.027344-59.917969 1.535156-2.359375 4.160156-3.78125 6.972656-3.78125 2.816406 0 5.441406 1.421875 6.976563 3.78125 4.226562 7.445313 25.023437 45.3125 25.023437 59.917969 0 17.675781-14.324218 32-32 32zm0-71.101563c-7.117187 12.226563-12.503906 25.390626-16 39.101563 0 8.835937 7.164063 16 16 16 8.839844 0 16-7.164063 16-16-3.488281-13.714844-8.875-26.875-16-39.101563zm0 0"/><path d="m304.003906 480.109375c-17.671875 0-32-14.324219-32-32 0-14.605469 20.800782-52.472656 25.027344-59.917969 1.535156-2.359375 4.160156-3.78125 6.972656-3.78125 2.816406 0 5.441406 1.421875 6.976563 3.78125 4.226562 7.445313 25.023437 45.3125 25.023437 59.917969 0 17.675781-14.324218 32-32 32zm0-71.101563c-7.117187 12.226563-12.503906 25.390626-16 39.101563 0 8.835937 7.164063 16 16 16 8.839844 0 16-7.164063 16-16-3.488281-13.714844-8.875-26.875-16-39.101563zm0 0"/><path d="m240.003906 416.109375c-17.671875 0-32-14.324219-32-32 0-14.605469 20.839844-52.472656 25.027344-59.917969 1.535156-2.359375 4.160156-3.78125 6.972656-3.78125 2.816406 0 5.441406 1.421875 6.976563 3.78125 4.226562 7.445313 25.023437 45.3125 25.023437 59.917969 0 17.675781-14.324218 32-32 32zm0-71.101563c-7.117187 12.226563-12.503906 25.390626-16 39.101563 0 8.835937 7.164063 16 16 16 8.839844 0 16-7.164063 16-16-3.488281-13.714844-8.875-26.875-16-39.101563zm0 0"/><path d="m112.003906 416.109375c-17.671875 0-32-14.324219-32-32 0-14.605469 20.839844-52.472656 25.027344-59.917969 1.535156-2.359375 4.160156-3.78125 6.972656-3.78125 2.816406 0 5.441406 1.421875 6.976563 3.78125 4.226562 7.445313 25.023437 45.3125 25.023437 59.917969 0 17.675781-14.324218 32-32 32zm0-71.101563c-7.117187 12.226563-12.503906 25.390626-16 39.101563 0 8.835937 7.164063 16 16 16 8.839844 0 16-7.164063 16-16-3.488281-13.714844-8.875-26.875-16-39.101563zm0 0"/><path d="m368.003906 416.109375c-17.671875 0-32-14.324219-32-32 0-14.605469 20.800782-52.472656 25.027344-59.917969 1.535156-2.359375 4.160156-3.78125 6.972656-3.78125 2.816406 0 5.441406 1.421875 6.976563 3.78125 4.226562 7.445313 25.023437 45.3125 25.023437 59.917969 0 17.675781-14.324218 32-32 32zm0-71.101563c-7.117187 12.226563-12.503906 25.390626-16 39.101563 0 8.835937 7.164063 16 16 16 8.839844 0 16-7.164063 16-16-3.488281-13.714844-8.875-26.875-16-39.101563zm0 0"/><path d="m376.003906 96.109375c-8.121094-.011719-16.222656.925781-24.125 2.800781-1.992187-40.363281-27.199218-75.910156-64.628906-91.140625s-80.296875-7.382812-109.902344 20.125c-30.246094-9.195312-63.097656-1.417969-86.015625 20.355469-22.917969 21.777344-32.363281 54.191406-24.726562 84.867188-7.402344 8.800781-12.804688 19.101562-15.832031 30.191406-34.039063 10.503906-55.28125 44.316406-49.96875 79.539062s35.582031 61.265625 71.199218 61.261719h304c2.96875 0 5.851563-.085937 8.65625-.34375 55.648438-4.535156 97.789063-52.203125 95.460938-107.988281-2.324219-55.78125-48.28125-99.777344-104.117188-99.667969zm-224-56c4.371094 0 8.726563.390625 13.027344 1.167969-.953125 1.257812-1.800781 2.570312-2.691406 3.863281-.566406.800781-1.175782 1.601563-1.71875 2.457031-1.671875 2.585938-3.246094 5.222656-4.679688 7.9375-.207031.398438-.375.800782-.574218 1.214844-1.210938 2.351562-2.328126 4.753906-3.34375 7.199219-.410157.984375-.753907 1.984375-1.136719 2.984375-.730469 1.914062-1.417969 3.832031-2.03125 5.785156-.355469 1.128906-.675781 2.253906-.984375 3.390625-.53125 1.914063-1 3.832031-1.425782 5.777344-.246093 1.144531-.488281 2.28125-.703124 3.429687-.375 2.089844-.664063 4.203125-.914063 6.320313-.117187 1.007812-.277344 2.007812-.367187 3.027343-.28125 3.101563-.457032 6.246094-.457032 9.445313v1.601563c-5.265625-1.074219-10.625-1.609376-16-1.601563-2.511718 0-5.007812.152344-7.496094.394531-.796874.070313-1.527343.183594-2.285156.277344-1.761718.21875-3.503906.484375-5.234375.800781-.796875.152344-1.597656.3125-2.398437.496094-1.839844.40625-3.664063.894531-5.464844 1.441406-.582031.175781-1.183594.320313-1.757812.511719-2.320313.75-4.601563 1.605469-6.839844 2.566406-.617188.265625-1.210938.578125-1.816406.855469-1.601563.753906-3.25 1.546875-4.800782 2.402344-.800781.421875-1.601562.871093-2.335937 1.328125-1.425781.796875-2.808594 1.71875-4.175781 2.636718-.722657.488282-1.441407.953126-2.144532 1.464844-.25.175782-.519531.335938-.800781.519532-.289063-2.554688-.4375-5.121094-.449219-7.695313.046875-39.746094 32.253906-71.953125 72-72zm231.265625 247.710937c-2.398437.226563-4.800781.289063-7.265625.289063h-304c-28.449218.023437-52.398437-21.292969-55.671875-49.558594-3.273437-28.261719 15.167969-54.488281 42.875-60.96875 3.042969-.703125 5.398438-3.117187 6.03125-6.175781 6.113281-29.820312 32.328125-51.246094 62.765625-51.296875 7.488282-.046875 14.921875 1.289063 21.921875 3.945313 2.640625 1.019531 5.621094.566406 7.84375-1.1875 2.21875-1.753907 3.347657-4.554688 2.964844-7.355469-.507813-3.78125-.75-7.589844-.730469-11.402344 0-48.601563 39.402344-88 88-88 48.601563 0 88 39.398437 88 88 0 1.730469-.078125 3.457031-.148437 5.175781-.117188 2.664063 1.101562 5.210938 3.25 6.792969 2.148437 1.578125 4.945312 1.984375 7.453125 1.082031 9.449218-3.378906 19.414062-5.085937 29.445312-5.050781 47.246094-.082031 86.128906 37.160156 88.078125 84.367187 1.953125 47.203126-33.722656 87.527344-80.8125 91.34375zm0 0"/></g></svg>