<svg height="479pt" viewBox="0 -1 479.62338 479" width="479pt" xmlns="http://www.w3.org/2000/svg"><path d="m379.601562 104.296875c-10.960937-.027344-21.839843 1.839844-32.160156 5.519531.078125-1.839844.160156-3.679687.160156-5.519531 0-44.792969-30.972656-83.632813-74.640624-93.597656-1.679688-.402344-3.441407-.722657-5.199219-.960938-2.480469-.480469-4.960938-.800781-7.519531-1.039062-2.882813-.242188-5.761719-.402344-8.640626-.402344-25.824218-.027344-50.570312 10.355469-68.640624 28.800781-6.085938 6.136719-11.257813 13.113282-15.359376 20.71875-.105468.230469-.238281.445313-.402343.640625v.082031c-3.269531 5.933594-5.875 12.210938-7.757813 18.71875-1.59375 5.519532-2.691406 11.167969-3.28125 16.878907-.390625 3.375-.578125 6.765625-.558594 10.160156-.019531 4.175781.25 8.34375.796876 12.480469-7.917969-3.003906-16.328126-4.523438-24.796876-4.480469-10.742187.007813-21.347656 2.410156-31.042968 7.039063-3.125 1.53125-6.144532 3.269531-9.039063 5.203124-1.710937 1.109376-3.339843 2.339844-4.878906 3.679688-2.730469 2.152344-5.296875 4.507812-7.679687 7.039062-2.304688 2.421876-4.414063 5.015626-6.320313 7.761719-5.691406 8.085938-9.644531 17.265625-11.601563 26.957031-4.625 1.070313-9.109374 2.683594-13.359374 4.800782-5.207032 2.539062-10.050782 5.769531-14.398438 9.601562-3.101562 2.6875-5.917969 5.691406-8.402344 8.957032-14.871094 19.316406-17.472656 45.40625-6.699218 67.273437 10.773437 21.871094 33.042968 35.710937 57.421874 35.6875h304c2.71875 0 5.359376-.078125 8-.320313 51.355469-4.203124 90.234376-48.199218 88.085938-99.683593-2.148438-51.480469-44.558594-92.085938-96.085938-91.996094zm0 0" fill="#9bc9ff"/><g fill="#1e81ce"><path d="m376 304.296875c-4.417969 0-8-3.582031-8-8s3.582031-8 8-8c2.464844 0 4.863281-.070313 7.265625-.285156 47.089844-3.820313 82.761719-44.144531 80.8125-91.347657-1.953125-47.207031-40.832031-84.449218-88.078125-84.367187-10.035156-.035156-20 1.671875-29.449219 5.050781-2.507812.902344-5.296875.496094-7.445312-1.082031-2.148438-1.578125-3.371094-4.121094-3.257813-6.785156.074219-1.742188.152344-3.453125.152344-5.183594-.199219-40.980469-28.492188-76.472656-68.398438-85.800781-1.511718-.359375-3.015624-.628906-4.519531-.839844-2.648437-.496094-4.882812-.796875-7.203125-1-2.566406-.207031-5.222656-.359375-7.878906-.359375-23.6875-.074219-46.390625 9.449219-62.9375 26.402344-5.546875 5.597656-10.265625 11.960937-14.015625 18.894531l-.269531.496094c-.050782.105468-.113282.222656-.175782.335937-2.984374 5.414063-5.359374 11.136719-7.082031 17.070313-1.464843 5.074218-2.46875 10.269531-3.007812 15.523437-.355469 3.078125-.527344 6.175781-.511719 9.277344-.019531 3.808594.226562 7.613281.726562 11.386719.390626 2.804687-.734374 5.605468-2.953124 7.363281s-5.203126 2.210937-7.84375 1.195313c-16.152344-5.914063-34.007813-5.078126-49.539063 2.320312-2.761719 1.367188-5.433594 2.914062-8 4.632812-1.398437.902344-2.734375 1.902344-4 2.992188-2.558594 1.996094-4.96875 4.183594-7.199219 6.542969-2.042968 2.148437-3.917968 4.457031-5.597656 6.902343-5.042969 7.1875-8.550781 15.335938-10.3125 23.9375-.617188 3.046876-2.941406 5.460938-5.960938 6.191407-4.023437.910156-7.925781 2.300781-11.617187 4.144531-4.597656 2.234375-8.871094 5.078125-12.710937 8.457031-2.710938 2.332031-5.164063 4.941407-7.328126 7.789063-7.585937 9.765625-11.6875 21.78125-11.664062 34.144531.035156 30.914063 25.085938 55.964844 56 56 4.417969 0 8 3.582031 8 8s-3.582031 8-8 8c-39.746094-.042969-71.9570312-32.253906-72-72-.0429688-15.871094 5.214844-31.300781 14.945312-43.839844 2.789063-3.691406 5.960938-7.078125 9.453126-10.109375 4.867187-4.289062 10.285156-7.902344 16.113281-10.746094 3.304687-1.660156 6.746093-3.035156 10.289062-4.105468 2.414063-8.992188 6.390625-17.492188 11.742188-25.109375 2.140625-3.082031 4.515625-5.992188 7.105469-8.703125 2.625-2.789063 5.453124-5.378906 8.464843-7.746094 1.707031-1.484375 3.515625-2.847656 5.414063-4.078125 3.191406-2.121094 6.515625-4.035156 9.953125-5.730469 15.746093-7.46875 33.480469-9.660156 50.566406-6.246094 0-.527343 0-1.066406 0-1.601562-.015625-3.71875.191406-7.433594.625-11.128906.636719-6.148438 1.820313-12.230469 3.542969-18.167969 1.984375-6.847656 4.703125-13.464844 8.105468-19.734375.1875-.4375.410157-.851562.671876-1.25l.0625-.085938c4.445312-8.222656 10.039062-15.769531 16.609374-22.417968 21.867188-22.269532 52.5625-33.558594 83.648438-30.765625 2.894531.269531 5.601562.625 8.359375 1.144531 1.601563.214844 3.609375.582031 5.527344 1.039062 45.257812 10.597657 78.109375 49.769532 80.664062 96.183594 37.910157-8.894531 77.609375 4.128906 102.882813 33.753906 25.269531 29.625 31.875 70.882813 17.117187 106.914063-14.757812 36.03125-48.410156 60.804687-87.199219 64.1875-2.816406.257813-5.695312.34375-8.664062.34375zm0 0"/><path d="m330.847656 478.699219c-3.378906.003906-6.394531-2.117188-7.539062-5.296875-1.144532-3.179688-.164063-6.734375 2.445312-8.878906 33.84375-27.921876 46.523438-74.078126 31.695313-115.375-14.828125-41.292969-53.972657-68.835938-97.847657-68.851563h-168c-4.417968 0-8-3.582031-8-8s3.582032-8 8-8h168c50.636719 0 95.828126 31.789063 112.941407 79.449219s2.464843 100.929687-36.605469 133.144531c-1.4375 1.171875-3.234375 1.8125-5.089844 1.808594zm0 0"/><path d="m259.601562 296.296875h-136c-4.417968 0-8 3.582031-8 8s3.582032 8 8 8h136c26.332032.011719 50.558594 14.394531 63.171876 37.507813 12.617187 23.113281 11.609374 51.269531-2.628907 73.421874-1.636719 2.402344-1.84375 5.5-.539062 8.097657 1.308593 2.597656 3.917969 4.28125 6.820312 4.402343 2.90625.117188 5.644531-1.347656 7.160157-3.828124 17.410156-27.074219 18.648437-61.492188 3.234374-89.75-15.417968-28.253907-45.03125-45.839844-77.21875-45.851563zm0 0"/><path d="m259.601562 328.296875h-104c-4.417968 0-8 3.582031-8 8s3.582032 8 8 8h104c22.078126.027344 39.972657 17.921875 40 40 0 4.417969 3.582032 8 8 8 4.417969 0 8-3.582031 8-8-.039062-30.910156-25.089843-55.960937-56-56zm0 0"/><path d="m275.601562 384.296875c-4.417968 0-8 3.582031-8 8 0 8.835937-7.164062 16-16 16-8.835937 0-16-7.164063-16-16s7.164063-16 16-16c4.417969 0 8-3.582031 8-8s-3.582031-8-8-8c-17.675781 0-32 14.328125-32 32 0 17.675781 14.324219 32 32 32 17.671876 0 32-14.324219 32-32 0-4.417969-3.582031-8-8-8zm0 0"/><path d="m259.601562 248.296875h-136c-4.417968 0-8-3.582031-8-8s3.582032-8 8-8h136c22.089844 0 40-17.90625 40-40 0-22.089844-17.910156-40-40-40-4.417968 0-8-3.582031-8-8s3.582032-8 8-8c30.925782 0 56 25.074219 56 56 0 30.929687-25.074218 56-56 56zm0 0"/></g><path d="m259.601562 216.296875c-13.257812 0-24-10.746094-24-24s10.742188-24 24-24c13.253907 0 24 10.746094 24 24 0 4.417969-3.582031 8-8 8-4.417968 0-8-3.582031-8-8s-3.582031-8-8-8c-4.417968 0-8 3.582031-8 8s3.582032 8 8 8c4.417969 0 8 3.582031 8 8s-3.582031 8-8 8zm0 0" fill="#9bc9ff"/></svg>