<svg height="480pt" viewBox="0 0 480 480.04191" width="480pt" xmlns="http://www.w3.org/2000/svg"><path d="m376.042969 104.042969c-10.957031-.03125-21.839844 1.835937-32.160157 5.519531.078126-1.839844.160157-3.679688.160157-5.519531 0-53.019531-42.980469-96-96-96s-96 42.980469-96 96c-.019531 4.171875.25 8.34375.800781 12.480469-7.921875-3.007813-16.328125-4.527344-24.800781-4.480469-34.246094 0-63.75 24.121093-70.558594 57.679687-31.65625 7.398438-52.734375 37.351563-49.011719 69.648438 3.722656 32.292968 31.0625 56.667968 63.570313 56.671875h304c2.71875 0 5.359375-.082031 8-.320313 51.355469-4.203125 90.234375-48.199218 88.085937-99.683594-2.148437-51.484374-44.558594-92.089843-96.085937-91.996093zm0 0" fill="#9bc9ff"/><g fill="#1e81ce"><path d="m376.042969 304.042969h-304c-35.625.007812-65.898438-26.03125-71.214844-61.257813-5.316406-35.222656 15.925781-69.039062 49.964844-79.542968 9.472656-34.882813 41.105469-59.121094 77.25-59.199219 5.375-.011719 10.734375.523437 16 1.597656 0-.527344 0-1.0625 0-1.597656-.023438-56.441407 44.976562-102.597657 101.398437-104.011719 56.421875-1.410156 103.675782 42.4375 106.472656 98.8125 37.910157-8.898438 77.609376 4.128906 102.882813 33.75 25.269531 29.625 31.875 70.882812 17.117187 106.917969-14.757812 36.03125-48.410156 60.800781-87.199218 64.1875-2.824219.253906-5.703125.34375-8.671875.34375zm-248-184c-30.414063.054687-56.609375 21.464843-62.710938 51.261719-.625 3.074218-2.984375 5.503906-6.042969 6.210937-27.695312 6.476563-46.132812 32.6875-42.875 60.945313 3.261719 28.253906 27.183594 49.578124 55.628907 49.582031h304c2.472656 0 4.871093-.066407 7.273437-.289063 47.089844-3.820312 82.765625-44.144531 80.8125-91.351562-1.957031-47.207032-40.839844-84.445313-88.085937-84.359375-10.039063-.035157-20.003907 1.671875-29.457031 5.046875-2.507813.902344-5.300782.492187-7.449219-1.089844-2.144531-1.578125-3.363281-4.125-3.246094-6.789062.078125-1.730469.152344-3.449219.152344-5.167969 0-48.601563-39.398438-88-88-88-48.601563 0-88 39.398437-88 88-.019531 3.808593.226562 7.613281.726562 11.390625.386719 2.804687-.738281 5.605468-2.960937 7.363281-2.21875 1.757813-5.203125 2.210937-7.847656 1.1875-7-2.652344-14.429688-3.992187-21.917969-3.941406zm0 0"/><path d="m267.753906 336.042969c-2.207031-3.828125-7.101562-5.136719-10.925781-2.929688l-8.800781 5.074219v-10.144531c0-4.417969-3.582032-8-8-8-4.417969 0-8 3.582031-8 8v10.144531l-8.800782-5.074219c-3.824218-2.171875-8.683593-.851562-10.882812 2.953125-2.199219 3.808594-.910156 8.679688 2.882812 10.902344l8.816407 5.074219-8.800781 5.070312c-2.496094 1.417969-4.039063 4.066407-4.046876 6.9375-.003906 2.871094 1.527344 5.523438 4.015626 6.953125 2.492187 1.429688 5.554687 1.417969 8.03125-.035156l8.800781-5.070312v10.144531c0 4.417969 3.582031 8 8 8s8-3.582031 8-8v-10.144531l8.800781 5.070312c2.476562 1.453125 5.539062 1.464844 8.03125.035156 2.488281-1.429687 4.019531-4.082031 4.011719-6.953125-.003907-2.871093-1.546875-5.519531-4.042969-6.9375l-8.800781-5.070312 8.800781-5.074219c3.820312-2.214844 5.121094-7.105469 2.910156-10.925781zm0 0"/><path d="m392.84375 357.113281-8.800781-5.070312 8.800781-5.074219c3.792969-2.222656 5.078125-7.09375 2.882812-10.902344-2.199218-3.804687-7.0625-5.125-10.882812-2.953125l-8.800781 5.074219v-10.144531c0-4.417969-3.582031-8-8-8s-8 3.582031-8 8v10.144531l-8.800781-5.074219c-3.824219-2.171875-8.683594-.851562-10.882813 2.953125-2.199219 3.808594-.910156 8.679688 2.882813 10.902344l8.800781 5.074219-8.800781 5.070312c-2.496094 1.417969-4.039063 4.066407-4.046876 6.9375-.003906 2.871094 1.527344 5.523438 4.015626 6.953125 2.492187 1.429688 5.554687 1.417969 8.03125-.035156l8.800781-5.070312v10.144531c0 4.417969 3.582031 8 8 8s8-3.582031 8-8v-10.144531l8.800781 5.070312c3.820312 2.175781 8.683594.855469 10.882812-2.953125 2.195313-3.808594.910157-8.675781-2.882812-10.902344zm0 0"/><path d="m203.753906 432.042969c-2.207031-3.828125-7.101562-5.136719-10.925781-2.929688l-8.800781 5.074219v-10.144531c0-4.417969-3.582032-8-8-8-4.417969 0-8 3.582031-8 8v10.144531l-8.800782-5.074219c-3.824218-2.171875-8.683593-.851562-10.882812 2.953125-2.199219 3.808594-.910156 8.679688 2.882812 10.902344l8.816407 5.074219-8.800781 5.070312c-2.496094 1.417969-4.039063 4.066407-4.046876 6.9375-.003906 2.871094 1.527344 5.523438 4.015626 6.953125 2.492187 1.429688 5.554687 1.417969 8.03125-.035156l8.800781-5.070312v10.144531c0 4.417969 3.582031 8 8 8s8-3.582031 8-8v-10.144531l8.800781 5.070312c2.476562 1.453125 5.539062 1.464844 8.03125.035156 2.488281-1.429687 4.019531-4.082031 4.011719-6.953125-.003907-2.871093-1.546875-5.519531-4.042969-6.9375l-8.800781-5.070312 8.800781-5.074219c3.820312-2.214844 5.121094-7.105469 2.910156-10.925781zm0 0"/><path d="m139.753906 336.042969c-2.207031-3.828125-7.101562-5.136719-10.925781-2.929688l-8.800781 5.074219v-10.144531c0-4.417969-3.582032-8-8-8-4.417969 0-8 3.582031-8 8v10.144531l-8.800782-5.074219c-3.824218-2.171875-8.683593-.851562-10.882812 2.953125-2.199219 3.808594-.910156 8.679688 2.882812 10.902344l8.816407 5.074219-8.800781 5.070312c-2.496094 1.417969-4.039063 4.066407-4.046876 6.9375-.003906 2.871094 1.527344 5.523438 4.015626 6.953125 2.492187 1.429688 5.554687 1.417969 8.03125-.035156l8.800781-5.070312v10.144531c0 4.417969 3.582031 8 8 8s8-3.582031 8-8v-10.144531l8.800781 5.070312c2.476562 1.453125 5.539062 1.464844 8.03125.035156 2.488281-1.429687 4.019531-4.082031 4.011719-6.953125-.003907-2.871093-1.546875-5.519531-4.042969-6.9375l-8.800781-5.070312 8.800781-5.074219c3.820312-2.214844 5.121094-7.105469 2.910156-10.925781zm0 0"/><path d="m331.753906 432.042969c-2.207031-3.828125-7.101562-5.136719-10.925781-2.929688l-8.800781 5.074219v-10.144531c0-4.417969-3.582032-8-8-8-4.417969 0-8 3.582031-8 8v10.144531l-8.800782-5.074219c-3.824218-2.171875-8.683593-.851562-10.882812 2.953125-2.199219 3.808594-.910156 8.679688 2.882812 10.902344l8.816407 5.074219-8.800781 5.070312c-2.496094 1.417969-4.039063 4.066407-4.046876 6.9375-.003906 2.871094 1.527344 5.523438 4.015626 6.953125 2.492187 1.429688 5.554687 1.417969 8.03125-.035156l8.800781-5.070312v10.144531c0 4.417969 3.582031 8 8 8s8-3.582031 8-8v-10.144531l8.800781 5.070312c2.476562 1.453125 5.539062 1.464844 8.03125.035156 2.488281-1.429687 4.019531-4.082031 4.011719-6.953125-.003907-2.871093-1.546875-5.519531-4.042969-6.9375l-8.800781-5.070312 8.800781-5.074219c3.820312-2.214844 5.121094-7.105469 2.910156-10.925781zm0 0"/></g></svg>