<svg height="480pt" viewBox="0 -2 480.04752 480" width="480pt" xmlns="http://www.w3.org/2000/svg"><g fill="#1e81ce"><path d="m360.035156 214.453125h-280c-4.417968 0-8-3.582031-8-8s3.582032-8 8-8h280c43.890625.003906 83.058594-27.546875 97.890625-68.859375 14.832031-41.308594 2.132813-87.480469-31.738281-115.398438-3.410156-2.808593-3.894531-7.851562-1.082031-11.261718 2.8125-3.410156 7.855469-3.894532 11.265625-1.082032 39.078125 32.210938 53.730468 85.488282 36.617187 133.152344-17.113281 47.664063-62.308593 79.453125-112.953125 79.449219zm0 0"/><path d="m360.035156 182.453125h-232c-4.417968 0-8-3.582031-8-8s3.582032-8 8-8h232c26.328125-.011719 50.554688-14.394531 63.167969-37.503906s11.609375-51.265625-2.625-73.417969c-1.582031-2.398438-1.757813-5.464844-.453125-8.03125 1.304688-2.5625 3.886719-4.230469 6.757812-4.363281 2.875-.132813 5.597657 1.285156 7.136719 3.714843 17.410157 27.074219 18.652344 61.492188 3.234375 89.75-15.417968 28.253907-45.03125 45.839844-77.21875 45.851563zm0 0"/><path d="m20.777344 369.71875c-2.71875 0-5.253906-1.378906-6.726563-3.664062-17.679687-27.402344-18.75-62.335938-2.777343-90.765626 15.972656-28.425781 46.363281-45.683593 78.960937-44.835937h381.800781c4.417969 0 8 3.582031 8 8s-3.582031 8-8 8h-381.800781c-26.738281-.847656-51.738281 13.207031-64.90625 36.488281-13.171875 23.285156-12.339844 51.953125 2.164063 74.433594 1.589843 2.457031 1.707031 5.589844.308593 8.164062-1.398437 2.574219-4.09375 4.175782-7.023437 4.179688zm0 0"/><path d="m408.035156 86.453125c-4.417968 0-8 3.582031-8 8-.027344 22.082031-17.921875 39.972656-40 40h-104c-4.417968 0-8 3.582031-8 8s3.582032 8 8 8h104c30.914063-.035156 55.964844-25.085937 56-56 0-4.417969-3.582031-8-8-8zm0 0"/><path d="m352.035156 118.453125c-17.671875 0-32-14.328125-32-32s14.328125-32 32-32 32 14.328125 32 32c0 4.417969-3.582031 8-8 8-4.417968 0-8-3.582031-8-8 0-8.835937-7.164062-16-16-16-8.835937 0-16 7.164063-16 16s7.164063 16 16 16c4.417969 0 8 3.582031 8 8s-3.582031 8-8 8zm0 0"/><path d="m311.28125 476.851562c-3.375.003907-6.386719-2.113281-7.527344-5.289062s-.167968-6.726562 2.433594-8.878906c33.851562-27.917969 46.535156-74.078125 31.707031-115.375-14.828125-41.300782-53.980469-68.847656-97.859375-68.855469h-160c-4.417968 0-8-3.582031-8-8s3.582032-8 8-8h160c50.644532-.003906 95.839844 31.785156 112.953125 79.449219 17.113281 47.664062 2.460938 100.941406-36.617187 133.152344-1.4375 1.167968-3.234375 1.804687-5.089844 1.796874zm0 0"/><path d="m307.289062 433.71875c-2.925781-.003906-5.621093-1.605469-7.019531-4.179688-1.398437-2.574218-1.28125-5.707031.308594-8.164062 14.234375-22.152344 15.238281-50.308594 2.625-73.417969s-36.839844-37.492187-63.167969-37.503906h-48c-4.417968 0-8-3.582031-8-8s3.582032-8 8-8h48c32.1875.011719 61.800782 17.597656 77.21875 45.851563 15.417969 28.257812 14.175782 62.675781-3.234375 89.75-1.476562 2.285156-4.007812 3.664062-6.730469 3.664062zm0 0"/><path d="m240.035156 326.453125h-48c-4.417968 0-8 3.582031-8 8s3.582032 8 8 8h48c22.078125.027344 39.972656 17.917969 40 40 0 4.417969 3.582032 8 8 8 4.417969 0 8-3.582031 8-8-.035156-30.914063-25.085937-55.964844-56-56zm0 0"/><path d="m232.035156 422.453125c-17.671875 0-32-14.328125-32-32s14.328125-32 32-32c4.417969 0 8 3.582031 8 8s-3.582031 8-8 8c-8.835937 0-16 7.164063-16 16s7.164063 16 16 16c8.835938 0 16-7.164063 16-16 0-4.417969 3.582032-8 8-8 4.417969 0 8 3.582031 8 8 0 17.671875-14.328125 32-32 32zm0 0"/><path d="m224.035156 150.453125h-32c-4.417968 0-8-3.582031-8-8s3.582032-8 8-8h32c4.417969 0 8 3.582031 8 8s-3.582031 8-8 8zm0 0"/><path d="m160.035156 310.453125h-32c-4.417968 0-8-3.582031-8-8s3.582032-8 8-8h32c4.417969 0 8 3.582031 8 8s-3.582031 8-8 8zm0 0"/></g></svg>