<svg height="480pt" viewBox="0 -72 480.22357 480" width="480pt" xmlns="http://www.w3.org/2000/svg"><path d="m21.296875 225.175781c-14.875 19.3125-17.472656 45.402344-6.699219 67.273438 10.773438 21.867187 33.042969 35.707031 57.417969 35.683593h304c2.722656 0 5.359375-.078124 8-.320312 51.359375-4.203125 90.238281-48.199219 88.085937-99.683594-2.148437-51.480468-44.558593-92.085937-96.085937-91.996094-10.957031-.027343-21.835937 1.839844-32.160156 5.519532.082031-1.839844.160156-3.679688.160156-5.519532.003906-44.792968-30.96875-83.632812-74.640625-93.597656-1.679688-.402344-3.4375-.722656-5.199219-.960937-2.480469-.480469-4.957031-.800781-7.519531-1.039063-2.878906-.242187-5.757812-.402344-8.640625-.402344-25.824219-.027343-50.566406 10.355469-68.640625 28.800782-6.082031 6.136718-11.253906 13.117187-15.359375 20.71875-.101563.230468-.238281.445312-.398437.640625v.082031c-3.273438 5.933594-5.875 12.210938-7.761719 18.71875-1.589844 5.519531-2.6875 11.167969-3.277344 16.878906-.390625 3.375-.578125 6.765625-.5625 10.160156-.015625 4.175782.25 8.34375.800781 12.480469-7.921875-3.003906-16.328125-4.523437-24.800781-4.480469-10.742187.007813-21.34375 2.410157-31.039063 7.042969-3.125 1.527344-6.144531 3.265625-9.039062 5.199219-1.710938 1.109375-3.34375 2.339844-4.878906 3.679688-2.730469 2.15625-5.296875 4.507812-7.683594 7.039062-2.300781 2.421875-4.414062 5.015625-6.316406 7.761719-5.695313 8.085937-9.644532 17.265625-11.601563 26.957031-4.625 1.070312-9.109375 2.683594-13.359375 4.800781-5.210937 2.539063-10.054687 5.769531-14.402344 9.601563-3.101562 2.6875-5.914062 5.691406-8.398437 8.960937zm0 0" fill="#9bc9ff"/><path d="m376.015625 128.132812c-8.125-.011718-16.226563.925782-24.132813 2.800782-2.554687-46.414063-35.40625-85.585938-80.664062-96.183594-.730469-.175781-1.464844-.320312-2.195312-.464844-15.066407-24.496094-43.300782-37.636718-71.746094-33.386718-28.445313 4.25-51.609375 25.066406-58.859375 52.898437-19.816407-8.945313-42.8125-7.226563-61.082031 4.5625-18.265626 11.785156-29.304688 32.035156-29.320313 53.773437 0 2.84375.183594 5.679688.554687 8.496094-21.449218 2.832032-39.339843 17.789063-45.921874 38.398438-6.582032 20.609375-.675782 43.167968 15.160156 57.90625-.96875 1.113281-1.96875 2.207031-2.847656 3.375-9.726563 12.535156-14.9843755 27.960937-14.945313 43.824218.046875 39.746094 32.253906 71.957032 72 72h304c2.96875 0 5.847656-.085937 8.65625-.34375 55.648437-4.535156 97.785156-52.203124 95.460937-107.988281-2.324218-55.78125-48.28125-99.777343-104.117187-99.667969zm-320 8h.625c.265625-.015624.535156-.015624.800781 0 2.667969.304688 5.308594-.761718 7.015625-2.832031 1.710938-2.058593 2.277344-4.835937 1.511719-7.398437-1.304688-4.472656-1.964844-9.109375-1.953125-13.769532.027344-26.496093 21.503906-47.972656 48-48 9.914063-.054687 19.59375 3.023438 27.648437 8.800782 2.335938 1.679687 5.394532 1.976562 8.011719.773437 2.613281-1.199219 4.382813-3.714843 4.628907-6.582031 2.820312-30.089844 28.902343-52.578125 59.082031-50.941406 13.488281.769531 26.230469 6.441406 35.832031 15.949218-.503906 0-.992188.082032-1.496094.089844h-.320312c-3.722656.097656-7.433594.390625-11.121094.878906l-.433594.074219c-3.601562.484375-7.179687 1.164063-10.710937 2.03125l-.59375.152344c-3.410157.851563-6.773438 1.878906-10.078125 3.078125l-.929688.335938c-3.117187 1.167968-6.171875 2.484374-9.160156 3.945312-.460938.222656-.925781.429688-1.382812.664062-2.765626 1.40625-5.464844 2.949219-8.101563 4.605469-.601563.371094-1.210937.714844-1.792969 1.089844-2.480468 1.601563-4.878906 3.390625-7.199218 5.238281-.632813.496094-1.289063.9375-1.914063 1.449219-2.886719 2.363281-5.648437 4.878906-8.269531 7.535156-6.621094 6.679688-12.246094 14.269531-16.707032 22.546875v-.050781l-.0625.097656c-.242187.371094-.453124.761719-.632812 1.167969-3.402344 6.273438-6.121094 12.894531-8.113281 19.75-1.71875 5.9375-2.90625 12.015625-3.542969 18.160156-.445312 3.703125-.660156 7.429688-.640625 11.160156v1.601563c-17.082031-3.417969-34.8125-1.226563-50.550781 6.246094-3.445313 1.6875-6.777344 3.605469-9.96875 5.738281-1.898438 1.226562-3.710938 2.585938-5.414063 4.070312-3.011719 2.367188-5.839843 4.957032-8.464843 7.746094-2.589844 2.710938-4.964844 5.621094-7.105469 8.703125-5.351563 7.613281-9.328125 16.109375-11.742188 25.09375-3.515625 1.066407-6.929687 2.4375-10.207031 4.089844-3.476562 1.738281-6.808594 3.75-9.96875 6.007813-.335938.230468-.738281.398437-1.066406.640624-12.429688-11.015624-16.757813-28.570312-10.875-44.105468 5.882812-15.53125 20.753906-25.8125 37.363281-25.832032zm327.265625 183.714844c-2.398438.222656-4.800781.285156-7.265625.285156h-304c-30.910156-.035156-55.964844-25.085937-56-56-.023437-12.363281 4.082031-24.378906 11.664063-34.144531 2.167968-2.84375 4.625-5.457031 7.328124-7.796875 3.84375-3.378906 8.121094-6.222656 12.722657-8.457031 3.6875-1.835937 7.582031-3.230469 11.597656-4.152344 3.019531-.730469 5.34375-3.140625 5.960937-6.183593 1.75-8.601563 5.253907-16.75 10.296876-23.9375 1.683593-2.441407 3.554687-4.75 5.597656-6.902344 2.234375-2.359375 4.640625-4.550782 7.203125-6.550782 1.261719-1.089843 2.597656-2.085937 4-2.984374 2.558593-1.722657 5.230469-3.269532 8-4.632813 2.027343-.953125 4.101562-1.804687 6.214843-2.542969 1.535157-.546875 3.101563-.976562 4.679688-1.402344.527344-.144531 1.039062-.320312 1.601562-.449218 1.679688-.40625 3.375-.710938 5.070313-.980469.480469-.074219.960937-.175781 1.441406-.242187 1.527344-.207032 3.0625-.328126 4.597657-.421876.800781-.050781 1.535156-.113281 2.3125-.128906 1.503906-.046875 2.992187 0 4.480468 0 .535156 0 1.070313 0 1.601563.070313 1.496093.097656 2.964843.265625 4.429687.464843.550782.070313 1.113282.128907 1.65625.214844 1.503906.25 2.992188.585938 4.464844.945313.464844.113281.933594.191406 1.398438.3125 1.898437.507812 3.765624 1.113281 5.601562 1.816406 2.640625 1.019531 5.621094.566406 7.84375-1.1875 2.21875-1.753906 3.347656-4.554687 2.964844-7.355469-.503906-3.769531-.75-7.570312-.730469-11.371094-.015625-3.101562.15625-6.203124.511719-9.285156.546875-5.25 1.554687-10.441406 3.007812-15.515625 1.722656-5.9375 4.097656-11.664062 7.082032-17.078125.054687-.105468.113281-.207031.160156-.3125.046875-.101562.191406-.335937.28125-.511718 3.746094-6.9375 8.472656-13.300782 14.03125-18.894532 16.539062-16.953125 39.242187-26.480468 62.925781-26.402344 2.664063 0 5.320313.152344 7.890625.359376 2.292969.226562 4.527344.503906 6.742188.9375l.457031.074218c1.511719.1875 3.015625.453125 4.503906.796875 39.921875 9.328125 68.21875 44.835938 68.40625 85.832031 0 1.730469-.078125 3.457032-.152344 5.175782-.113281 2.664062 1.105469 5.210937 3.253907 6.792968 2.148437 1.578126 4.941406 1.984376 7.453124 1.082032 9.449219-3.378906 19.414063-5.085938 29.445313-5.050782 47.246094-.082031 86.125 37.160157 88.078125 84.367188 1.953125 47.203125-33.722656 87.527344-80.8125 91.347656zm0 0" fill="#1e81ce"/></svg>