<svg height="480pt" viewBox="0 -40 480.00621 480" width="480pt" xmlns="http://www.w3.org/2000/svg"><path d="m392.003906 232.003906c-8.199218-.027344-16.351562 1.242188-24.160156 3.757813-2.210938-33.332031-29.691406-59.359375-63.09375-59.757813-33.40625-.394531-61.5 24.96875-64.503906 58.238282-9.410156-6.699219-20.6875-10.28125-32.242188-10.238282-17.6875.035156-34.324218 8.410156-44.890625 22.597656-10.5625 14.183594-13.820312 32.523438-8.789062 49.480469-.769531-.066406-1.542969-.09375-2.320313-.078125-9.425781-.039062-18.648437 2.746094-26.476562 8-11.070313 7.320313-18.601563 18.910156-20.800782 32-.484374 2.636719-.726562 5.316406-.722656 8 0 26.507813 21.492188 48 48 48h240c2.722656 0 5.363282-.160156 8-.402344 25.886719-2.566406 48.902344-17.578124 61.6875-40.234374s13.738282-50.117188 2.554688-73.605469c-2.488282-5.386719-5.601563-10.460938-9.28125-15.117188-15.171875-19.335937-38.382813-30.632812-62.960938-30.640625zm0 0" fill="#9bc9ff"/><path d="m437.367188 166.082031c-17.25-14.296875-38.957032-22.109375-61.363282-22.078125-10.957031-.03125-21.835937 1.835938-32.160156 5.519532.082031-1.839844.160156-3.679688.160156-5.519532.03125-41.683594-26.871094-78.613281-66.558594-91.359375h-.078124c-9.480469-3.101562-19.390626-4.667969-29.363282-4.640625-25.472656-.039062-49.910156 10.0625-67.921875 28.074219s-28.113281 42.453125-28.078125 67.925781c-.015625 4.171875.25 8.34375.800782 12.480469-7.921876-3.007813-16.328126-4.523437-24.800782-4.480469-34.214844.078125-63.675781 24.160156-70.558594 57.679688-31.65625 7.398437-52.734374 37.355468-49.011718 69.648437s31.0625 56.667969 63.570312 56.671875h32.722656c2.199219-13.089844 9.730469-24.679687 20.800782-32 7.828125-5.253906 17.050781-8.039062 26.476562-8 .777344-.015625 1.550782.011719 2.320313.078125-5.03125-16.957031-1.773438-35.296875 8.789062-49.480469 10.566407-14.1875 27.203125-22.5625 44.890625-22.597656 11.554688-.042968 22.832032 3.539063 32.242188 10.238282 3.003906-33.269532 31.097656-58.632813 64.503906-58.238282 33.402344.398438 60.882812 26.425782 63.09375 59.757813 7.808594-2.515625 15.960938-3.785157 24.160156-3.757813 24.578125.007813 47.789063 11.304688 62.960938 30.640625 3.679687 4.65625 6.792968 9.730469 9.28125 15.117188 5.152344-11.917969 7.792968-24.773438 7.757812-37.757813-.007812-28.558594-12.695312-55.640625-34.636718-73.921875zm0 0" fill="#9bc9ff"/><g fill="#1e81ce"><path d="m480.003906 240.003906c-.042968-31.816406-14.625-61.863281-39.589844-81.582031-24.96875-19.71875-57.578124-26.945313-88.535156-19.617187-2.042968-43.234376-30.761718-80.636719-72-93.777344-.175781-.054688-.359375-.113282-.546875-.152344-10.125-3.242188-20.695312-4.886719-31.328125-4.871094-26.222656-.046875-51.484375 9.886719-70.65625 27.78125-30.246094-9.1875-63.097656-1.410156-86.015625 20.367188s-32.359375 54.1875-24.726562 84.867187c-7.402344 8.792969-12.804688 19.09375-15.832031 30.183594-34.039063 10.5-55.28125 44.3125-49.96875 79.535156 5.3125 35.222657 35.582031 61.269531 71.199218 61.265625h24c.042969 30.910156 25.089844 55.960938 56 56h240c2.96875 0 5.851563-.167968 8.800782-.441406 45.050781-4.359375 79.371093-42.300781 79.199218-87.558594-.023437-11.839844-2.472656-23.546875-7.199218-34.402344 4.746093-11.964843 7.191406-24.722656 7.199218-37.597656zm-328-160c4.371094-.003906 8.726563.386719 13.027344 1.167969-.953125 1.253906-1.800781 2.566406-2.691406 3.863281-.566406.800782-1.175782 1.601563-1.71875 2.457032-1.671875 2.582031-3.246094 5.222656-4.671875 7.933593-.214844.402344-.382813.800781-.589844 1.234375-1.203125 2.351563-2.320313 4.734375-3.335937 7.199219-.410157.976563-.753907 1.984375-1.136719 2.976563-.730469 1.910156-1.417969 3.832031-2.03125 5.792968-.355469 1.117188-.675781 2.246094-.984375 3.382813-.53125 1.910156-1.007813 3.839843-1.425782 5.785156-.246093 1.132813-.488281 2.269531-.695312 3.414063-.382812 2.097656-.671875 4.207031-.929688 6.335937-.109374 1.007813-.269531 2-.359374 3.015625-.28125 3.097656-.457032 6.242188-.457032 9.441406v1.597656c-5.265625-1.070312-10.625-1.609374-16-1.597656-2.511718 0-5.007812.152344-7.496094.390625-.757812.074219-1.519531.183594-2.277343.28125-1.761719.21875-3.511719.484375-5.25.800781-.800781.152344-1.597657.308594-2.398438.488282-1.847656.414062-3.671875.910156-5.480469 1.453125-.582031.167969-1.167968.3125-1.742187.496093-2.320313.761719-4.601563 1.601563-6.839844 2.585938-.617187.253906-1.203125.566406-1.800781.839844-1.648438.757812-3.265625 1.550781-4.847656 2.398437-.800782.425781-1.554688.871094-2.328125 1.328125-1.425781.839844-2.824219 1.722656-4.195313 2.65625-.710937.472656-1.421875.9375-2.117187 1.441406-.257813.183594-.527344.34375-.800781.535157-2.203126-20.320313 4.339843-40.621094 17.996093-55.828125 13.65625-15.207032 33.140625-23.886719 53.578125-23.867188zm-80 248c-28.4375.003906-52.363281-21.308594-55.636718-49.558594-3.273438-28.25 15.152343-54.46875 42.839843-60.960937 3.046875-.707031 5.402344-3.121094 6.03125-6.183594 6.117188-29.816406 32.332031-51.238281 62.765625-51.296875 7.488282-.046875 14.921875 1.289063 21.921875 3.941406 2.640625 1.019532 5.621094.570313 7.84375-1.183593 2.21875-1.757813 3.347657-4.554688 2.964844-7.359375-.507813-3.777344-.75-7.585938-.730469-11.398438-.035156-23.351562 9.222656-45.757812 25.734375-62.269531s38.917969-25.769531 62.265625-25.730469c9.125-.015625 18.191406 1.417969 26.867188 4.238282.199218.066406.390625.121093.597656.167968 36.1875 11.769532 60.644531 45.542969 60.535156 83.59375 0 1.726563-.078125 3.4375-.148437 5.183594-.113281 2.664062 1.105469 5.207031 3.253906 6.785156s4.941406 1.980469 7.449219 1.078125c9.449218-3.375 19.414062-5.082031 29.445312-5.046875 26.609375.039063 51.777344 12.097656 68.480469 32.808594 16.699219 20.714844 23.148437 47.867188 17.546875 73.878906l-.800781-1.007812c-20.550781-26.148438-54.066407-38.503906-86.671875-31.953125-6.605469-32.851563-35.003906-56.804688-68.5-57.777344-33.492188-.972656-63.230469 21.292969-71.734375 53.707031-8.265625-3.75-17.242188-5.675781-26.320313-5.65625-35.328125.039063-63.957031 28.667969-64 64 0 2.835938.183594 5.671875.554688 8.488282-11.390625 1.503906-22.019532 6.539062-30.402344 14.398437-.351562.328125-.71875.632813-1.070312.96875-2.023438 1.976563-3.894532 4.097656-5.601563 6.351563-.304687.398437-.589844.800781-.894531 1.222656-1.699219 2.351562-3.21875 4.828125-4.542969 7.410156-.089844.175781-.160156.367188-.242187.542969-1.277344 2.597656-2.347657 5.289062-3.199219 8.054687-.0625.210938-.175781.394532-.238281.601563zm327.265625 55.632813c-2.398437.214843-4.800781.367187-7.265625.367187h-240c-22.078125-.027344-39.972656-17.921875-40-40-.003906-2.242187.199219-4.476562.609375-6.679687 1.851563-10.921875 8.144531-20.582031 17.382813-26.6875 4.980468-3.304688 10.644531-5.441407 16.570312-6.242188.480469-.0625.96875-.054687 1.445313-.101562 1.480469-.179688 2.96875-.273438 4.457031-.289063.332031-.019531.664062-.019531.992188 0 2.664062.285156 5.292968-.777344 7.003906-2.832031 1.714844-2.058594 2.289062-4.835937 1.523437-7.402344-1.316406-4.46875-1.984375-9.105469-1.984375-13.765625.027344-26.5 21.503906-47.972656 48-48 9.898438-.023437 19.550782 3.054688 27.609375 8.800782 2.335938 1.65625 5.378907 1.941406 7.976563.742187 2.601562-1.195313 4.367187-3.691406 4.625-6.542969 2.628906-29.109375 27.203125-51.296875 56.425781-50.957031s53.269531 23.097656 55.222656 52.261719c.15625 2.46875 1.445313 4.726562 3.496094 6.113281 2.046875 1.390625 4.621094 1.75 6.972656.980469 7-2.269532 14.316407-3.414063 21.671875-3.398438 22.140625-.011718 43.054688 10.171875 56.699219 27.605469 3.296875 4.195313 6.09375 8.757813 8.328125 13.601563 10.039062 21.125 9.175781 45.8125-2.316406 66.183593-11.488282 20.375-32.171875 33.882813-55.445313 36.214844zm0 0"/><path d="m152.003906 48.003906c-4.417968 0-8-3.582031-8-8v-32c0-4.417968 3.582032-7.99999975 8-7.99999975 4.421875 0 8 3.58203175 8 7.99999975v32c0 4.417969-3.578125 8-8 8zm0 0"/><path d="m107.917969 58.402344c-3.234375 0-6.152344-1.945313-7.390625-4.933594l-12.25-29.601562c-1.691406-4.082032.25-8.761719 4.332031-10.453126 4.082031-1.6875 8.761719.25 10.453125 4.332032l12.246094 29.601562c1.023437 2.46875.746094 5.285156-.738282 7.507813-1.484374 2.222656-3.980468 3.554687-6.652343 3.554687zm0 0"/><path d="m71.15625 84.804688c-2.121094-.003907-4.15625-.84375-5.65625-2.34375l-22.628906-22.625c-2.082032-2.007813-2.914063-4.984376-2.183594-7.78125.734375-2.796876 2.917969-4.980469 5.714844-5.714844 2.796875-.730469 5.769531.105468 7.777344 2.183594l22.625 22.632812c2.289062 2.285156 2.972656 5.726562 1.734374 8.714844-1.238281 2.988281-4.152343 4.9375-7.390624 4.941406zm0 0"/><path d="m47.300781 123.308594c-1.050781 0-2.089843-.207032-3.0625-.609375l-29.5625-12.25c-4.082031-1.691407-6.019531-6.371094-4.328125-10.453125 1.695313-4.082032 6.375-6.019532 10.457032-4.328125l29.601562 12.246093c3.527344 1.460938 5.53125 5.210938 4.785156 8.953126-.746094 3.746093-4.03125 6.441406-7.851562 6.441406zm0 0"/><path d="m40.003906 168.003906h-32c-4.417968 0-7.99999975-3.582031-7.99999975-8 0-4.417968 3.58203175-8 7.99999975-8h32c4.421875 0 8 3.582032 8 8 0 4.417969-3.578125 8-8 8zm0 0"/></g></svg>