<svg height="480pt" viewBox="0 -68 480.22048 480" width="480pt" xmlns="http://www.w3.org/2000/svg"><path d="m376.003906 144.109375c-10.957031-.027344-21.835937 1.839844-32.160156 5.519531.082031-1.839844.160156-3.679687.160156-5.519531 0-53.019531-42.980468-96-96-96-53.019531 0-96 42.980469-96 96-.015625 4.175781.25 8.34375.800782 12.480469-7.921876-3.003906-16.328126-4.523438-24.800782-4.480469-34.214844.078125-63.675781 24.164063-70.558594 57.679687-31.65625 7.402344-52.734374 37.355469-49.011718 69.648438 3.722656 32.296875 31.0625 56.667969 63.570312 56.671875h304c2.722656 0 5.363282-.078125 8-.320313 51.359375-4.203124 90.238282-48.199218 88.089844-99.683593-2.148438-51.480469-44.558594-92.085938-96.089844-91.996094zm0 0" fill="#9bc9ff"/><g fill="#1e81ce"><path d="m376.003906 136.109375c-8.121094-.011719-16.222656.925781-24.125 2.800781-1.992187-40.363281-27.199218-75.910156-64.628906-91.140625s-80.296875-7.382812-109.902344 20.125c-30.246094-9.195312-63.097656-1.417969-86.015625 20.355469-22.917969 21.777344-32.363281 54.191406-24.726562 84.867188-7.398438 8.800781-12.800781 19.101562-15.832031 30.191406-34.039063 10.503906-55.28125 44.316406-49.96875 79.539062s35.582031 61.265625 71.199218 61.261719h304c2.96875 0 5.851563-.085937 8.664063-.34375 55.652343-4.535156 97.789062-52.203125 95.460937-107.992187-2.328125-55.785157-48.289062-99.777344-104.125-99.664063zm-224-56c4.371094 0 8.726563.390625 13.027344 1.167969-.992188 1.304687-1.882812 2.671875-2.800781 4-.519531.800781-1.082031 1.488281-1.601563 2.257812-1.695312 2.605469-3.28125 5.269532-4.726562 8-.152344.296875-.28125.605469-.433594.910156-1.261719 2.449219-2.421875 4.941407-3.480469 7.480469-.398437.945313-.734375 1.921875-1.101562 2.878907-.738281 1.945312-1.441407 3.898437-2.066407 5.890624-.351562 1.101563-.664062 2.214844-.964843 3.328126-.535157 1.929687-1.011719 3.875-1.433594 5.832031-.25 1.125-.496094 2.253906-.695313 3.390625-.386718 2.097656-.671874 4.214844-.929687 6.34375-.109375 1.007812-.269531 2-.359375 3.015625-.257812 3.160156-.433594 6.304687-.433594 9.503906v1.601563c-5.261718-1.074219-10.625-1.609376-16-1.601563-2.511718 0-5.007812.152344-7.496094.394531-.796874.070313-1.519531.183594-2.285156.277344-1.761718.21875-3.507812.484375-5.242187.800781-.800781.152344-1.597657.3125-2.398438.488281-1.855469.414063-3.679687.910157-5.496093 1.457032-.578126.167968-1.160157.3125-1.726563.496094-2.328125.757812-4.617187 1.597656-6.859375 2.582031-.597656.257812-1.167969.5625-1.757812.800781-1.65625.800781-3.296876 1.601562-4.898438 2.398438-.796875.425781-1.527344.859374-2.277344 1.304687-1.457031.847656-2.871094 1.753906-4.265625 2.695313-.6875.464843-1.382812.914062-2.046875 1.394531-.273437.191406-.550781.359375-.800781.550781-.28125-2.535156-.429687-5.085938-.449219-7.640625.050782-39.742187 32.257813-71.949219 72-72zm231.273438 247.710937c-2.398438.226563-4.800782.289063-7.273438.289063h-304c-28.441406 0-52.367187-21.324219-55.625-49.582031-3.261718-28.253906 15.179688-54.464844 42.875-60.945313 3.042969-.703125 5.398438-3.117187 6.03125-6.175781 6.109375-29.800781 32.300782-51.222656 62.71875-51.296875 7.488282-.046875 14.921875 1.289063 21.921875 3.945313 2.640625 1.019531 5.625.566406 7.847657-1.191407 2.21875-1.753906 3.347656-4.554687 2.960937-7.359375-.503906-3.777344-.746094-7.585937-.730469-11.394531 0-48.601563 39.402344-88 88-88 48.601563 0 88 39.398437 88 88 0 1.722656-.070312 3.441406-.148437 5.167969-.117188 2.664062 1.097656 5.210937 3.246093 6.792968 2.144532 1.582032 4.9375 1.988282 7.449219 1.089844 9.453125-3.375 19.417969-5.085937 29.453125-5.050781 47.25-.085937 86.132813 37.15625 88.085938 84.363281 1.953125 47.207032-33.71875 87.53125-80.8125 91.347656zm0 0"/><path d="m152.003906 48.109375c-4.417968 0-8-3.582031-8-8v-32c0-4.417969 3.582032-8 8-8 4.421875 0 8 3.582031 8 8v32c0 4.417969-3.578125 8-8 8zm0 0"/><path d="m107.925781 58.511719c-3.238281.003906-6.160156-1.945313-7.398437-4.9375l-12.242188-29.601563c-1.539062-4.042968.417969-8.578125 4.414063-10.234375 4-1.65625 8.589843.167969 10.363281 4.117188l12.246094 29.597656c1.019531 2.46875.742187 5.28125-.738282 7.5-1.484374 2.21875-3.976562 3.554687-6.644531 3.558594zm0 0"/><path d="m71.15625 84.910156c-2.121094 0-4.15625-.84375-5.65625-2.34375l-22.628906-22.625c-2.082032-2.007812-2.914063-4.980468-2.183594-7.777344.734375-2.800781 2.917969-4.984374 5.714844-5.714843 2.796875-.734375 5.769531.101562 7.777344 2.179687l22.625 22.632813c2.289062 2.289062 2.972656 5.730469 1.734374 8.71875-1.238281 2.988281-4.152343 4.9375-7.390624 4.9375zm0 0"/><path d="m47.300781 123.421875c-1.046875-.003906-2.085937-.210937-3.054687-.617187l-29.601563-12.246094c-4.082031-1.703125-6.011719-6.390625-4.3125-10.472656 1.703125-4.082032 6.390625-6.011719 10.472657-4.3125l29.601562 12.25c3.539062 1.453124 5.550781 5.207031 4.804688 8.960937-.746094 3.75-4.042969 6.449219-7.871094 6.4375zm0 0"/><path d="m40.003906 168.109375h-32c-4.417968 0-7.99999975-3.582031-7.99999975-8s3.58203175-8 7.99999975-8h32c4.421875 0 8 3.582031 8 8s-3.578125 8-8 8zm0 0"/></g></svg>