<svg height="479pt" viewBox="0 -74 479.77948 479" width="479pt" xmlns="http://www.w3.org/2000/svg"><path d="m217.648438 75.03125c-.457032-.804688-.964844-1.578125-1.519532-2.320312-2.609375-3.574219-5.800781-6.683594-9.4375-9.203126-5.835937-4.066406-12.664062-6.472656-19.761718-6.957031-1.007813-.136719-2.023438-.191406-3.039063-.160156-5.597656-.019531-11.132813 1.152344-16.242187 3.4375-.074219-1.183594-.234376-2.359375-.480469-3.519531-1.082031-6.40625-3.449219-12.527344-6.957031-18-5.976563-9.246094-14.964844-16.140625-25.441407-19.519532-4.792969-1.617187-9.820312-2.429687-14.878906-2.398437-26.511719 0-48 21.488281-48 48-.023437 7.175781 1.589844 14.261719 4.71875 20.71875-6.457031-3.128906-13.542969-4.742187-20.71875-4.71875-26.511719 0-48 21.488281-48 48 0 26.507813 21.488281 48 48 48h88.320313c-.242188-2.640625-.320313-5.28125-.320313-8-.015625-44.453125 30.511719-83.089844 73.757813-93.359375zm0 0" fill="#9bc9ff"/><path d="m423.890625 216.390625c-7.175781-.023437-14.261719 1.589844-20.722656 4.71875 3.128906-6.457031 4.742187-13.542969 4.722656-20.71875 0-26.511719-21.492187-48-48-48-5.058594-.03125-10.089844.78125-14.882813 2.398437-3.355468 1.0625-6.578124 2.511719-9.597656 4.320313-12.140625 7.144531-20.492187 19.304687-22.800781 33.199219-.242187 1.160156-.402344 2.335937-.480469 3.519531-5.105468-2.285156-10.644531-3.457031-16.238281-3.4375-1.015625-.03125-2.035156.023437-3.039063.160156-7.097656.484375-13.929687 2.890625-19.761718 6.957031-16.625 11.519532-22.019532 33.644532-12.558594 51.523438-1.488281-.675781-3.042969-1.183594-4.640625-1.523438-2.605469-.734374-5.296875-1.109374-8-1.117187-10.671875.035156-20.625 5.371094-26.5625 14.238281-2.921875 4.230469-4.734375 9.128906-5.277344 14.242188-.082031 1.199218-.160156 2.320312-.160156 3.519531-.023437 11.324219 5.980469 21.808594 15.757813 27.519531 4.90625 2.945313 10.519531 4.496094 16.242187 4.480469h176c26.507813 0 48-21.492187 48-48 0-26.511719-21.492187-48-48-48zm0 0" fill="#9bc9ff"/><g fill="#1e81ce"><path d="m221.328125 270.628906c-.515625 0-1.027344-.046875-1.535156-.144531-45.554688-9.0625-79.625-47.164063-83.558594-93.445313-.257813-2.800781-.34375-5.679687-.34375-8.648437-.171875-48.214844 32.972656-90.164063 79.917969-101.152344 7.882812-1.910156 15.96875-2.867187 24.082031-2.847656 53.628906-.230469 98.550781 40.554687 103.488281 93.960937.292969 3.09375-1.238281 6.082032-3.921875 7.652344-10.101562 5.953125-17.046875 16.078125-18.960937 27.648438-.1875.890625-.316406 1.789062-.382813 2.699218-.171875 2.613282-1.613281 4.980469-3.859375 6.332032-2.246094 1.351562-5.011718 1.515625-7.402344.441406-4.347656-1.863281-9.035156-2.796875-13.761718-2.734375-.3125-.007813-.625.011719-.9375.0625-5.914063.347656-11.625 2.296875-16.511719 5.648437-7.355469 5.113282-12.222656 13.085938-13.398437 21.96875-.21875 1.429688-.335938 2.871094-.351563 4.320313-.007813 5.179687 1.257813 10.28125 3.6875 14.855469 1.617187 3.011718 1.140625 6.71875-1.183594 9.226562-2.328125 2.507813-5.988281 3.257813-9.113281 1.867188-.949219-.433594-1.941406-.765625-2.960938-.988282-2.089843-.613281-4.253906-.933593-6.429687-.960937-7.972656.03125-15.410156 4.011719-19.863281 10.625-1.480469 2.253906-4 3.617187-6.699219 3.613281zm18.5625-190.238281c-6.847656-.019531-13.675781.785156-20.328125 2.398437-39.75 9.28125-67.816406 44.785157-67.671875 85.601563 0 2.472656.0625 4.863281.289063 7.261719 3.148437 37.394531 29.601562 68.703125 65.941406 78.058594 3.871094-4.300782 8.621094-7.71875 13.929687-10.015626 5.203125-2.277343 10.832031-3.402343 16.511719-3.304687-2.28125-13.320313 1.171875-26.984375 9.507812-37.621094 8.335938-10.636719 20.78125-17.253906 34.257813-18.21875 1.183594-.140625 2.371094-.195312 3.5625-.160156 3.375-.003906 6.742187.34375 10.046875 1.039063 3.332031-12.179688 10.71875-22.855469 20.9375-30.273438-6.351562-43.09375-43.425781-74.960938-86.984375-74.765625zm0 0"/><path d="m144.210938 184.390625h-88.320313c-21.019531-.042969-40.246094-11.851563-49.789063-30.578125-9.539062-18.726562-7.792968-41.222656 4.53125-58.25 12.320313-17.03125 33.140626-25.722656 53.914063-22.515625-2.496094-16.164063 2.191406-32.613281 12.824219-45.035156 10.636718-12.425781 26.164062-19.589844 42.519531-19.621094 5.949219-.035156 11.859375.921875 17.496094 2.832031 17.8125 5.78125 31.511719 20.148438 36.4375 38.214844 4.714843-1.121094 9.59375-1.394531 14.402343-.800781 8.269532.65625 16.214844 3.511719 23.007813 8.273437 4.378906 3.023438 8.21875 6.765625 11.359375 11.0625.695312.9375 1.339844 1.917969 1.921875 2.929688 1.304687 2.1875 1.492187 4.867187.5 7.21875-.992187 2.347656-3.046875 4.082031-5.527344 4.667968-39.722656 9.296876-67.761719 44.800782-67.597656 85.601563 0 2.472656.0625 4.863281.289063 7.261719.207031 2.246094-.542969 4.476562-2.066407 6.140625-1.523437 1.664062-3.679687 2.605469-5.933593 2.597656zm-88.320313-96c-22.09375 0-40 17.90625-40 40 0 22.089844 17.90625 40 40 40h80c-.160156-43.410156 26.796875-82.304687 67.503906-97.394531-.410156-.308594-.800781-.613282-1.25-.902344-4.644531-3.253906-10.085937-5.1875-15.742187-5.601562-.832032-.109376-1.675782-.144532-2.511719-.101563-4.464844-.023437-8.886719.910156-12.960937 2.734375-2.390626 1.074219-5.15625.910156-7.40625-.441406-2.246094-1.351563-3.6875-3.71875-3.859376-6.332032-.050781-.808593-.15625-1.609374-.316406-2.402343-.894531-5.449219-2.886718-10.664063-5.859375-15.320313-4.960937-7.675781-12.425781-13.40625-21.125-16.214844-4.015625-1.371093-8.230469-2.054687-12.472656-2.023437-22.082031.027344-39.972656 17.917969-40 40-.027344 5.960937 1.308594 11.851563 3.910156 17.214844 1.496094 3.070312.878907 6.746093-1.535156 9.160156s-6.089844 3.03125-9.160156 1.535156c-5.363281-2.605469-11.253907-3.945312-17.214844-3.910156zm0 0"/><path d="m423.890625 320.390625h-176c-22.070313-.058594-39.945313-17.933594-40-40 0-1.359375.078125-2.625.167969-4 .648437-6.578125 2.953125-12.886719 6.695312-18.335937 7.5625-11.222657 20.277344-17.867188 33.808594-17.664063-2.28125-13.320313 1.171875-26.980469 9.503906-37.617187 8.335938-10.636719 20.777344-17.253907 34.253906-18.222657 1.183594-.140625 2.378907-.195312 3.570313-.160156 3.375-.003906 6.742187.34375 10.046875 1.039063 3.824219-13.960938 12.945312-25.878907 25.425781-33.214844 8.652344-5.078125 18.492188-7.777344 28.527344-7.824219 16.355469.03125 31.882813 7.195313 42.515625 19.621094 10.636719 12.421875 15.320312 28.871093 12.828125 45.035156 20.773437-3.207031 41.589844 5.484375 53.914063 22.515625 12.320312 17.027344 14.070312 39.523438 4.527343 58.25s-28.765625 30.535156-49.785156 30.578125zm-176-64c-7.972656.03125-15.410156 4.011719-19.863281 10.625-2.214844 3.171875-3.589844 6.855469-4 10.703125 0 .800781-.113282 1.679688-.113282 2.671875.007813 8.476563 4.496094 16.316406 11.800782 20.613281 3.671875 2.226563 7.882812 3.394532 12.175781 3.386719h176c22.089844 0 40-17.910156 40-40 0-22.09375-17.910156-40-40-40-5.964844-.035156-11.855469 1.304687-17.21875 3.910156-3.066406 1.496094-6.746094.878907-9.160156-1.535156-2.414063-2.414063-3.027344-6.089844-1.535157-9.160156 2.601563-5.363281 3.941407-11.253907 3.914063-17.214844-.027344-22.082031-17.921875-39.972656-40-40-4.167969-.035156-8.316406.625-12.265625 1.960937-2.84375.886719-5.578125 2.109376-8.136719 3.636719-10.121093 5.949219-17.078125 16.082031-18.992187 27.664063-.1875.890625-.316406 1.789062-.382813 2.699218-.171875 2.613282-1.613281 4.980469-3.859375 6.332032-2.246094 1.351562-5.011718 1.515625-7.402344.441406-4.347656-1.855469-9.035156-2.789062-13.761718-2.734375-.3125-.007813-.625.011719-.9375.0625-5.914063.347656-11.625 2.296875-16.511719 5.648437-7.355469 5.113282-12.222656 13.085938-13.398437 21.96875-.21875 1.429688-.335938 2.871094-.351563 4.320313-.007813 5.179687 1.257813 10.28125 3.6875 14.855469 1.617187 3.011718 1.140625 6.71875-1.183594 9.226562-2.328125 2.507813-5.988281 3.257813-9.113281 1.867188-.949219-.433594-1.941406-.765625-2.960938-.988282-2.089843-.613281-4.253906-.933593-6.429687-.960937zm0 0"/><path d="m239.890625 48.390625c-4.417969 0-8-3.582031-8-8v-32c0-4.417969 3.582031-8 8-8s8 3.582031 8 8v32c0 4.417969-3.582031 8-8 8zm0 0"/><path d="m92.074219 237.613281c-3.820313.003907-7.105469-2.691406-7.851563-6.4375-.746094-3.746093 1.257813-7.492187 4.785156-8.953125l29.601563-12.242187c4.082031-1.691407 8.765625.246093 10.457031 4.328125 1.691406 4.082031-.246094 8.765625-4.328125 10.457031l-29.601562 12.238281c-.96875.40625-2.011719.613282-3.0625.609375zm0 0"/><path d="m126.753906 289.535156c-3.234375-.003906-6.152344-1.953125-7.390625-4.941406s-.554687-6.429688 1.734375-8.714844l22.625-22.640625c3.125-3.125 8.191406-3.125 11.320313 0 3.125 3.125 3.125 8.195313 0 11.320313l-22.632813 22.632812c-1.5 1.5-3.535156 2.34375-5.65625 2.34375zm0 0"/><path d="m178.65625 332.214844c-2.671875 0-5.167969-1.335938-6.652344-3.558594-1.484375-2.21875-1.761718-5.039062-.738281-7.507812l12.25-29.597657c1.691406-4.082031 6.371094-6.019531 10.453125-4.328125s6.019531 6.371094 4.328125 10.457032l-12.246094 29.597656c-1.238281 2.988281-4.15625 4.9375-7.394531 4.9375zm0 0"/><path d="m358.152344 127.40625c-3.816406.003906-7.109375-2.6875-7.855469-6.433594-.75-3.746094 1.253906-7.5 4.785156-8.957031l29.601563-12.242187c4.082031-1.691407 8.761718.25 10.449218 4.332031 1.691407 4.082031-.25 8.761719-4.332031 10.453125l-29.589843 12.230468c-.96875.40625-2.007813.613282-3.058594.617188zm0 0"/><path d="m330.394531 85.886719c-3.238281 0-6.160156-1.949219-7.398437-4.941407-1.238282-2.992187-.550782-6.4375 1.742187-8.722656l22.632813-22.632812c3.136718-3.03125 8.128906-2.988282 11.214844.097656 3.085937 3.085938 3.128906 8.074219.097656 11.214844l-22.625 22.640625c-1.503906 1.5-3.539063 2.34375-5.664063 2.34375zm0 0"/><path d="m288.875 58.132812c-1.050781 0-2.09375-.207031-3.066406-.605468-4.082032-1.691406-6.019532-6.375-4.328125-10.457032l12.25-29.5625c1.6875-4.082031 6.367187-6.019531 10.453125-4.328124 4.082031 1.6875 6.019531 6.367187 4.332031 10.449218l-12.25 29.601563c-1.25 2.976562-4.164063 4.910156-7.390625 4.902343zm0 0"/><path d="m126.753906 289.535156c-3.234375-.003906-6.152344-1.953125-7.390625-4.941406s-.554687-6.429688 1.734375-8.714844l22.625-22.640625c3.125-3.125 8.191406-3.125 11.320313 0 3.125 3.125 3.125 8.195313 0 11.320313l-22.632813 22.632812c-1.5 1.5-3.535156 2.34375-5.65625 2.34375zm0 0"/><path d="m330.394531 85.886719c-3.238281 0-6.160156-1.949219-7.398437-4.941407-1.238282-2.992187-.550782-6.4375 1.742187-8.722656l22.632813-22.632812c3.136718-3.03125 8.128906-2.988282 11.214844.097656 3.085937 3.085938 3.128906 8.074219.097656 11.214844l-22.625 22.640625c-1.503906 1.5-3.539063 2.34375-5.664063 2.34375zm0 0"/></g></svg>