<svg height="482pt" viewBox="0 0 482 482.72" width="482pt" xmlns="http://www.w3.org/2000/svg"><path d="m248.277344 474.71875c94.363281.066406 179.980468-55.238281 218.71875-141.277344-31.003906 14.074219-64.667969 21.332032-98.71875 21.277344-81.492188.023438-157.421875-41.320312-201.628906-109.777344-44.203126-68.460937-50.640626-154.675781-17.089844-228.941406-103.035156 46.542969-159.613282 158.683594-135.828125 269.214844 23.785156 110.527344 121.488281 189.46875 234.546875 189.503906zm0 0" fill="#9bc9ff"/><path d="m248.277344 482.71875c-116.832032-.039062-217.789063-81.609375-242.367188-195.828125-24.578125-114.214844 33.894532-230.097656 140.367188-278.1875l19.34375-8.703125-8.800782 19.3125c-13.625 29.957031-20.632812 62.496094-20.542968 95.40625.140625 128.074219 103.929687 231.859375 232 232 32.910156.085938 65.453125-6.925781 95.410156-20.558594l19.308594-8.800781-8.703125 19.359375c-40.132813 88.828125-128.542969 145.9375-226.015625 146zm-114.078125-450c-85.414063 48.214844-131.277344 144.933594-114.558594 241.582031 16.71875 96.644531 92.410156 172.335938 189.054687 189.054688 96.648438 16.722656 193.367188-29.144531 241.582032-114.554688-26.339844 9.273438-54.074219 13.980469-82 13.917969-136.898438-.15625-247.839844-111.097656-248-248-.0625-27.925781 4.648437-55.65625 13.921875-82zm0 0" fill="#1e81ce"/></svg>