<svg height="479pt" viewBox="0 -2 479.62338 479" width="479pt" xmlns="http://www.w3.org/2000/svg"><path d="m376 104.292969c-10.957031-.03125-21.839844 1.839843-32.160156 5.519531.082031-1.839844.160156-3.679688.160156-5.519531.003906-44.792969-30.96875-83.632813-74.640625-93.601563-1.679687-.398437-3.4375-.71875-5.199219-.957031-2.480468-.480469-4.960937-.800781-7.519531-1.042969-2.878906-.238281-5.761719-.398437-8.640625-.398437-25.824219-.03125-50.570312 10.351562-68.640625 28.800781-6.082031 6.136719-11.253906 13.113281-15.359375 20.71875-.105469.230469-.238281.445312-.398438.640625v.078125c-3.273437 5.933594-5.875 12.214844-7.761718 18.722656-1.589844 5.515625-2.6875 11.167969-3.28125 16.878906-.386719 3.371094-.574219 6.765626-.558594 10.160157-.015625 4.171875.25 8.34375.800781 12.480469-7.921875-3.003907-16.328125-4.523438-24.800781-4.480469-10.742188.003906-21.347656 2.410156-31.039062 7.039062-3.125 1.53125-6.148438 3.265625-9.039063 5.199219-1.714844 1.113281-3.34375 2.339844-4.882813 3.683594-2.726562 2.152344-5.296874 4.507812-7.679687 7.039062-2.300781 2.421875-4.414063 5.015625-6.320313 7.757813-5.691406 8.085937-9.640624 17.269531-11.597656 26.960937-4.628906 1.070313-9.113281 2.679688-13.359375 4.800782-5.210937 2.539062-10.054687 5.769531-14.402343 9.597656-3.101563 2.691406-5.917969 5.691406-8.398438 8.960937-14.875 19.316407-17.472656 45.40625-6.699219 67.273438 10.769531 21.871093 33.039063 35.710937 57.417969 35.6875h304c2.71875 0 5.359375-.078125 8-.320313 51.355469-4.203125 90.234375-48.199218 88.085938-99.683594-2.148438-51.484374-44.558594-92.085937-96.085938-91.996093zm0 0" fill="#9bc9ff"/><g fill="#1e81ce"><path d="m376 304.292969h-304c-39.746094-.042969-71.9570312-32.253907-72-72-.0429688-15.871094 5.214844-31.300781 14.945312-43.839844 2.796876-3.6875 5.972657-7.074219 9.472657-10.105469 4.867187-4.292968 10.289062-7.910156 16.125-10.75 3.28125-1.660156 6.695312-3.035156 10.210937-4.105468 2.414063-8.992188 6.394532-17.492188 11.75-25.109376 2.140625-3.082031 4.515625-5.992187 7.105469-8.707031 2.625-2.789062 5.453125-5.375 8.464844-7.742187 1.703125-1.484375 3.511719-2.847656 5.414062-4.074219 3.191407-2.132813 6.519531-4.046875 9.96875-5.734375 15.734375-7.46875 33.464844-9.652344 50.542969-6.230469 0-.53125 0-1.066406 0-1.601562-.023438-3.722657.183594-7.445313.625-11.144531.636719-6.148438 1.820312-12.222657 3.542969-18.160157 1.988281-6.855469 4.710937-13.476562 8.113281-19.75.179688-.40625.390625-.796875.632812-1.167969l.0625-.097656v.054688c4.457032-8.269532 10.078126-15.859375 16.6875-22.535156 21.882813-22.230469 52.558594-33.519532 83.632813-30.773438 2.917969.269531 5.648437.628906 8.382813 1.15625 1.601562.210938 3.59375.578125 5.519531 1.035156 45.261719 10.597656 78.113281 49.769532 80.664062 96.183594 37.910157-8.894531 77.609375 4.128906 102.882813 33.753906 25.269531 29.621094 31.875 70.878906 17.117187 106.914063-14.757812 36.03125-48.410156 60.800781-87.199219 64.1875-2.816406.253906-5.695312.34375-8.664062.34375zm-248-184c-9.554688 0-18.988281 2.140625-27.609375 6.265625-2.765625 1.363281-5.4375 2.910156-8 4.628906-1.398437.902344-2.734375 1.898438-4 2.984375-2.558594 2.003906-4.964844 4.191406-7.199219 6.554687-2.042968 2.152344-3.914062 4.460938-5.597656 6.902344-5.042969 7.183594-8.550781 15.332032-10.296875 23.9375-.617187 3.042969-2.941406 5.453125-5.960937 6.183594-4.015626.921875-7.910157 2.3125-11.601563 4.152344-4.597656 2.230468-8.875 5.074218-12.71875 8.445312-2.703125 2.34375-5.160156 4.957032-7.328125 7.800782-7.59375 9.761718-11.707031 21.777343-11.6875 34.144531.035156 30.914062 25.085938 55.964843 56 56h304c2.472656 0 4.863281-.0625 7.265625-.289063 47.089844-3.816406 82.761719-44.140625 80.8125-91.347656-1.953125-47.203125-40.832031-84.445312-88.078125-84.363281-10.035156-.035157-20 1.671875-29.449219 5.046875-2.507812.90625-5.300781.5-7.449219-1.082032-2.148437-1.578124-3.367187-4.125-3.253906-6.789062.074219-1.71875.152344-3.449219.152344-5.175781-.203125-40.984375-28.5-76.472657-68.40625-85.800781-1.488281-.34375-2.992188-.609376-4.503906-.800782-2.671875-.503906-4.90625-.796875-7.203125-1.007812-2.566407-.238282-5.222657-.390625-7.886719-.390625-23.683594-.078125-46.390625 9.445312-62.925781 26.398437-5.554688 5.597656-10.28125 11.960938-14.027344 18.898438-.085937.175781-.183594.34375-.277344.511718-.097656.167969-.105469.207032-.160156.3125-2.988281 5.410157-5.367187 11.140626-7.089844 17.078126-1.457031 5.074218-2.460937 10.265624-3.007812 15.511718-.359375 3.082032-.53125 6.183594-.511719 9.289063-.019531 3.8125.222656 7.621093.726562 11.398437.382813 2.804688-.742187 5.601563-2.964843 7.359375-2.21875 1.753907-5.203125 2.207031-7.839844 1.1875-7.003906-2.65625-14.433594-3.996093-21.921875-3.945312zm0 0"/><path d="m252.6875 363.605469c-3.234375 0-6.152344-1.949219-7.386719-4.9375-1.238281-2.992188-.554687-6.429688 1.730469-8.71875l22.625-22.625c3.140625-3.03125 8.128906-2.988281 11.214844.097656 3.085937 3.085937 3.128906 8.074219.097656 11.214844l-22.625 22.625c-1.5 1.5-3.535156 2.34375-5.65625 2.34375zm0 0"/><path d="m204.6875 363.605469c-3.234375 0-6.152344-1.949219-7.386719-4.9375-1.238281-2.992188-.554687-6.429688 1.730469-8.71875l22.625-22.625c2.007812-2.078125 4.984375-2.914063 7.78125-2.179688 2.796875.730469 4.980469 2.914063 5.710938 5.710938.734374 2.796875-.101563 5.773437-2.179688 7.78125l-22.625 22.625c-1.5 1.5-3.535156 2.34375-5.65625 2.34375zm0 0"/><path d="m156.6875 363.605469c-3.234375 0-6.152344-1.949219-7.386719-4.9375-1.238281-2.992188-.554687-6.429688 1.730469-8.71875l22.625-22.625c2.007812-2.078125 4.984375-2.914063 7.78125-2.179688 2.796875.730469 4.980469 2.914063 5.710938 5.710938.734374 2.796875-.101563 5.773437-2.179688 7.78125l-22.625 22.625c-1.5 1.5-3.535156 2.34375-5.65625 2.34375zm0 0"/><path d="m300.6875 363.605469c-3.234375 0-6.152344-1.949219-7.386719-4.9375-1.238281-2.992188-.554687-6.429688 1.730469-8.71875l22.625-22.625c3.140625-3.03125 8.128906-2.988281 11.214844.097656 3.085937 3.085937 3.128906 8.074219.097656 11.214844l-22.625 22.625c-1.5 1.5-3.535156 2.34375-5.65625 2.34375zm0 0"/><path d="m348.6875 363.605469c-3.234375 0-6.152344-1.949219-7.386719-4.9375-1.238281-2.992188-.554687-6.429688 1.730469-8.71875l22.625-22.625c3.140625-3.03125 8.128906-2.988281 11.214844.097656 3.085937 3.085937 3.128906 8.074219.097656 11.214844l-22.625 22.625c-1.5 1.5-3.535156 2.34375-5.65625 2.34375zm0 0"/><path d="m196.6875 419.605469c-3.234375 0-6.152344-1.949219-7.386719-4.9375-1.238281-2.992188-.554687-6.429688 1.730469-8.71875l22.625-22.625c2.007812-2.078125 4.984375-2.914063 7.78125-2.179688 2.796875.730469 4.980469 2.914063 5.710938 5.710938.734374 2.796875-.101563 5.773437-2.179688 7.78125l-22.625 22.625c-1.5 1.5-3.535156 2.34375-5.65625 2.34375zm0 0"/><path d="m148.6875 419.605469c-3.234375 0-6.152344-1.949219-7.386719-4.9375-1.238281-2.992188-.554687-6.429688 1.730469-8.71875l22.625-22.625c2.007812-2.078125 4.984375-2.914063 7.78125-2.179688 2.796875.730469 4.980469 2.914063 5.710938 5.710938.734374 2.796875-.101563 5.773437-2.179688 7.78125l-22.625 22.625c-1.5 1.5-3.535156 2.34375-5.65625 2.34375zm0 0"/><path d="m100.6875 419.605469c-3.234375 0-6.152344-1.949219-7.386719-4.9375-1.238281-2.992188-.554687-6.429688 1.730469-8.71875l22.625-22.625c2.007812-2.078125 4.984375-2.914063 7.78125-2.179688 2.796875.730469 4.980469 2.914063 5.710938 5.710938.734374 2.796875-.101563 5.773437-2.179688 7.78125l-22.625 22.625c-1.5 1.5-3.535156 2.34375-5.65625 2.34375zm0 0"/><path d="m244.6875 419.605469c-3.234375 0-6.152344-1.949219-7.386719-4.9375-1.238281-2.992188-.554687-6.429688 1.730469-8.71875l22.625-22.625c3.140625-3.03125 8.128906-2.988281 11.214844.097656 3.085937 3.085937 3.128906 8.074219.097656 11.214844l-22.625 22.625c-1.5 1.5-3.535156 2.34375-5.65625 2.34375zm0 0"/><path d="m292.6875 419.605469c-3.234375 0-6.152344-1.949219-7.386719-4.9375-1.238281-2.992188-.554687-6.429688 1.730469-8.71875l22.625-22.625c3.140625-3.03125 8.128906-2.988281 11.214844.097656 3.085937 3.085937 3.128906 8.074219.097656 11.214844l-22.625 22.625c-1.5 1.5-3.535156 2.34375-5.65625 2.34375zm0 0"/><path d="m140.6875 475.605469c-3.234375 0-6.152344-1.949219-7.386719-4.9375-1.238281-2.992188-.554687-6.429688 1.730469-8.71875l22.625-22.625c2.007812-2.078125 4.984375-2.914063 7.78125-2.179688 2.796875.730469 4.980469 2.914063 5.710938 5.710938.734374 2.796875-.101563 5.773437-2.179688 7.78125l-22.625 22.625c-1.5 1.5-3.535156 2.34375-5.65625 2.34375zm0 0"/><path d="m92.6875 475.605469c-3.234375 0-6.152344-1.949219-7.386719-4.9375-1.238281-2.992188-.554687-6.429688 1.730469-8.71875l22.625-22.625c2.007812-2.078125 4.984375-2.914063 7.78125-2.179688 2.796875.730469 4.980469 2.914063 5.710938 5.710938.734374 2.796875-.101563 5.773437-2.179688 7.78125l-22.625 22.625c-1.5 1.5-3.535156 2.34375-5.65625 2.34375zm0 0"/><path d="m44.6875 475.605469c-3.234375 0-6.152344-1.949219-7.386719-4.9375-1.238281-2.992188-.554687-6.429688 1.730469-8.71875l22.625-22.625c2.007812-2.078125 4.984375-2.914063 7.78125-2.179688 2.796875.730469 4.980469 2.914063 5.710938 5.710938.734374 2.796875-.101563 5.773437-2.179688 7.78125l-22.625 22.625c-1.5 1.5-3.535156 2.34375-5.65625 2.34375zm0 0"/><path d="m188.6875 475.605469c-3.234375 0-6.152344-1.949219-7.386719-4.9375-1.238281-2.992188-.554687-6.429688 1.730469-8.71875l22.625-22.625c2.007812-2.078125 4.984375-2.914063 7.78125-2.179688 2.796875.730469 4.980469 2.914063 5.710938 5.710938.734374 2.796875-.101563 5.773437-2.179688 7.78125l-22.625 22.625c-1.5 1.5-3.535156 2.34375-5.65625 2.34375zm0 0"/><path d="m236.6875 475.605469c-3.234375 0-6.152344-1.949219-7.386719-4.9375-1.238281-2.992188-.554687-6.429688 1.730469-8.71875l22.625-22.625c3.140625-3.03125 8.128906-2.988281 11.214844.097656 3.085937 3.085937 3.128906 8.074219.097656 11.214844l-22.625 22.625c-1.5 1.5-3.535156 2.34375-5.65625 2.34375zm0 0"/></g></svg>