<svg height="479pt" viewBox="0 -2 479.62338 479" width="479pt" xmlns="http://www.w3.org/2000/svg"><path d="m379.601562 104.296875c-10.960937-.03125-21.839843 1.835937-32.160156 5.519531.078125-1.839844.160156-3.679687.160156-5.519531 0-44.792969-30.972656-83.636719-74.640624-93.601563-1.679688-.398437-3.441407-.71875-5.199219-.960937-2.480469-.480469-4.960938-.800781-7.519531-1.039063-2.882813-.238281-5.761719-.398437-8.640626-.398437-25.824218-.03125-50.570312 10.351563-68.640624 28.796875-6.085938 6.140625-11.257813 13.117188-15.359376 20.722656-.105468.230469-.238281.445313-.402343.640625v.078125c-3.269531 5.933594-5.875 12.210938-7.757813 18.71875-1.59375 5.519532-2.691406 11.167969-3.28125 16.882813-.390625 3.371093-.578125 6.765625-.558594 10.160156-.019531 4.171875.25 8.339844.796876 12.476563-7.917969-3.003907-16.328126-4.523438-24.796876-4.476563-10.742187.003906-21.347656 2.410156-31.042968 7.039063-3.125 1.527343-6.144532 3.265624-9.039063 5.199218-1.710937 1.109375-3.339843 2.339844-4.878906 3.679688-2.730469 2.15625-5.296875 4.507812-7.679687 7.039062-2.304688 2.421875-4.414063 5.015625-6.320313 7.761719-5.691406 8.085937-9.644531 17.265625-11.601563 26.960937-4.625 1.070313-9.109374 2.679688-13.359374 4.796876-5.207032 2.542968-10.050782 5.769531-14.398438 9.601562-3.101562 2.6875-5.917969 5.691406-8.402344 8.960938-14.871094 19.3125-17.472656 45.40625-6.699218 67.273437 10.773437 21.867187 33.042968 35.707031 57.421874 35.6875h304c2.71875 0 5.359376-.082031 8-.320313 51.355469-4.203124 90.234376-48.203124 88.085938-99.683593-2.148438-51.484375-44.558594-92.089844-96.085938-91.996094zm0 0" fill="#9bc9ff"/><g fill="#1e81ce"><path d="m8.289062 475.605469c-3.234374 0-6.152343-1.949219-7.390624-4.9375-1.238282-2.988281-.554688-6.429688 1.734374-8.714844l22.625-22.625c3.136719-3.03125 8.128907-2.988281 11.214844.097656 3.085938 3.085938 3.128906 8.074219.09375 11.214844l-22.621094 22.621094c-1.5 1.503906-3.535156 2.34375-5.65625 2.34375zm0 0"/><path d="m306.847656 414.695312c-3.378906.003907-6.394531-2.113281-7.539062-5.292968-1.144532-3.179688-.164063-6.734375 2.445312-8.882813 33.84375-27.921875 46.523438-74.078125 31.695313-115.371093-14.828125-41.292969-53.972657-68.839844-97.847657-68.851563h-160c-4.417968 0-8-3.582031-8-8s3.582032-8 8-8h160c50.636719-.003906 95.828126 31.785156 112.941407 79.445313 17.113281 47.660156 2.464843 100.933593-36.605469 133.144531-1.4375 1.175781-3.234375 1.8125-5.089844 1.808593zm0 0"/><path d="m302.855469 371.558594c-2.925781-.003906-5.617188-1.605469-7.015625-4.175782-1.398438-2.570312-1.28125-5.699218.304687-8.160156 14.238281-22.152344 15.246094-50.308594 2.628907-73.421875-12.613282-23.113281-36.839844-37.496093-63.171876-37.503906h-128c-4.417968 0-8-3.582031-8-8s3.582032-8 8-8h128c32.1875.011719 61.800782 17.59375 77.21875 45.851563 15.414063 28.253906 14.175782 62.675781-3.234374 89.746093-1.476563 2.285157-4.011719 3.667969-6.730469 3.664063zm0 0"/><path d="m235.601562 264.296875h-96c-4.417968 0-8 3.582031-8 8s3.582032 8 8 8h96c22.078126.023437 39.972657 17.917969 40 40 0 4.417969 3.582032 8 8 8 4.417969 0 8-3.582031 8-8-.039062-30.914063-25.089843-55.960937-56-56zm0 0"/><path d="m227.601562 360.296875c-17.675781 0-32-14.328125-32-32 0-17.675781 14.324219-32 32-32 4.417969 0 8 3.582031 8 8s-3.582031 8-8 8c-8.835937 0-16 7.160156-16 16 0 8.835937 7.164063 16 16 16 8.835938 0 16-7.164063 16-16 0-4.417969 3.582032-8 8-8 4.417969 0 8 3.582031 8 8 0 17.671875-14.328124 32-32 32zm0 0"/><path d="m160.289062 419.605469c-3.234374 0-6.152343-1.949219-7.390624-4.9375-1.238282-2.988281-.554688-6.429688 1.734374-8.714844l22.625-22.625c2.007813-2.082031 4.980469-2.914063 7.777344-2.183594 2.796875.734375 4.984375 2.917969 5.714844 5.714844s-.101562 5.769531-2.183594 7.78125l-22.621094 22.621094c-1.5 1.503906-3.535156 2.34375-5.65625 2.34375zm0 0"/><path d="m112.289062 419.605469c-3.234374 0-6.152343-1.949219-7.390624-4.9375-1.238282-2.988281-.554688-6.429688 1.734374-8.714844l22.625-22.625c2.007813-2.082031 4.980469-2.914063 7.777344-2.183594 2.796875.734375 4.984375 2.917969 5.714844 5.714844s-.101562 5.769531-2.183594 7.78125l-22.621094 22.621094c-1.5 1.503906-3.535156 2.34375-5.65625 2.34375zm0 0"/><path d="m64.289062 419.605469c-3.234374 0-6.152343-1.949219-7.390624-4.9375-1.238282-2.988281-.554688-6.429688 1.734374-8.714844l22.625-22.625c2.007813-2.082031 4.980469-2.914063 7.777344-2.183594 2.796875.734375 4.984375 2.917969 5.714844 5.714844s-.101562 5.769531-2.183594 7.78125l-22.621094 22.621094c-1.5 1.503906-3.535156 2.34375-5.65625 2.34375zm0 0"/><path d="m208.289062 419.605469c-3.234374 0-6.152343-1.949219-7.390624-4.9375-1.238282-2.988281-.554688-6.429688 1.734374-8.714844l22.625-22.625c3.136719-3.03125 8.128907-2.988281 11.214844.097656 3.085938 3.085938 3.128906 8.074219.09375 11.214844l-22.621094 22.621094c-1.5 1.503906-3.535156 2.34375-5.65625 2.34375zm0 0"/><path d="m256.289062 419.605469c-3.234374 0-6.152343-1.949219-7.390624-4.9375-1.238282-2.988281-.554688-6.429688 1.734374-8.714844l22.625-22.625c3.136719-3.03125 8.128907-2.988281 11.214844.097656 3.085938 3.085938 3.128906 8.074219.09375 11.214844l-22.621094 22.621094c-1.5 1.503906-3.535156 2.34375-5.65625 2.34375zm0 0"/><path d="m104.289062 475.605469c-3.234374 0-6.152343-1.949219-7.390624-4.9375-1.238282-2.988281-.554688-6.429688 1.734374-8.714844l22.625-22.625c2.007813-2.082031 4.980469-2.914063 7.777344-2.183594 2.796875.734375 4.984375 2.917969 5.714844 5.714844s-.101562 5.769531-2.183594 7.78125l-22.621094 22.621094c-1.5 1.503906-3.535156 2.34375-5.65625 2.34375zm0 0"/><path d="m56.289062 475.605469c-3.234374 0-6.152343-1.949219-7.390624-4.9375-1.238282-2.988281-.554688-6.429688 1.734374-8.714844l22.625-22.625c2.007813-2.082031 4.980469-2.914063 7.777344-2.183594 2.796875.734375 4.984375 2.917969 5.714844 5.714844s-.101562 5.769531-2.183594 7.78125l-22.621094 22.621094c-1.5 1.503906-3.535156 2.34375-5.65625 2.34375zm0 0"/><path d="m152.289062 475.605469c-3.234374 0-6.152343-1.949219-7.390624-4.9375-1.238282-2.988281-.554688-6.429688 1.734374-8.714844l22.625-22.625c2.007813-2.082031 4.980469-2.914063 7.777344-2.183594 2.796875.734375 4.984375 2.917969 5.714844 5.714844s-.101562 5.769531-2.183594 7.78125l-22.621094 22.621094c-1.5 1.503906-3.535156 2.34375-5.65625 2.34375zm0 0"/><path d="m200.289062 475.605469c-3.234374 0-6.152343-1.949219-7.390624-4.9375-1.238282-2.988281-.554688-6.429688 1.734374-8.714844l22.625-22.625c2.007813-2.082031 4.980469-2.914063 7.777344-2.183594 2.796875.734375 4.984375 2.917969 5.714844 5.714844s-.101562 5.769531-2.183594 7.78125l-22.621094 22.621094c-1.5 1.503906-3.535156 2.34375-5.65625 2.34375zm0 0"/><path d="m376 304.296875c-4.417969 0-8-3.582031-8-8s3.582031-8 8-8c2.464844 0 4.863281-.074219 7.265625-.289063 47.089844-3.820312 82.761719-44.140624 80.8125-91.347656-1.953125-47.207031-40.832031-84.445312-88.078125-84.363281-10.035156-.039063-20 1.671875-29.449219 5.046875-2.507812.902344-5.296875.496094-7.445312-1.078125-2.148438-1.578125-3.371094-4.125-3.257813-6.785156.074219-1.746094.152344-3.457031.152344-5.183594-.199219-40.984375-28.492188-76.476563-68.398438-85.800781-1.511718-.359375-3.015624-.632813-4.519531-.839844-2.648437-.496094-4.882812-.800781-7.203125-1-2.566406-.207031-5.222656-.359375-7.878906-.359375-23.6875-.078125-46.390625 9.449219-62.9375 26.398437-5.546875 5.597657-10.265625 11.960938-14.015625 18.894532l-.269531.496094c-.050782.105468-.113282.226562-.175782.335937-2.984374 5.414063-5.359374 11.140625-7.082031 17.074219-1.464843 5.074218-2.46875 10.265625-3.007812 15.519531-.355469 3.078125-.527344 6.179687-.511719 9.28125-.019531 3.804687.226562 7.609375.726562 11.382813.390626 2.804687-.734374 5.605468-2.953124 7.363281-2.21875 1.757812-5.203126 2.214843-7.84375 1.195312-16.152344-5.914062-34.007813-5.078125-49.539063 2.320313-2.761719 1.371094-5.433594 2.917968-8 4.632812-1.398437.902344-2.734375 1.902344-4 2.992188-2.558594 1.996094-4.96875 4.183594-7.199219 6.542968-2.042968 2.152344-3.917968 4.460938-5.597656 6.90625-5.035156 7.1875-8.535156 15.335938-10.289062 23.933594-.617188 3.046875-2.941407 5.460938-5.960938 6.191406-4.023438.910157-7.925781 2.300782-11.617188 4.144532-4.59375 2.238281-8.871093 5.082031-12.710937 8.457031-2.707031 2.332031-5.164063 4.945313-7.328125 7.792969-7.59375 9.757812-11.707031 21.777344-11.6875 34.144531.035156 30.910156 25.085938 55.964844 56 56h35.601562c4.417969 0 8 3.582031 8 8s-3.582031 8-8 8h-35.601562c-39.746094-.046875-71.9570312-32.253906-72-72-.0429688-15.871094 5.214844-31.300781 14.945312-43.839844 2.789063-3.691406 5.960938-7.082031 9.453126-10.113281 4.867187-4.285156 10.285156-7.898438 16.113281-10.746094 3.304687-1.660156 6.746093-3.035156 10.289062-4.101562 2.414063-8.996094 6.390625-17.496094 11.742188-25.113282 2.140625-3.078124 4.515625-5.988281 7.105469-8.703124 2.625-2.789063 5.453124-5.378907 8.464843-7.746094 1.707031-1.484375 3.515625-2.847656 5.414063-4.078125 3.191406-2.121094 6.515625-4.035157 9.953125-5.726563 15.742187-7.472656 33.480469-9.664062 50.566406-6.25 0-.527344 0-1.0625 0-1.597656-.015625-3.71875.191406-7.4375.625-11.128906.636719-6.152344 1.820313-12.230469 3.542969-18.167969 1.984375-6.851563 4.703125-13.46875 8.105468-19.738281.1875-.433594.410157-.851563.671876-1.246094l.0625-.089844c4.445312-8.21875 10.039062-15.769531 16.609374-22.414062 21.871094-22.261719 52.566407-33.554688 83.648438-30.769532 2.894531.273438 5.601562.625 8.359375 1.144532 1.601563.214844 3.609375.585937 5.527344 1.039062 45.257812 10.601563 78.109375 49.773438 80.664062 96.183594 37.910157-8.894531 77.609375 4.132812 102.882813 33.753906 25.269531 29.625 31.875 70.882813 17.117187 106.914063-14.757812 36.035156-48.410156 60.804687-87.199219 64.191406-2.816406.253906-5.695312.34375-8.664062.34375zm0 0"/><path d="m179.601562 312.296875h-16c-4.417968 0-8-3.582031-8-8s3.582032-8 8-8h16c4.417969 0 8 3.582031 8 8s-3.582031 8-8 8zm0 0"/></g></svg>