<svg height="480pt" viewBox="0 0 480 480.04191" width="480pt" xmlns="http://www.w3.org/2000/svg"><path d="m376.042969 104.042969c-10.957031-.03125-21.839844 1.835937-32.160157 5.519531.078126-1.839844.160157-3.679688.160157-5.519531 0-53.019531-42.980469-96-96-96s-96 42.980469-96 96c-.019531 4.171875.25 8.34375.800781 12.480469-7.921875-3.007813-16.328125-4.527344-24.800781-4.480469-34.246094 0-63.75 24.121093-70.558594 57.679687-31.65625 7.398438-52.734375 37.351563-49.011719 69.648438 3.722656 32.292968 31.0625 56.667968 63.570313 56.671875h304c2.71875 0 5.359375-.082031 8-.320313 51.355469-4.203125 90.234375-48.199218 88.085937-99.683594-2.148437-51.484374-44.558594-92.089843-96.085937-91.996093zm0 0" fill="#9bc9ff"/><g fill="#1e81ce"><path d="m376.042969 304.042969h-304c-35.625.007812-65.898438-26.03125-71.214844-61.257813-5.316406-35.222656 15.925781-69.039062 49.964844-79.542968 9.472656-34.882813 41.105469-59.121094 77.25-59.199219 5.375-.011719 10.734375.523437 16 1.597656 0-.527344 0-1.0625 0-1.597656-.023438-56.441407 44.976562-102.597657 101.398437-104.011719 56.421875-1.410156 103.675782 42.4375 106.472656 98.8125 37.910157-8.898438 77.609376 4.128906 102.882813 33.75 25.269531 29.625 31.875 70.882812 17.117187 106.917969-14.757812 36.03125-48.410156 60.800781-87.199218 64.1875-2.824219.253906-5.703125.34375-8.671875.34375zm-248-184c-30.414063.054687-56.609375 21.464843-62.710938 51.261719-.625 3.074218-2.984375 5.503906-6.042969 6.210937-27.695312 6.476563-46.132812 32.6875-42.875 60.945313 3.261719 28.253906 27.183594 49.578124 55.628907 49.582031h304c2.472656 0 4.871093-.066407 7.273437-.289063 47.089844-3.820312 82.765625-44.144531 80.8125-91.351562-1.957031-47.207032-40.839844-84.445313-88.085937-84.359375-10.039063-.035157-20.003907 1.671875-29.457031 5.046875-2.507813.902344-5.300782.492187-7.449219-1.089844-2.144531-1.578125-3.363281-4.125-3.246094-6.789062.078125-1.730469.152344-3.449219.152344-5.167969 0-48.601563-39.398438-88-88-88-48.601563 0-88 39.398437-88 88-.019531 3.808593.226562 7.613281.726562 11.390625.386719 2.804687-.738281 5.605468-2.960937 7.363281-2.21875 1.757813-5.203125 2.210937-7.847656 1.1875-7-2.652344-14.429688-3.992187-21.917969-3.941406zm0 0"/><path d="m176.042969 480.042969c-17.671875 0-32-14.328125-32-32 0-14.609375 20.839843-52.472657 25.023437-59.921875 1.539063-2.355469 4.160156-3.777344 6.976563-3.777344 2.8125 0 5.4375 1.421875 6.976562 3.777344 4.222657 7.449218 25.023438 45.3125 25.023438 59.921875 0 17.671875-14.328125 32-32 32zm0-71.105469c-7.125 12.230469-12.507813 25.390625-16 39.105469 0 8.835937 7.164062 16 16 16 8.835937 0 16-7.164063 16-16-3.492188-13.714844-8.875-26.875-16-39.105469zm0 0"/><path d="m304.042969 480.042969c-17.671875 0-32-14.328125-32-32 0-14.609375 20.800781-52.472657 25.023437-59.921875 1.539063-2.355469 4.160156-3.777344 6.976563-3.777344 2.8125 0 5.4375 1.421875 6.976562 3.777344 4.222657 7.449218 25.023438 45.3125 25.023438 59.921875 0 17.671875-14.328125 32-32 32zm0-71.105469c-7.125 12.230469-12.507813 25.390625-16 39.105469 0 8.835937 7.164062 16 16 16 8.835937 0 16-7.164063 16-16-3.492188-13.714844-8.875-26.875-16-39.105469zm0 0"/><path d="m240.042969 416.042969c-17.671875 0-32-14.328125-32-32 0-14.609375 20.839843-52.472657 25.023437-59.921875 1.539063-2.355469 4.160156-3.777344 6.976563-3.777344 2.8125 0 5.4375 1.421875 6.976562 3.777344 4.222657 7.449218 25.023438 45.3125 25.023438 59.921875 0 17.671875-14.328125 32-32 32zm0-71.105469c-7.125 12.230469-12.507813 25.390625-16 39.105469 0 8.835937 7.164062 16 16 16 8.835937 0 16-7.164063 16-16-3.492188-13.714844-8.875-26.875-16-39.105469zm0 0"/><path d="m112.042969 416.042969c-17.671875 0-32-14.328125-32-32 0-14.609375 20.839843-52.472657 25.023437-59.921875 1.539063-2.355469 4.160156-3.777344 6.976563-3.777344 2.8125 0 5.4375 1.421875 6.976562 3.777344 4.222657 7.449218 25.023438 45.3125 25.023438 59.921875 0 17.671875-14.328125 32-32 32zm0-71.105469c-7.125 12.230469-12.507813 25.390625-16 39.105469 0 8.835937 7.164062 16 16 16 8.835937 0 16-7.164063 16-16-3.492188-13.714844-8.875-26.875-16-39.105469zm0 0"/><path d="m368.042969 416.042969c-17.671875 0-32-14.328125-32-32 0-14.609375 20.800781-52.472657 25.023437-59.921875 1.539063-2.355469 4.160156-3.777344 6.976563-3.777344 2.8125 0 5.4375 1.421875 6.976562 3.777344 4.222657 7.449218 25.023438 45.3125 25.023438 59.921875 0 17.671875-14.328125 32-32 32zm-16-32c0 8.835937 7.164062 16 16 16 8.835937 0 16-7.164063 16-16-3.492188-13.714844-8.875-26.875-16-39.105469"/></g></svg>