<svg height="479pt" viewBox="0 -51 479.77948 479" width="479pt" xmlns="http://www.w3.org/2000/svg"><g fill="#9bc9ff"><path d="m385.792969 215.8125c-.582031-.378906-1.183594-.738281-1.792969-1.089844.609375.351563 1.210938.710938 1.792969 1.089844zm0 0"/><path d="m389.792969 218.667969c-.582031-.464844-1.191407-.898438-1.792969-1.335938.601562.429688 1.210938.871094 1.792969 1.335938zm0 0"/><path d="m396.691406 225.394531c-.472656-.566406-.984375-1.09375-1.488281-1.640625.503906.546875 1.015625 1.074219 1.488281 1.640625zm0 0"/><path d="m375.242188 210.722656c.535156.183594 1.070312.382813 1.597656.585938-.34375-.128906-.679688-.296875-1.03125-.425782-.183594-.0625-.382813-.097656-.566406-.160156zm0 0"/><path d="m351.890625 208.851562c-.945313.160157-1.839844.472657-2.769531.6875.9375-.222656 1.824218-.527343 2.769531-.6875zm0 0"/><path d="m359.890625 208.164062c3.539063.007813 7.066406.410157 10.519531 1.199219-.289062-.070312-.550781-.175781-.800781-.238281-3.199219-.652344-6.457031-.972656-9.71875-.960938zm0 0"/><path d="m381.488281 213.339844c-.574219-.289063-1.160156-.578125-1.742187-.800782.558594.222657 1.144531.511719 1.742187.800782zm0 0"/><path d="m391.714844 220.324219c.574218.511719 1.167968 1.015625 1.71875 1.597656-.550782-.582031-1.136719-1.085937-1.71875-1.597656zm0 0"/><path d="m430.449219 272.667969c.535156.074219 1.066406.152343 1.601562.238281-.527343-.089844-1.0625-.167969-1.601562-.238281zm0 0"/><path d="m399.570312 229.1875c-.273437-.402344-.585937-.800781-.863281-1.160156.277344.390625.589844.757812.863281 1.160156zm0 0"/><path d="m427.464844 272.347656c-.3125 0-.613282-.089844-.933594-.105468-.882812-.078126-1.761719-.078126-2.640625-.078126 1.207031 0 2.398437.09375 3.574219.183594zm0 0"/><path d="m451.203125 280.730469c.445313.3125.871094.65625 1.300781.976562-.429687-.320312-.855468-.664062-1.300781-.976562zm0 0"/><path d="m440.730469 275.265625c.335937.128906.679687.242187 1.015625.378906-.335938-.136719-.679688-.28125-1.015625-.378906zm0 0"/><path d="m435.890625 273.683594c-.335937-.082032-.6875-.128906-1.03125-.207032.621094.140626 1.246094.308594 1.855469.480469-.28125-.082031-.546875-.195312-.824219-.273437zm0 0"/><path d="m55.890625 240.164062h176c5.71875.015626 11.335937-1.535156 16.238281-4.480468 9.78125-5.714844 15.78125-16.195313 15.761719-27.519532 0-1.199218-.082031-2.320312-.160156-3.519531-1.285157-11.441406-8.617188-21.308593-19.199219-25.839843-3.988281-1.742188-8.292969-2.640626-12.640625-2.640626-2.707031.007813-5.398437.382813-8 1.117188-1.597656.339844-3.152344.847656-4.640625 1.523438 6.324219-11.90625 6.203125-26.199219-.316406-37.996094-6.519532-11.800782-18.558594-19.503906-32.003906-20.484375-1.007813-.136719-2.023438-.191407-3.039063-.160157-5.597656-.019531-11.132813 1.152344-16.242187 3.4375-.074219-1.183593-.234376-2.359374-.480469-3.519531-1.082031-6.40625-3.449219-12.527343-6.957031-18-5.976563-9.246093-14.964844-16.140625-25.441407-19.519531-4.792969-1.617188-9.820312-2.429688-14.878906-2.398438-26.511719 0-48 21.488282-48 48-.023437 7.175782 1.589844 14.261719 4.71875 20.71875-6.457031-3.128906-13.542969-4.742187-20.71875-4.71875-26.511719 0-48 21.488282-48 48 0 26.507813 21.488281 48 48 48zm0 0"/><path d="m451.203125 280.730469c-2.953125-2.039063-6.125-3.746094-9.457031-5.085938-.335938-.136719-.679688-.25-1.015625-.378906-1.3125-.496094-2.65625-.925781-4-1.308594-.609375-.171875-1.234375-.339843-1.855469-.480469-.929688-.210937-1.875-.402343-2.824219-.570312-.535156-.089844-1.066406-.167969-1.601562-.238281-.984375-.144531-1.976563-.25-2.984375-.320313-1.175782-.089844-2.367188-.183594-3.574219-.183594-7.175781-.023437-14.261719 1.589844-20.722656 4.71875 3.128906-6.457031 4.742187-13.542968 4.722656-20.71875 0-2.089843-.160156-4.175781-.480469-6.242187-.539062-4.085937-1.585937-8.089844-3.121094-11.917969-1.257812-3.09375-2.839843-6.042968-4.71875-8.800781-.273437-.398437-.585937-.800781-.863281-1.160156-.648437-.894531-1.304687-1.785157-2.015625-2.632813-.472656-.566406-.984375-1.09375-1.488281-1.640625-.503906-.542969-1.152344-1.269531-1.769531-1.871093-.617188-.597657-1.144532-1.046876-1.71875-1.597657-.578125-.554687-1.265625-1.128906-1.921875-1.65625-.65625-.53125-1.191407-.898437-1.792969-1.335937-.726562-.53125-1.453125-1.042969-2.207031-1.523438-.582031-.375-1.183594-.734375-1.792969-1.085937-.796875-.488281-1.671875-.953125-2.535156-1.382813-.574219-.289062-1.160156-.578125-1.742188-.800781-.945312-.433594-1.90625-.800781-2.882812-1.191406-.527344-.199219-1.0625-.402344-1.597656-.585938-1.578126-.535156-3.179688-.988281-4.800782-1.359375-6.085937-1.414062-12.394531-1.59375-18.550781-.527344-.953125.160157-1.839844.464844-2.769531.6875-1.566406.332032-3.117188.746094-4.640625 1.238282-10.25 3.429687-19.03125 10.234375-24.910157 19.304687-3.507812 5.472657-5.875 11.59375-6.960937 18-.242187 1.160157-.402344 2.335938-.480469 3.519531-5.105468-2.285156-10.644531-3.457031-16.238281-3.4375-1.015625-.03125-2.035156.023438-3.039063.160157-7.097656.484375-13.929687 2.890625-19.761718 6.957031-16.625 11.519531-22.019532 33.644531-12.558594 51.523438-1.488281-.675782-3.042969-1.183594-4.640625-1.523438-2.605469-.734375-5.296875-1.109375-8-1.117188-4.351563 0-8.652344.898438-12.640625 2.640626-10.582031 4.53125-17.914062 14.398437-19.199219 25.839843-.082031 1.199219-.160156 2.320313-.160156 3.519531-.023437 11.324219 5.980469 21.804688 15.757813 27.519532 4.90625 2.945312 10.519531 4.496094 16.242187 4.480468h176c19.996094.019532 37.902344-12.371093 44.933594-31.089843 7.027343-18.722657 1.703125-39.835938-13.367188-52.984375-.941406-.796875-1.933593-1.597656-2.953125-2.398438-.429687-.304687-.855468-.648437-1.300781-.960937zm0 0"/><path d="m441.746094 275.644531c3.332031 1.339844 6.503906 3.046875 9.457031 5.085938-2.953125-2.042969-6.125-3.75-9.457031-5.085938zm0 0"/><path d="m432.035156 272.90625c.949219.167969 1.894532.359375 2.824219.570312-.929687-.21875-1.875-.402343-2.824219-.570312zm0 0"/><path d="m427.464844 272.347656c1.007812.070313 2 .175782 2.984375.320313-.960938-.136719-1.976563-.25-2.984375-.320313zm0 0"/><path d="m455.457031 284.089844c-.953125-.796875-1.933593-1.597656-2.953125-2.398438.984375.777344 2.011719 1.558594 2.953125 2.398438zm0 0"/><path d="m436.691406 273.957031c1.359375.382813 2.703125.796875 4 1.308594-1.285156-.46875-2.621094-.90625-4-1.308594zm0 0"/><path d="m404.289062 238.003906c1.535157 3.828125 2.582032 7.832032 3.121094 11.917969.320313 2.066406.480469 4.152344.480469 6.242187 0-6.238281-1.222656-12.417968-3.601563-18.183593zm0 0"/><path d="m399.570312 229.1875c1.878907 2.757812 3.460938 5.707031 4.71875 8.800781-1.261718-3.09375-2.84375-6.042969-4.71875-8.800781zm0 0"/><path d="m388 217.332031c-.726562-.527343-1.453125-1.039062-2.207031-1.519531.753906.480469 1.480469.992188 2.207031 1.519531zm0 0"/><path d="m398.707031 228.027344c-.648437-.894532-1.304687-1.785156-2.015625-2.632813.710938.847657 1.367188 1.738281 2.015625 2.632813zm0 0"/><path d="m391.714844 220.324219c-.632813-.5625-1.265625-1.121094-1.921875-1.65625.65625.527343 1.296875 1.09375 1.921875 1.65625zm0 0"/><path d="m379.722656 212.5c-.945312-.433594-1.90625-.800781-2.882812-1.191406.976562.375 1.9375.757812 2.882812 1.191406zm0 0"/><path d="m384 214.722656c-.796875-.488281-1.671875-.945312-2.535156-1.382812.863281.421875 1.703125.894531 2.535156 1.382812zm0 0"/><path d="m393.433594 221.882812c.617187.601563 1.183594 1.242188 1.769531 1.871094-.585937-.628906-1.152344-1.269531-1.769531-1.871094zm0 0"/><path d="m345.007812 210.5625c-.175781.054688-.335937.160156-.519531.214844 1.527344-.492188 3.074219-.90625 4.640625-1.238282-1.390625.269532-2.765625.613282-4.121094 1.023438zm0 0"/><path d="m359.890625 208.164062c-2.683594.003907-5.359375.234376-8 .6875 2.640625-.453124 5.316406-.683593 8-.6875zm0 0"/><path d="m375.242188 210.722656c-1.574219-.535156-3.179688-.992187-4.800782-1.359375 1.621094.371094 3.222656.824219 4.800782 1.359375zm0 0"/></g><path d="m456.042969 284.5625c-2.699219 0-5.214844-1.363281-6.691407-3.621094-1.476562-2.253906-1.71875-5.105468-.636718-7.578125 36.054687-83.332031 5.9375-180.503906-70.925782-228.835937-76.867187-48.332032-177.496093-33.367188-236.972656 35.234375-2.902344 3.253906-7.878906 3.585937-11.183594.738281-3.308593-2.84375-3.726562-7.8125-.941406-11.167969 64.652344-74.527343 173.996094-90.773437 257.523438-38.261719 83.527344 52.515626 116.277344 158.09375 77.140625 248.660157-1.261719 2.921875-4.132813 4.820312-7.3125 4.832031zm0 0" fill="#1e81ce"/><path d="m343.816406 210.964844h-.664062c-4.40625-.363282-7.683594-4.226563-7.320313-8.632813.058594-.753906.058594-1.433593.058594-2.167969-.046875-25.515624-17.332031-47.773437-42.042969-54.132812-24.707031-6.359375-50.589844 4.785156-62.949218 27.109375-2.132813 3.867187-7 5.277344-10.867188 3.144531-3.871094-2.128906-5.28125-6.996094-3.148438-10.867187 15.878907-28.71875 49.171876-43.0625 80.953126-34.882813 31.78125 8.175782 54.007812 36.8125 54.054687 69.628906 0 1.183594 0 2.269532-.105469 3.453126-.339844 4.148437-3.804687 7.34375-7.96875 7.347656zm0 0" fill="#1e81ce"/><path d="m426.523438 272.242188c-2.699219-.003907-5.210938-1.367188-6.6875-3.621094-1.472657-2.257813-1.710938-5.105469-.632813-7.578125 29.90625-68.523438 5.535156-148.621094-57.464844-188.878907-63-40.261718-145.921875-28.726562-195.542969 27.199219-2.929687 3.3125-7.992187 3.625-11.304687.695313-3.316406-2.929688-3.625-7.988282-.695313-11.304688 54.832032-61.84375 146.503907-74.613281 216.15625-30.109375 69.648438 44.5 96.582032 133.050781 63.507813 208.796875-1.273437 2.917969-4.15625 4.804688-7.335937 4.800782zm0 0" fill="#1e81ce"/><path d="m343.816406 210.964844h-.664062c-4.40625-.363282-7.683594-4.226563-7.320313-8.632813.058594-.753906.058594-1.433593.058594-2.167969-.046875-25.515624-17.332031-47.773437-42.042969-54.132812-24.707031-6.359375-50.589844 4.785156-62.949218 27.109375-2.132813 3.867187-7 5.277344-10.867188 3.144531-3.871094-2.128906-5.28125-6.996094-3.148438-10.867187 15.878907-28.71875 49.171876-43.0625 80.953126-34.882813 31.78125 8.175782 54.007812 36.8125 54.054687 69.628906 0 1.183594 0 2.269532-.105469 3.453126-.339844 4.148437-3.804687 7.34375-7.96875 7.347656zm0 0" fill="#1e81ce"/><path d="m404.296875 238.003906c-.660156 0-1.320313-.078125-1.960937-.242187-4.285157-1.074219-6.886719-5.425781-5.804688-9.710938 2.257812-9.121093 3.386719-18.488281 3.359375-27.886719.050781-49.160156-29.910156-93.375-75.589844-111.542968-45.679687-18.171875-97.824219-6.621094-131.554687 29.140625-1.9375 2.179687-4.902344 3.132812-7.742188 2.488281-2.84375-.644531-5.109375-2.777344-5.921875-5.578125-.808593-2.796875-.035156-5.816406 2.023438-7.875 38.226562-40.542969 97.324219-53.640625 149.101562-33.050781 51.773438 20.589844 85.738281 70.695312 85.683594 126.417968.027344 10.714844-1.261719 21.398438-3.839844 31.800782-.898437 3.546875-4.089843 6.035156-7.753906 6.039062zm0 0" fill="#1e81ce"/><path d="m343.816406 210.964844h-.664062c-4.40625-.363282-7.683594-4.226563-7.320313-8.632813.058594-.753906.058594-1.433593.058594-2.167969-.046875-25.515624-17.332031-47.773437-42.042969-54.132812-24.707031-6.359375-50.589844 4.785156-62.949218 27.109375-2.132813 3.867187-7 5.277344-10.867188 3.144531-3.871094-2.128906-5.28125-6.996094-3.148438-10.867187 15.878907-28.71875 49.171876-43.0625 80.953126-34.882813 31.78125 8.175782 54.007812 36.8125 54.054687 69.628906 0 1.183594 0 2.269532-.105469 3.453126-.339844 4.148437-3.804687 7.34375-7.96875 7.347656zm0 0" fill="#1e81ce"/><path d="m375.816406 210.882812c-.230468 0-.46875 0-.71875 0-4.402344-.394531-7.648437-4.277343-7.257812-8.679687.050781-.679687.050781-1.390625.050781-2.039063.007813-34.644531-20.320313-66.066406-51.925781-80.25-31.609375-14.1875-68.597656-8.496093-94.476563 14.535157-3.3125 2.753906-8.210937 2.382812-11.078125-.832031-2.867187-3.214844-2.671875-8.125.441406-11.101563 30.578126-27.238281 74.300782-33.976563 111.664063-17.210937 37.359375 16.765624 61.394531 53.90625 61.375 94.859374 0 1.117188 0 2.328126-.113281 3.429688-.367188 4.125-3.820313 7.285156-7.960938 7.289062zm0 0" fill="#1e81ce"/><path d="m343.816406 210.964844h-.664062c-4.40625-.363282-7.683594-4.226563-7.320313-8.632813.058594-.753906.058594-1.433593.058594-2.167969-.046875-25.515624-17.332031-47.773437-42.042969-54.132812-24.707031-6.359375-50.589844 4.785156-62.949218 27.109375-2.132813 3.867187-7 5.277344-10.867188 3.144531-3.871094-2.128906-5.28125-6.996094-3.148438-10.867187 15.878907-28.71875 49.171876-43.0625 80.953126-34.882813 31.78125 8.175782 54.007812 36.8125 54.054687 69.628906 0 1.183594 0 2.269532-.105469 3.453126-.339844 4.148437-3.804687 7.34375-7.96875 7.347656zm0 0" fill="#1e81ce"/><path d="m231.890625 248.164062h-176c-21.019531-.042968-40.246094-11.851562-49.789063-30.578124-9.539062-18.726563-7.792968-41.222657 4.53125-58.25 12.320313-17.03125 33.140626-25.722657 53.914063-22.515626-2.496094-16.164062 2.191406-32.613281 12.824219-45.035156 10.636718-12.425781 26.164062-19.589844 42.519531-19.621094 5.949219-.035156 11.859375.921876 17.496094 2.832032 17.8125 5.78125 31.511719 20.148437 36.4375 38.214844 4.714843-1.117188 9.59375-1.386719 14.402343-.800782 8.273438.65625 16.21875 3.511719 23.015626 8.273438 11.089843 7.6875 18.417968 19.699218 20.175781 33.078125.308593 2.121093.46875 4.257812.472656 6.402343 0 2.679688-.226563 5.355469-.671875 8 5.679688-.113281 11.3125 1.011719 16.511719 3.304688 13.214843 5.671875 22.375 17.996094 24 32.285156.128906 1.882813.199219 3.097656.199219 4.402344-.027344 14.144531-7.527344 27.226562-19.71875 34.398438-6.144532 3.671874-13.164063 5.609374-20.320313 5.609374zm-176-96c-22.09375 0-40 17.90625-40 40 0 22.089844 17.90625 40 40 40h176c4.273437.015626 8.472656-1.140624 12.136719-3.34375 7.332031-4.300781 11.84375-12.15625 11.863281-20.65625 0-.953124-.066406-1.832031-.128906-2.777343-1.027344-8.511719-6.515625-15.832031-14.398438-19.199219-4.816406-2.152344-10.230469-2.566406-15.3125-1.167969-1.222656.246094-2.414062.621094-3.554687 1.121094-3.121094 1.394531-6.789063.648437-9.121094-1.859375-2.328125-2.503906-2.808594-6.214844-1.1875-9.230469 2.445312-4.578125 3.71875-9.695312 3.703125-14.886719-.070313-6.816406-2.246094-13.445312-6.234375-18.976562-5.488281-7.496094-13.988281-12.203125-23.253906-12.878906-.832032-.128906-1.671875-.175782-2.511719-.144532-4.464844-.023437-8.878906.910157-12.953125 2.734376-2.390625 1.078124-5.160156.917968-7.410156-.4375-2.25-1.351563-3.691406-3.71875-3.863282-6.335938-.042968-.789062-.148437-1.574219-.308593-2.347656-.890625-5.46875-2.886719-10.699219-5.867188-15.375-4.960937-7.679688-12.425781-13.40625-21.125-16.214844-4.015625-1.371094-8.230469-2.054688-12.472656-2.023438-22.082031.027344-39.972656 17.917969-40 40-.03125 5.960938 1.304687 11.851563 3.910156 17.214844 1.496094 3.070313.878907 6.746094-1.535156 9.160156-2.414063 2.414063-6.089844 3.03125-9.160156 1.535157-5.363281-2.605469-11.253907-3.941407-17.214844-3.910157zm0 0" fill="#1e81ce"/><path d="m423.890625 376.164062h-176c-22.070313-.058593-39.945313-17.933593-40-40 0-1.304687.070313-2.519531.160156-3.824218 1.460938-14.496094 10.640625-27.074219 24-32.890625 5.1875-2.277344 10.8125-3.394531 16.480469-3.277344-.4375-2.648437-.652344-5.328125-.640625-8.007813.011719-2.140624.167969-4.28125.472656-6.402343 1.761719-13.375 9.097657-25.378907 20.191407-33.054688 7.027343-4.875 15.242187-7.761719 23.773437-8.359375 1.183594-.148437 2.371094-.210937 3.5625-.183594 3.378906-.003906 6.75.34375 10.054687 1.039063 4.957032-18.128906 18.738282-32.523437 36.632813-38.265625 5.578125-1.875 11.425781-2.816406 17.3125-2.773438 16.355469.03125 31.882813 7.195313 42.515625 19.621094 10.636719 12.421875 15.320312 28.871094 12.828125 45.035156 20.773437-3.207031 41.589844 5.484376 53.914063 22.515626 12.320312 17.027343 14.070312 39.523437 4.527343 58.25-9.542969 18.726562-28.765625 30.535156-49.785156 30.578124zm-176-64c-3.25.003907-6.460937.671876-9.441406 1.96875-7.949219 3.394532-13.464844 10.792969-14.449219 19.382813-.046875.800781-.109375 1.695313-.109375 2.648437.007813 8.476563 4.492187 16.316407 11.800781 20.613282 3.675782 2.230468 7.898438 3.402344 12.199219 3.386718h176c22.089844 0 40-17.910156 40-40 0-22.09375-17.910156-40-40-40-5.964844-.03125-11.851563 1.304688-17.21875 3.910157-3.066406 1.496093-6.746094.878906-9.160156-1.535157-2.414063-2.414062-3.027344-6.089843-1.535157-9.160156 2.605469-5.363281 3.945313-11.253906 3.914063-17.214844-.027344-22.082031-17.921875-39.972656-40-40-4.171875-.035156-8.320313.625-12.273437 1.960938-8.78125 2.804688-16.316407 8.570312-21.328126 16.308594-2.917968 4.5625-4.886718 9.664062-5.792968 15-.191406.886718-.316406 1.785156-.375 2.691406-.167969 2.617188-1.613282 4.984375-3.859375 6.335938-2.25 1.355468-5.019531 1.515624-7.410157.4375-4.347656-1.863282-9.035156-2.792969-13.761718-2.734376-.316406-.007812-.632813.011719-.945313.0625-5.910156.347657-11.613281 2.296876-16.496093 5.648438-2.902344 2.011719-5.449219 4.492188-7.535157 7.34375-3.140625 4.3125-5.164062 9.335938-5.878906 14.625-.207031 1.429688-.324219 2.875-.34375 4.320312-.011719 5.179688 1.257813 10.285157 3.695313 14.855469 1.617187 3.015625 1.140624 6.726563-1.191407 9.230469-2.328125 2.507812-5.996093 3.253906-9.121093 1.855469-.949219-.425781-1.9375-.753907-2.953126-.980469-2.089843-.609375-4.253906-.933594-6.429687-.960938zm0 0" fill="#1e81ce"/></svg>