<svg height="480pt" viewBox="0 -120 480 480" width="480pt" xmlns="http://www.w3.org/2000/svg"><g fill="#1e81ce"><path d="m480 240h-16c0-123.710938-100.289062-224-224-224s-224 100.289062-224 224h-16c0-132.546875 107.453125-240 240-240s240 107.453125 240 240zm0 0"/><path d="m448 240h-16c0-106.039062-85.960938-192-192-192s-192 85.960938-192 192h-16c0-114.875 93.125-208 208-208s208 93.125 208 208zm0 0"/><path d="m416 240h-16c0-88.367188-71.632812-160-160-160s-160 71.632812-160 160h-16c0-97.203125 78.796875-176 176-176s176 78.796875 176 176zm0 0"/><path d="m384 240h-16c0-70.691406-57.308594-128-128-128s-128 57.308594-128 128h-16c0-79.527344 64.472656-144 144-144s144 64.472656 144 144zm0 0"/><path d="m352 240h-16c0-53.019531-42.980469-96-96-96s-96 42.980469-96 96h-16c0-61.855469 50.144531-112 112-112s112 50.144531 112 112zm0 0"/><path d="m320 240h-16c0-35.347656-28.652344-64-64-64s-64 28.652344-64 64h-16c0-44.183594 35.816406-80 80-80s80 35.816406 80 80zm0 0"/></g></svg>