<svg height="479pt" viewBox="0 -95 479.79697 479" width="479pt" xmlns="http://www.w3.org/2000/svg"><path d="m231.359375 117.621094c-.410156-.242188-.835937-.457032-1.28125-.640625-6.960937-3.039063-14.480469-4.59375-22.078125-4.558594-3.300781.007813-6.589844.300781-9.839844.878906l-2.320312.480469c-10.925782 2.382812-20.863282 8.050781-28.480469 16.242188-1.910156 1.984374-3.648437 4.125-5.199219 6.398437-5.796875 8.082031-9.257812 17.601563-10 27.519531-.082031 1.441406-.160156 2.960938-.160156 4.480469-.007812 5.445313.773438 10.859375 2.320312 16.082031-.773437-.070312-1.546874-.097656-2.320312-.082031-24.394531.101563-44.867188 18.410156-47.679688 42.640625-.230468 1.777344-.335937 3.566406-.320312 5.359375.070312 11 3.847656 21.652344 10.71875 30.242187 9.117188 11.234376 22.8125 17.757813 37.28125 17.757813h240c2.71875 0 5.359375-.160156 8-.398437 42.417969-4.257813 74.042969-41.03125 71.910156-83.605469-2.132812-42.578125-37.28125-76-79.910156-75.996094-8.199219-.027344-16.355469 1.242187-24.160156 3.761719-1.707032-25.625-18.570313-47.75-42.824219-56.1875-24.257813-8.441406-51.210937-1.5625-68.457031 17.464844-.71875.800781-1.359375 1.601562-2.078125 2.480468-8.132813 9.875-13.097657 21.976563-14.242188 34.722656-2.761719-2.003906-5.742187-3.695312-8.878906-5.042968zm0 0" fill="#9bc9ff"/><g fill="#1e81ce"><path d="m16 136.421875h-16c-.0117188-65 45.976562-120.921875 109.753906-133.46875 63.78125-12.542969 127.519532 21.800781 152.125 81.964844l-14.808594 6.046875c-21.707031-53.089844-77.953124-83.394532-134.234374-72.320313-56.277344 11.070313-96.851563 60.421875-96.835938 117.777344zm0 0"/><path d="m48 136.421875h-16c-.171875-53.464844 40.226562-98.351563 93.414062-103.792969 53.191407-5.4375 101.839844 30.335938 112.496094 82.730469l-15.671875 3.238281c-9.003906-44.347656-50.175781-74.640625-95.195312-70.035156s-79.203125 42.605469-79.042969 87.859375zm0 0"/><path d="m80 136.421875h-16c.023438-34.75 24.859375-64.523437 59.042969-70.777344 34.183593-6.253906 67.953125 12.800781 80.277343 45.289063l-14.953124 5.695312c-9.574219-25.273437-35.839844-40.105468-62.429688-35.25-26.589844 4.859375-45.914062 28.015625-45.9375 55.042969zm0 0"/><path d="m112 136.421875h-16c-.019531-20.550781 15.535156-37.773437 35.980469-39.835937 20.445312-2.066407 39.128906 11.695312 43.21875 31.835937l-15.6875 3.199219c-2.46875-12.0625-13.671875-20.300782-25.925781-19.0625-12.25 1.238281-21.578126 11.546875-21.585938 23.863281zm0 0"/><path d="m392 288.421875h-240c-16.878906.015625-32.859375-7.59375-43.488281-20.703125-8.039063-10.011719-12.449219-22.457031-12.511719-35.296875-.015625-2.160156.117188-4.316406.398438-6.457031 1.480468-12.835938 7.386718-24.757813 16.707031-33.710938 8.511719-8.425781 19.5625-13.820312 31.445312-15.34375-.367187-2.8125-.550781-5.648437-.550781-8.488281 0-1.664063.089844-3.335937.167969-4.910156.855469-11.4375 4.828125-22.417969 11.488281-31.753907 1.773438-2.585937 3.757812-5.023437 5.9375-7.28125 8.730469-9.324218 20.085938-15.78125 32.566406-18.519531l2.398438-.503906c12.382812-2.386719 25.199218-.917969 36.722656 4.210937.351562.136719.699219.296876 1.039062.46875 2.621094-10 7.386719-19.308593 13.96875-27.277343 1.078126-1.3125 1.664063-2.023438 2.304688-2.738281 18.226562-20.148438 46.246094-28.316407 72.449219-21.121094 26.203125 7.191406 46.121093 28.523437 51.507812 55.152344 31.808594-6.355469 64.53125 5.300781 85.15625 30.332031 20.628907 25.027343 25.816407 59.375 13.496094 89.382812-12.316406 30.003907-40.140625 50.800781-72.402344 54.117188-2.960937.273437-5.839843.441406-8.800781.441406zm-239.375-96h-.625c-10.375-.066406-20.347656 3.996094-27.726562 11.289063-6.714844 6.429687-10.960938 15.007812-12 24.246093-.195313 1.480469-.285157 2.972657-.273438 4.464844.0625 9.164063 3.207031 18.042969 8.929688 25.199219 7.59375 9.367187 19.011718 14.804687 31.070312 14.800781h240c2.480469 0 4.871094-.152344 7.28125-.367187 38.15625-3.875 66.578125-36.976563 64.636719-75.277344-1.941407-38.300782-33.566407-68.359375-71.917969-68.355469-7.355469-.027344-14.667969 1.109375-21.671875 3.359375-2.347656.769531-4.921875.410156-6.96875-.972656-2.050781-1.386719-3.34375-3.640625-3.503906-6.105469-1.5-22.417969-16.25-41.769531-37.46875-49.152344-21.21875-7.386719-44.796875-1.371093-59.890625 15.269531-.464844.503907-.902344 1.050782-1.367188 1.601563-7.367187 8.75-11.875 19.546875-12.921875 30.9375-.261719 2.875-2.054687 5.382813-4.6875 6.566406-2.632812 1.183594-5.699219.855469-8.023437-.855469-2.28125-1.648437-4.738282-3.042968-7.328125-4.152343-.316407-.128907-.625-.285157-.921875-.464844-8.679688-3.917969-18.359375-5.074219-27.71875-3.304687l-2.101563.441406c-9.285156 2.0625-17.726562 6.890625-24.210937 13.847656-1.628906 1.6875-3.113282 3.511719-4.4375 5.449219-5.019532 6.925781-8.011719 15.117187-8.640625 23.648437-.066407 1.109375-.136719 2.488282-.136719 3.855469-.003906 4.671875.664062 9.320313 1.984375 13.800781.761719 2.566406.191406 5.34375-1.523437 7.398438-1.714844 2.058594-4.34375 3.121094-7.003907 2.832031-.277343-.015625-.554687-.015625-.832031 0zm0 0"/></g></svg>