<svg height="480pt" viewBox="0 -10 480.22048 480" width="480pt" xmlns="http://www.w3.org/2000/svg"><path d="m376.003906 144.109375c-10.957031-.027344-21.835937 1.839844-32.160156 5.519531.082031-1.839844.160156-3.679687.160156-5.519531 0-53.019531-42.980468-96-96-96-53.019531 0-96 42.980469-96 96-.015625 4.175781.25 8.34375.800782 12.480469-7.921876-3.003906-16.328126-4.523438-24.800782-4.480469-34.214844.078125-63.675781 24.164063-70.558594 57.679687-31.65625 7.402344-52.734374 37.355469-49.011718 69.648438 3.722656 32.296875 31.0625 56.667969 63.570312 56.671875h304c2.722656 0 5.363282-.078125 8-.320313 51.359375-4.203124 90.238282-48.199218 88.089844-99.683593-2.148438-51.480469-44.558594-92.085938-96.089844-91.996094zm0 0" fill="#9bc9ff"/><g fill="#1e81ce"><path d="m376.003906 136.109375c-8.121094-.011719-16.222656.925781-24.125 2.800781-1.992187-40.363281-27.199218-75.910156-64.628906-91.140625s-80.296875-7.382812-109.902344 20.125c-30.246094-9.195312-63.097656-1.417969-86.015625 20.355469-22.917969 21.777344-32.363281 54.191406-24.726562 84.867188-7.402344 8.800781-12.800781 19.101562-15.832031 30.191406-34.039063 10.503906-55.28125 44.316406-49.96875 79.539062s35.582031 61.265625 71.199218 61.261719h304c2.96875 0 5.851563-.085937 8.664063-.34375 55.652343-4.535156 97.789062-52.203125 95.460937-107.992187-2.328125-55.785157-48.289062-99.777344-104.125-99.664063zm-224-56c4.371094 0 8.726563.390625 13.027344 1.167969-.960938 1.265625-1.808594 2.585937-2.707031 3.882812-.558594.796875-1.160157 1.597656-1.695313 2.398438-1.679687 2.589844-3.253906 5.238281-4.695312 7.960937-.183594.351563-.328125.71875-.511719 1.070313-1.230469 2.402344-2.367187 4.84375-3.410156 7.328125-.398438.960937-.734375 1.9375-1.109375 2.914062-.738282 1.933594-1.441406 3.878907-2.058594 5.855469-.351562 1.109375-.664062 2.222656-.964844 3.34375-.535156 1.917969-1.015625 3.859375-1.441406 5.824219-.238281 1.125-.488281 2.253906-.6875 3.390625-.382812 2.105468-.671875 4.222656-.929688 6.351562-.117187 1-.269531 1.992188-.359374 3-.28125 3.167969-.457032 6.3125-.457032 9.511719v1.601563c-5.265625-1.074219-10.625-1.609376-16-1.601563-2.511718 0-5.007812.152344-7.496094.394531-.796874.070313-1.519531.183594-2.277343.277344-1.761719.21875-3.511719.488281-5.242188.800781-.796875.152344-1.597656.3125-2.398437.496094-1.839844.40625-3.664063.902344-5.472656 1.449219-.582032.167968-1.167969.3125-1.742188.496094-2.320312.757812-4.609375 1.597656-6.847656 2.582031-.609375.257812-1.1875.5625-1.785156.839843-1.648438.753907-3.273438 1.554688-4.871094 2.402344-.800782.414063-1.539063.863282-2.296875 1.300782-1.441407.851562-2.855469 1.753906-4.242188 2.691406-.695312.460937-1.390625.917968-2.070312 1.40625-.265625.191406-.542969.359375-.800781.550781-.285157-2.550781-.4375-5.117187-.457032-7.6875.046875-39.746094 32.253906-71.953125 72-72zm231.273438 247.710937c-2.398438.21875-4.800782.289063-7.273438.289063h-304c-28.429687-.019531-52.332031-21.335937-55.59375-49.582031-3.257812-28.242188 15.164063-54.445313 42.84375-60.9375 3.046875-.703125 5.402344-3.121094 6.03125-6.183594 6.113282-29.796875 32.300782-51.214844 62.71875-51.296875 7.492188-.046875 14.925782 1.292969 21.929688 3.945313 2.640625 1.015624 5.621094.5625 7.839844-1.195313 2.21875-1.753906 3.34375-4.554687 2.960937-7.355469-.503906-3.777344-.746094-7.585937-.730469-11.394531-.011718-5.742187.523438-11.476563 1.601563-17.117187 8.140625-41.253907 44.355469-70.960938 86.398437-70.882813 48.578125.058594 87.945313 39.421875 88 88 0 1.730469-.070312 3.449219-.148437 5.167969-.121094 2.667968 1.097656 5.214844 3.246093 6.796875 2.148438 1.582031 4.945313 1.988281 7.457032 1.085937 9.449218-3.378906 19.414062-5.085937 29.445312-5.050781 47.25-.085937 86.132813 37.15625 88.085938 84.363281 1.953125 47.207032-33.71875 87.53125-80.8125 91.347656zm0 0"/><path d="m152.003906 48.109375c-4.417968 0-8-3.582031-8-8v-32c0-4.417969 3.582032-8 8-8 4.421875 0 8 3.582031 8 8v32c0 4.417969-3.578125 8-8 8zm0 0"/><path d="m107.925781 58.511719c-3.238281.003906-6.160156-1.945313-7.398437-4.9375l-12.242188-29.601563c-1.539062-4.042968.417969-8.578125 4.414063-10.234375 4-1.65625 8.589843.167969 10.363281 4.117188l12.246094 29.597656c1.019531 2.46875.742187 5.28125-.738282 7.5-1.484374 2.21875-3.976562 3.554687-6.644531 3.558594zm0 0"/><path d="m71.15625 84.910156c-2.121094 0-4.15625-.84375-5.65625-2.34375l-22.628906-22.625c-2.082032-2.007812-2.914063-4.980468-2.183594-7.777344.734375-2.800781 2.917969-4.984374 5.714844-5.714843 2.796875-.734375 5.769531.101562 7.777344 2.179687l22.625 22.632813c2.289062 2.289062 2.972656 5.730469 1.734374 8.71875-1.238281 2.988281-4.152343 4.9375-7.390624 4.9375zm0 0"/><path d="m47.300781 123.414062c-1.046875 0-2.085937-.207031-3.054687-.609374l-29.601563-12.246094c-4.082031-1.703125-6.011719-6.390625-4.3125-10.472656 1.703125-4.082032 6.390625-6.011719 10.472657-4.3125l29.601562 12.25c3.527344 1.457031 5.53125 5.207031 4.785156 8.953124-.746094 3.742188-4.03125 6.441407-7.851562 6.4375zm0 0"/><path d="m40.003906 168.109375h-32c-4.417968 0-7.99999975-3.582031-7.99999975-8s3.58203175-8 7.99999975-8h32c4.421875 0 8 3.582031 8 8s-3.578125 8-8 8zm0 0"/><path d="m212.695312 403.421875c-3.238281 0-6.152343-1.949219-7.390624-4.9375-1.238282-2.988281-.554688-6.429687 1.734374-8.71875l22.621094-22.625c3.140625-3.03125 8.128906-2.988281 11.214844.097656 3.085938 3.085938 3.128906 8.078125.097656 11.214844l-22.625 22.625c-1.496094 1.5-3.53125 2.34375-5.652344 2.34375zm0 0"/><path d="m164.695312 403.421875c-3.238281 0-6.152343-1.949219-7.390624-4.9375-1.238282-2.988281-.554688-6.429687 1.734374-8.71875l22.621094-22.625c2.011719-2.078125 4.984375-2.910156 7.78125-2.179687 2.796875.730468 4.980469 2.917968 5.714844 5.714843.730469 2.796875-.101562 5.769531-2.183594 7.777344l-22.625 22.625c-1.496094 1.5-3.53125 2.34375-5.652344 2.34375zm0 0"/><path d="m116.695312 403.421875c-3.238281 0-6.152343-1.949219-7.390624-4.9375-1.238282-2.988281-.554688-6.429687 1.734374-8.71875l22.621094-22.625c2.011719-2.078125 4.984375-2.910156 7.78125-2.179687 2.796875.730468 4.980469 2.917968 5.714844 5.714843.730469 2.796875-.101562 5.769531-2.183594 7.777344l-22.625 22.625c-1.496094 1.5-3.53125 2.34375-5.652344 2.34375zm0 0"/><path d="m260.695312 403.421875c-3.238281 0-6.152343-1.949219-7.390624-4.9375-1.238282-2.988281-.554688-6.429687 1.734374-8.71875l22.621094-22.625c3.140625-3.03125 8.128906-2.988281 11.214844.097656 3.085938 3.085938 3.128906 8.078125.097656 11.214844l-22.625 22.625c-1.496094 1.5-3.53125 2.34375-5.652344 2.34375zm0 0"/><path d="m308.695312 403.421875c-3.238281 0-6.152343-1.949219-7.390624-4.9375-1.238282-2.988281-.554688-6.429687 1.734374-8.71875l22.621094-22.625c3.140625-3.03125 8.128906-2.988281 11.214844.097656 3.085938 3.085938 3.128906 8.078125.097656 11.214844l-22.625 22.625c-1.496094 1.5-3.53125 2.34375-5.652344 2.34375zm0 0"/><path d="m156.695312 459.421875c-3.238281 0-6.152343-1.949219-7.390624-4.9375-1.238282-2.988281-.554688-6.429687 1.734374-8.71875l22.621094-22.625c2.011719-2.078125 4.984375-2.910156 7.78125-2.179687 2.796875.730468 4.980469 2.917968 5.714844 5.714843.730469 2.796875-.101562 5.769531-2.183594 7.777344l-22.625 22.625c-1.496094 1.5-3.53125 2.34375-5.652344 2.34375zm0 0"/><path d="m108.695312 459.421875c-3.238281 0-6.152343-1.949219-7.390624-4.9375-1.238282-2.988281-.554688-6.429687 1.734374-8.71875l22.621094-22.625c2.011719-2.078125 4.984375-2.910156 7.78125-2.179687 2.796875.730468 4.980469 2.917968 5.714844 5.714843.730469 2.796875-.101562 5.769531-2.183594 7.777344l-22.625 22.625c-1.496094 1.5-3.53125 2.34375-5.652344 2.34375zm0 0"/><path d="m60.695312 459.421875c-3.238281 0-6.152343-1.949219-7.390624-4.9375-1.238282-2.988281-.554688-6.429687 1.734374-8.71875l22.621094-22.625c2.011719-2.078125 4.984375-2.910156 7.78125-2.179687 2.796875.730468 4.980469 2.917968 5.714844 5.714843.730469 2.796875-.101562 5.769531-2.183594 7.777344l-22.625 22.625c-1.496094 1.5-3.53125 2.34375-5.652344 2.34375zm0 0"/><path d="m204.695312 459.421875c-3.238281 0-6.152343-1.949219-7.390624-4.9375-1.238282-2.988281-.554688-6.429687 1.734374-8.71875l22.621094-22.625c2.011719-2.078125 4.984375-2.910156 7.78125-2.179687 2.796875.730468 4.980469 2.917968 5.714844 5.714843.730469 2.796875-.101562 5.769531-2.183594 7.777344l-22.625 22.625c-1.496094 1.5-3.53125 2.34375-5.652344 2.34375zm0 0"/><path d="m252.695312 459.421875c-3.238281 0-6.152343-1.949219-7.390624-4.9375-1.238282-2.988281-.554688-6.429687 1.734374-8.71875l22.621094-22.625c3.140625-3.03125 8.128906-2.988281 11.214844.097656 3.085938 3.085938 3.128906 8.078125.097656 11.214844l-22.625 22.625c-1.496094 1.5-3.53125 2.34375-5.652344 2.34375zm0 0"/></g></svg>