<svg height="483pt" viewBox="-2 0 483 483.77791" width="483pt" xmlns="http://www.w3.org/2000/svg"><path d="m376.410156 104.042969c-10.957031-.03125-21.839844 1.835937-32.160156 5.519531.082031-1.839844.160156-3.679688.160156-5.519531 0-53.019531-42.980468-96-96-96-53.019531 0-96 42.980469-96 96-.015625 4.171875.25 8.34375.800782 12.480469-7.921876-3.007813-16.328126-4.527344-24.800782-4.480469-34.242187 0-63.75 24.121093-70.558594 57.679687-31.65625 7.398438-52.734374 37.351563-49.011718 69.648438 3.722656 32.292968 31.0625 56.667968 63.570312 56.671875h128l16-32h-64l48-96h96l-32 64h64l-32 64h80c2.71875 0 5.359375-.082031 8-.320313 51.355469-4.203125 90.234375-48.199218 88.085938-99.683594-2.148438-51.484374-44.558594-92.089843-96.085938-91.996093zm0 0" fill="#9bc9ff"/><g fill="#1e81ce"><path d="m376.410156 304.042969h-80c-2.78125.015625-5.367187-1.414063-6.835937-3.777344-1.46875-2.359375-1.605469-5.3125-.363281-7.800781l26.253906-52.421875h-51.054688c-2.78125.015625-5.367187-1.414063-6.835937-3.777344-1.46875-2.359375-1.605469-5.3125-.363281-7.800781l26.253906-52.421875h-78.109375l-40 80h51.054687c2.773438-.003907 5.347656 1.433593 6.808594 3.789062 1.457031 2.359375 1.589844 5.304688.351562 7.785157l-16 32c-1.355468 2.714843-4.128906 4.425781-7.160156 4.425781h-128c-35.625.007812-65.898437-26.03125-71.214844-61.257813-5.316406-35.222656 15.925782-69.039062 49.96875-79.542968 9.472657-34.882813 41.101563-59.121094 77.246094-59.199219 5.375-.011719 10.734375.527343 16 1.597656 0-.527344 0-1.0625 0-1.597656-.023437-56.441407 44.976563-102.597657 101.398438-104.011719 56.425781-1.410156 103.675781 42.4375 106.472656 98.8125 37.910156-8.898438 77.613281 4.128906 102.882812 33.75 25.269532 29.625 31.875 70.882812 17.117188 106.917969-14.757812 36.03125-48.40625 60.800781-87.199219 64.1875-2.824219.253906-5.703125.34375-8.671875.34375zm-67.054687-16h67.054687c2.472656 0 4.871094-.074219 7.273438-.289063 47.09375-3.820312 82.765625-44.144531 80.8125-91.351562-1.953125-47.207032-40.839844-84.445313-88.085938-84.359375-10.035156-.039063-20 1.671875-29.449218 5.046875-2.507813.90625-5.304688.496094-7.453126-1.082032-2.148437-1.582031-3.367187-4.132812-3.25-6.796874.082032-1.722657.152344-3.441407.152344-5.167969 0-48.601563-39.398437-88-88-88-48.601562 0-88 39.398437-88 88-.015625 3.808593.226563 7.613281.726563 11.390625.386719 2.804687-.738281 5.601562-2.957031 7.359375-2.21875 1.753906-5.199219 2.210937-7.839844 1.191406-7.003906-2.652344-14.441406-3.988281-21.929688-3.941406-30.414062.054687-56.605468 21.464843-62.710937 51.261719-.621094 3.078124-2.980469 5.511718-6.039063 6.21875-27.679687 6.492187-46.101562 32.695312-42.84375 60.9375 3.257813 28.242187 27.164063 49.5625 55.59375 49.582031h123.054688l8-16h-51.054688c-2.773437 0-5.347656-1.433594-6.808594-3.792969-1.457031-2.359375-1.589843-5.304688-.351562-7.785156l48-96c1.355469-2.710938 4.128906-4.425782 7.160156-4.421875h96c2.78125-.015625 5.367188 1.414062 6.835938 3.773437s1.605468 5.316406.363281 7.800782l-26.253906 52.425781h51.054687c2.78125-.015625 5.367188 1.414062 6.835938 3.773437s1.605468 5.316406.363281 7.800782zm0 0"/><path d="m211.492188 483.777344 16.453124-147.734375h-56.480468l32-64h-64l56-112h113.890625l-32 64h64zm-14.136719-163.734375h48.480469l-8.503907 76.261719 78.132813-156.261719h-64l32-64h-78.109375l-40 80h64zm0 0"/></g></svg>