<svg height="480pt" viewBox="0 0 480 480" width="480pt" xmlns="http://www.w3.org/2000/svg"><g fill="#1e81ce"><path d="m240 408c-92.785156 0-168-75.214844-168-168s75.214844-168 168-168 168 75.214844 168 168c-.101562 92.742188-75.257812 167.898438-168 168zm0-320c-83.949219 0-152 68.050781-152 152s68.050781 152 152 152 152-68.050781 152-152c-.09375-83.910156-68.089844-151.90625-152-152zm0 0"/><path d="m240 64c-4.417969 0-8-3.582031-8-8v-48c0-4.417969 3.582031-8 8-8s8 3.582031 8 8v48c0 4.417969-3.582031 8-8 8zm0 0"/><path d="m169.601562 78.007812c-3.238281.003907-6.160156-1.945312-7.402343-4.9375l-12.238281-29.597656c-1.167969-2.652344-.808594-5.730468.9375-8.042968 1.746093-2.316407 4.609374-3.503907 7.480468-3.105469 2.871094.398437 5.304688 2.320312 6.355469 5.019531l12.25 29.601562c1.023437 2.464844.746094 5.28125-.734375 7.503907-1.484375 2.222656-3.980469 3.558593-6.648438 3.558593zm0 0"/><path d="m70 177.601562c-1.050781-.003906-2.085938-.214843-3.054688-.617187l-29.601562-12.25c-2.699219-1.050781-4.621094-3.484375-5.019531-6.355469-.398438-2.871094.789062-5.734375 3.105469-7.480468 2.3125-1.746094 5.390624-2.105469 8.042968-.9375l29.597656 12.238281c3.542969 1.453125 5.554688 5.210937 4.808594 8.964843-.75 3.753907-4.050781 6.453126-7.878906 6.4375zm0 0"/><path d="m40.449219 330.664062c-3.820313.007813-7.113281-2.6875-7.859375-6.433593-.746094-3.746094 1.257812-7.496094 4.785156-8.957031l29.601562-12.25c4.082032-1.691407 8.761719.246093 10.457032 4.328124 1.691406 4.082032-.246094 8.765626-4.328125 10.457032l-29.601563 12.238281c-.96875.40625-2.007812.613281-3.054687.617187zm0 0"/><path d="m157.335938 447.558594c-1.046876 0-2.085938-.207032-3.054688-.605469-4.085938-1.691406-6.023438-6.375-4.328125-10.457031l12.238281-29.601563c1.691406-4.082031 6.375-6.019531 10.457032-4.328125 4.082031 1.695313 6.019531 6.375 4.328124 10.457032l-12.25 29.601562c-1.238281 2.988281-4.15625 4.9375-7.390624 4.933594zm0 0"/><path d="m322.664062 447.558594c-3.234374.003906-6.152343-1.945313-7.390624-4.933594l-12.25-29.601562c-1.691407-4.082032.246093-8.761719 4.328124-10.457032 4.082032-1.691406 8.765626.246094 10.457032 4.328125l12.238281 29.601563c1.695313 4.082031-.242187 8.765625-4.328125 10.457031-.96875.398437-2.007812.605469-3.054688.605469zm0 0"/><path d="m439.550781 330.664062c-1.046875-.003906-2.085937-.210937-3.054687-.617187l-29.601563-12.238281c-4.082031-1.691406-6.019531-6.375-4.328125-10.457032 1.695313-4.082031 6.375-6.019531 10.457032-4.328124l29.601562 12.25c3.527344 1.460937 5.53125 5.210937 4.785156 8.957031-.746094 3.746093-4.039062 6.441406-7.859375 6.433593zm0 0"/><path d="m410 177.601562c-3.828125.015626-7.128906-2.683593-7.878906-6.4375-.746094-3.753906 1.265625-7.511718 4.808594-8.964843l29.597656-12.238281c2.652344-1.167969 5.730468-.808594 8.042968.9375 2.316407 1.746093 3.503907 4.609374 3.105469 7.480468-.398437 2.871094-2.320312 5.304688-5.019531 6.355469l-29.601562 12.25c-.96875.402344-2.003907.613281-3.054688.617187zm0 0"/><path d="m310.398438 78.007812c-2.667969 0-5.164063-1.335937-6.648438-3.558593-1.480469-2.222657-1.757812-5.039063-.734375-7.503907l12.25-29.601562c1.050781-2.699219 3.484375-4.621094 6.355469-5.019531 2.871094-.398438 5.734375.789062 7.480468 3.105469 1.746094 2.3125 2.105469 5.390624.9375 8.042968l-12.238281 29.597656c-1.242187 2.992188-4.164062 4.941407-7.402343 4.9375zm0 0"/><path d="m109.886719 117.886719c-2.121094 0-4.15625-.84375-5.65625-2.34375l-33.933594-33.941407c-2.160156-1.992187-3.058594-5.003906-2.339844-7.851562.722657-2.847656 2.945313-5.070312 5.792969-5.792969 2.847656-.71875 5.859375.179688 7.851562 2.339844l33.933594 33.933594c2.289063 2.289062 2.972656 5.730469 1.734375 8.71875s-4.15625 4.9375-7.390625 4.9375zm0 0"/><path d="m56 248h-48c-4.417969 0-8-3.582031-8-8s3.582031-8 8-8h48c4.417969 0 8 3.582031 8 8s-3.582031 8-8 8zm0 0"/><path d="m75.953125 412.046875c-3.234375 0-6.152344-1.949219-7.390625-4.9375s-.554688-6.429687 1.734375-8.71875l33.933594-33.933594c2.011719-2.082031 4.984375-2.914062 7.78125-2.183593 2.796875.734374 4.980469 2.917968 5.714843 5.714843.730469 2.796875-.101562 5.769531-2.183593 7.78125l-33.941407 33.933594c-1.5 1.5-3.53125 2.34375-5.648437 2.34375zm0 0"/><path d="m240 480c-4.417969 0-8-3.582031-8-8v-48c0-4.417969 3.582031-8 8-8s8 3.582031 8 8v48c0 4.417969-3.582031 8-8 8zm0 0"/><path d="m404.046875 412.046875c-2.121094 0-4.15625-.84375-5.65625-2.34375l-33.933594-33.933594c-2.082031-2.011719-2.914062-4.984375-2.183593-7.78125.734374-2.796875 2.917968-4.980469 5.714843-5.714843 2.796875-.730469 5.769531.101562 7.78125 2.183593l33.933594 33.941407c2.289063 2.289062 2.972656 5.730468 1.734375 8.71875-1.238281 2.988281-4.15625 4.9375-7.390625 4.9375zm0 0"/><path d="m472 248h-48c-4.417969 0-8-3.582031-8-8s3.582031-8 8-8h48c4.417969 0 8 3.582031 8 8s-3.582031 8-8 8zm0 0"/><path d="m370.113281 117.886719c-3.238281 0-6.152343-1.949219-7.390625-4.9375-1.238281-2.988281-.554687-6.429688 1.734375-8.71875l33.941407-33.933594c1.992187-2.160156 5.003906-3.058594 7.851562-2.339844 2.847656.722657 5.070312 2.945313 5.792969 5.792969.71875 2.847656-.179688 5.859375-2.339844 7.851562l-33.933594 33.933594c-1.5 1.503906-3.535156 2.351563-5.65625 2.351563zm0 0"/></g></svg>