<svg height="480pt" viewBox="0 -36 480 480" width="480pt" xmlns="http://www.w3.org/2000/svg"><path d="m240 80c-53.96875 0-104.304688 27.210938-133.863281 72.367188-29.5625 45.152343-34.363281 102.167968-12.777344 151.632812h293.28125c21.585937-49.464844 16.785156-106.480469-12.777344-151.632812-29.558593-45.15625-79.894531-72.367188-133.863281-72.367188zm0 0" fill="#9bc9ff"/><g fill="#1e81ce"><path d="m240 64c-4.417969 0-8-3.582031-8-8v-48c0-4.417969 3.582031-8 8-8s8 3.582031 8 8v48c0 4.417969-3.582031 8-8 8zm0 0"/><path d="m169.601562 78.007812c-3.238281.003907-6.160156-1.945312-7.402343-4.9375l-12.238281-29.597656c-1.539063-4.046875.417968-8.582031 4.414062-10.238281 4-1.65625 8.589844.167969 10.359375 4.117187l12.25 29.601563c1.023437 2.464844.746094 5.28125-.734375 7.503906-1.484375 2.222657-3.980469 3.558594-6.648438 3.558594zm0 0"/><path d="m70 177.601562c-1.046875 0-2.082031-.207031-3.046875-.609374l-29.601563-12.238282c-4.082031-1.691406-6.023437-6.371094-4.332031-10.453125 1.691407-4.082031 6.371094-6.023437 10.453125-4.332031l29.558594 12.238281c3.523438 1.457031 5.527344 5.199219 4.789062 8.9375-.734374 3.742188-4.007812 6.441407-7.820312 6.457031zm0 0"/><path d="m410 177.601562c-3.816406 0-7.105469-2.695312-7.851562-6.441406-.746094-3.742187 1.257812-7.492187 4.789062-8.953125l29.597656-12.238281c4.082032-1.691406 8.761719.25 10.453125 4.332031 1.691407 4.082031-.25 8.761719-4.332031 10.453125l-29.601562 12.238282c-.96875.402343-2.003907.609374-3.054688.609374zm0 0"/><path d="m310.398438 78.007812c-2.667969 0-5.164063-1.335937-6.648438-3.558593-1.480469-2.222657-1.757812-5.039063-.734375-7.503907l12.25-29.5625c1.769531-3.949218 6.359375-5.773437 10.359375-4.117187 3.996094 1.65625 5.953125 6.195313 4.414062 10.238281l-12.238281 29.601563c-1.25 2.976562-4.171875 4.910156-7.402343 4.902343zm0 0"/><path d="m109.886719 117.886719c-2.121094 0-4.15625-.84375-5.65625-2.34375l-33.933594-33.941407c-2.160156-1.992187-3.058594-5.003906-2.339844-7.851562.722657-2.847656 2.945313-5.070312 5.792969-5.792969 2.847656-.71875 5.859375.179688 7.851562 2.339844l33.933594 33.933594c2.289063 2.289062 2.972656 5.730469 1.734375 8.71875s-4.15625 4.9375-7.390625 4.9375zm0 0"/><path d="m56 248h-48c-4.417969 0-8-3.582031-8-8s3.582031-8 8-8h48c4.417969 0 8 3.582031 8 8s-3.582031 8-8 8zm0 0"/><path d="m472 248h-48c-4.417969 0-8-3.582031-8-8s3.582031-8 8-8h48c4.417969 0 8 3.582031 8 8s-3.582031 8-8 8zm0 0"/><path d="m370.113281 117.886719c-3.238281 0-6.152343-1.949219-7.390625-4.9375-1.238281-2.988281-.554687-6.429688 1.734375-8.71875l33.941407-33.933594c1.992187-2.160156 5.003906-3.058594 7.851562-2.339844 2.847656.722657 5.070312 2.945313 5.792969 5.792969.71875 2.847656-.179688 5.859375-2.339844 7.851562l-33.933594 33.933594c-1.5 1.503906-3.535156 2.351563-5.65625 2.351563zm0 0"/><path d="m472 296h-73.800781c24.898437-69.667969 1.292969-147.425781-58.136719-191.492188-59.433594-44.0625-140.691406-44.0625-200.125 0-59.429688 44.066407-83.035156 121.824219-58.136719 191.492188h-73.800781c-4.417969 0-8 3.582031-8 8s3.582031 8 8 8h464c4.417969 0 8-3.582031 8-8s-3.582031-8-8-8zm-373.3125 0c-25.125-63.417969-4.929688-135.808594 49.402344-177.054688 54.332031-41.246093 129.488281-41.246093 183.820312 0 54.332032 41.246094 74.527344 113.636719 49.402344 177.054688zm0 0"/><path d="m424 344h-368c-4.417969 0-8-3.582031-8-8s3.582031-8 8-8h368c4.417969 0 8 3.582031 8 8s-3.582031 8-8 8zm0 0"/><path d="m384 376h-288c-4.417969 0-8-3.582031-8-8s3.582031-8 8-8h288c4.417969 0 8 3.582031 8 8s-3.582031 8-8 8zm0 0"/><path d="m336 408h-192c-4.417969 0-8-3.582031-8-8s3.582031-8 8-8h192c4.417969 0 8 3.582031 8 8s-3.582031 8-8 8zm0 0"/></g></svg>