<svg height="480pt" viewBox="-68 0 480 480.00003" width="480pt" xmlns="http://www.w3.org/2000/svg"><path d="m224 72.105469v258.695312c-22.039062 7.792969-35.261719 30.328125-31.308594 53.371094 3.953125 23.039063 23.929688 39.882813 47.308594 39.882813s43.355469-16.84375 47.308594-39.882813c3.953125-23.042969-9.269532-45.578125-31.308594-53.371094v-258.800781zm0 0" fill="#9bc9ff"/><g fill="#1e81ce"><path d="m240 480c-46.234375.035156-86.945312-30.457031-99.910156-74.835938-12.964844-44.382812 4.925781-91.992187 43.910156-116.851562v-232.3125c.035156-30.914062 25.085938-55.9648438 56-56 30.914062.0351562 55.964844 25.085938 56 56v24h-16v-24c-.039062-22.074219-17.925781-39.960938-40-40-22.082031.027344-39.972656 17.917969-40 40v236.800781c0 2.855469-1.523438 5.5-4 6.925781-34.492188 19.917969-51.308594 60.515626-41 98.988282s45.171875 65.222656 85 65.222656 74.691406-26.75 85-65.222656-6.507812-79.070313-41-98.988282c-2.476562-1.425781-4-4.070312-4-6.925781v-36.625h16v32.136719c38.984375 24.859375 56.875 72.46875 43.910156 116.851562-12.964844 44.378907-53.675781 74.871094-99.910156 74.835938zm-.078125-48c-3.976563-.003906-7.941406-.414062-11.832031-1.222656-23.441406-5.078125-41.042969-24.519532-43.777344-48.347656-2.734375-23.828126 10.007812-46.75 31.6875-57.003907v-253.320312c0-4.417969 3.582031-8 8-8l32-.105469c4.417969 0 8 3.582031 8 8v253.433594c23.640625 11.246094 36.332031 37.371094 30.5625 62.910156-5.769531 25.535156-28.460938 43.664062-54.640625 43.65625zm-7.921875-351.921875v250.722656c-.003906 3.402344-2.160156 6.433594-5.375 7.550781-16.808594 5.972657-27.632812 22.347657-26.535156 40.152344 1.09375 17.804688 13.847656 32.730469 31.261718 36.59375 11.917969 2.574219 24.359376-.386718 33.839844-8.050781 11.242188-9.097656 16.683594-23.5625 14.230469-37.8125-2.453125-14.253906-12.417969-26.066406-26.054687-30.882813-3.210938-1.117187-5.367188-4.148437-5.367188-7.550781v-250.800781zm0 0"/><path d="m280 96h32v16h-32zm0 0"/><path d="m280 128h32v16h-32zm0 0"/><path d="m280 160h32v16h-32zm0 0"/><path d="m280 192h32v16h-32zm0 0"/><path d="m280 224h32v16h-32zm0 0"/><path d="m136 88v-16h-48v72h16v-32h24v-16h-24v-8zm0 0"/><path d="m64 40c-13.253906 0-24 10.746094-24 24s10.746094 24 24 24 24-10.746094 24-24-10.746094-24-24-24zm0 32c-4.417969 0-8-3.582031-8-8s3.582031-8 8-8 8 3.582031 8 8-3.582031 8-8 8zm0 0"/><path d="m88 176c-48.601562 0-88-39.398438-88-88s39.398438-88 88-88 88 39.398438 88 88c-.058594 48.578125-39.421875 87.941406-88 88zm0-160c-39.765625 0-72 32.234375-72 72s32.234375 72 72 72 72-32.234375 72-72c-.046875-39.746094-32.253906-71.953125-72-72zm0 0"/></g></svg>