<svg height="480pt" viewBox="-76 0 480 480.00003" width="480pt" xmlns="http://www.w3.org/2000/svg"><path d="m208 72.105469v258.695312c-22.039062 7.792969-35.261719 30.328125-31.308594 53.371094 3.953125 23.039063 23.929688 39.882813 47.308594 39.882813s43.355469-16.84375 47.308594-39.882813c3.953125-23.042969-9.269532-45.578125-31.308594-53.371094v-258.800781zm0 0" fill="#9bc9ff"/><g fill="#1e81ce"><path d="m224 480c-46.234375.035156-86.945312-30.457031-99.910156-74.835938-12.964844-44.382812 4.925781-91.992187 43.910156-116.851562v-232.3125c.035156-30.914062 25.085938-55.9648438 56-56 30.910156.0390625 55.960938 25.089844 56 56v24h-16v-24c-.039062-22.074219-17.925781-39.960938-40-40-22.082031.027344-39.972656 17.917969-40 40v236.800781c0 2.855469-1.523438 5.5-4 6.925781-34.492188 19.917969-51.308594 60.515626-41 98.988282s45.171875 65.222656 85 65.222656 74.691406-26.75 85-65.222656-6.507812-79.070313-41-98.988282c-2.476562-1.425781-4-4.070312-4-6.925781v-36.625h16v32.136719c38.984375 24.859375 56.875 72.46875 43.910156 116.851562-12.964844 44.378907-53.675781 74.871094-99.910156 74.835938zm-.089844-48c-3.972656-.003906-7.933594-.414062-11.820312-1.222656-23.441406-5.078125-41.042969-24.519532-43.777344-48.347656-2.734375-23.828126 10.007812-46.75 31.6875-57.003907v-253.320312c0-4.417969 3.582031-8 8-8l32-.105469c4.417969 0 8 3.582031 8 8v253.433594c23.640625 11.246094 36.335938 37.375 30.5625 62.914062-5.773438 25.535156-28.46875 43.664063-54.652344 43.652344zm-7.910156-351.921875v250.722656c-.003906 3.402344-2.160156 6.433594-5.375 7.550781-16.808594 5.972657-27.632812 22.347657-26.535156 40.152344 1.09375 17.804688 13.847656 32.730469 31.261718 36.59375 11.917969 2.570313 24.355469-.390625 33.839844-8.050781 11.242188-9.097656 16.6875-23.558594 14.234375-37.8125-2.453125-14.25-12.414062-26.0625-26.050781-30.882813-3.214844-1.117187-5.371094-4.148437-5.375-7.550781v-250.800781zm0 0"/><path d="m80 120c-22.089844 0-40-17.910156-40-40s17.910156-40 40-40 40 17.910156 40 40c-.027344 22.082031-17.917969 39.972656-40 40zm0-64c-13.253906 0-24 10.746094-24 24s10.746094 24 24 24 24-10.746094 24-24-10.746094-24-24-24zm0 0"/><path d="m72 0h16v32h-16zm0 0"/><path d="m17.777344 29.085938 11.3125-11.3125 22.632812 22.628906-11.3125 11.316406zm0 0"/><path d="m0 72h32v16h-32zm0 0"/><path d="m17.773438 130.914062 22.632812-22.632812 11.3125 11.3125-22.632812 22.632812zm0 0"/><path d="m72 128h16v32h-16zm0 0"/><path d="m108.285156 119.597656 11.3125-11.316406 22.632813 22.632812-11.3125 11.3125zm0 0"/><path d="m128 72h32v16h-32zm0 0"/><path d="m108.277344 40.402344 22.632812-22.632813 11.316406 11.3125-22.636718 22.636719zm0 0"/><path d="m264 96h32v16h-32zm0 0"/><path d="m264 128h32v16h-32zm0 0"/><path d="m264 160h32v16h-32zm0 0"/><path d="m264 192h32v16h-32zm0 0"/><path d="m264 224h32v16h-32zm0 0"/></g></svg>