<svg height="480pt" viewBox="-79 0 480 480.00003" width="480pt" xmlns="http://www.w3.org/2000/svg"><path d="m201.789062 72.105469v258.695312c-22.039062 7.792969-35.261718 30.328125-31.308593 53.371094 3.953125 23.039063 23.933593 39.882813 47.308593 39.882813 23.378907 0 43.355469-16.84375 47.308594-39.882813 3.957032-23.042969-9.265625-45.578125-31.308594-53.371094v-258.800781zm0 0" fill="#9bc9ff"/><g fill="#1e81ce"><path d="m217.789062 480c-46.234374.035156-86.941406-30.457031-99.90625-74.835938-12.964843-44.382812 4.925782-91.992187 43.90625-116.851562v-232.3125c.035157-30.914062 25.089844-55.9648438 56-56 30.914063.0390625 55.960938 25.089844 56 56v24h-16v-24c-.039062-22.074219-17.921874-39.960938-40-40-22.078124.027344-39.972656 17.917969-40 40v236.800781c0 2.855469-1.523437 5.5-4 6.925781-34.492187 19.917969-51.308593 60.515626-41 98.988282 10.308594 38.472656 45.171876 65.222656 85 65.222656 39.832032 0 74.695313-26.75 85.003907-65.222656 10.308593-38.472656-6.507813-79.070313-41.003907-98.988282-2.472656-1.425781-4-4.070312-4-6.925781v-36.625h16v32.136719c38.984376 24.859375 56.875 72.46875 43.910157 116.851562-12.964844 44.378907-53.671875 74.871094-99.910157 74.835938zm-.085937-48c-3.972656-.003906-7.933594-.414062-11.824219-1.222656-23.441406-5.078125-41.042968-24.519532-43.777344-48.347656-2.734374-23.828126 10.007813-46.75 31.6875-57.003907v-253.320312c0-4.417969 3.582032-8 8-8l32-.105469c4.421876 0 8 3.582031 8 8v253.433594c23.644532 11.246094 36.335938 37.375 30.5625 62.914062-5.769531 25.535156-28.46875 43.664063-54.648437 43.652344zm-7.914063-351.921875v250.722656c0 3.402344-2.15625 6.433594-5.375 7.550781-16.808593 5.972657-27.632812 22.347657-26.535156 40.152344 1.097656 17.804688 13.851563 32.730469 31.265625 36.59375 11.914063 2.570313 24.355469-.390625 33.839844-8.050781 11.238281-9.097656 16.683594-23.558594 14.230469-37.8125-2.449219-14.25-12.414063-26.0625-26.046875-30.882813-3.21875-1.117187-5.375-4.148437-5.378907-7.550781v-250.800781zm0 0"/><path d="m137.269531 84-27.703125 7.425781-19.777344-11.425781 19.777344-11.414062 27.703125 7.421874c4.261719 1.117188 8.621094-1.414062 9.761719-5.667968 1.136719-4.253906-1.375-8.628906-5.625-9.789063l-12.246094-3.277343 10.984375-6.34375c2.492188-1.421876 4.039063-4.066407 4.042969-6.9375.007812-2.871094-1.523438-5.527344-4.015625-6.957032-2.488281-1.429687-5.550781-1.414062-8.027344.035156l-10.984375 6.34375 3.277344-12.253906c1.011719-4.214844-1.519531-8.46875-5.707031-9.589844-4.183594-1.125-8.503907 1.292969-9.738281 5.445313l-7.417969 27.710937-19.785157 11.417969v-22.832031l20.28125-20.289062c3.03125-3.136719 2.988282-8.128907-.097656-11.214844-3.085937-3.085938-8.074218-3.128906-11.214844-.097656l-8.96875 8.96875v-12.679688c0-4.417969-3.578124-8-8-8-4.417968 0-8 3.582031-8 8v12.679688l-8.964843-8.96875c-3.140625-3.03125-8.128907-2.988282-11.214844.097656-3.085937 3.085937-3.128906 8.078125-.097656 11.214844l20.277343 20.289062v22.832031l-19.773437-11.417969-7.425781-27.710937c-1.15625-4.265625-5.550782-6.785156-9.816406-5.632813-4.265626 1.15625-6.785157 5.550782-5.628907 9.816407l3.277344 12.257812-10.984375-6.386719c-2.476562-1.449218-5.539062-1.464843-8.027344-.035156-2.492187 1.429688-4.023437 4.085938-4.015625 6.957032.003907 2.871093 1.546875 5.515624 4.042969 6.9375l10.984375 6.34375-12.246094 3.277343c-2.84375.667969-5.09375 2.828125-5.878906 5.636719-.785156 2.8125.019531 5.824219 2.105469 7.867188 2.082031 2.042968 5.113281 2.789062 7.910156 1.945312l27.703125-7.425781 19.773437 11.425781-19.773437 11.414062-27.703125-7.414062c-4.261719-1.117188-8.625 1.414062-9.761719 5.667969-1.136719 4.253906 1.375 8.628906 5.625 9.789062l12.246094 3.277344-10.984375 6.34375c-2.496094 1.421875-4.039062 4.066406-4.042969 6.9375-.007812 2.871094 1.523438 5.527344 4.015625 6.957031 2.488282 1.429688 5.550782 1.414063 8.027344-.035156l10.984375-6.34375-3.277344 12.253906c-1.148437 4.269532 1.386719 8.65625 5.65625 9.800782.675781.179687 1.375.269531 2.078125.273437 3.617188-.003906 6.78125-2.4375 7.71875-5.929687l7.417969-27.710938 19.773437-11.425781v22.832031l-20.277343 20.289062c-3.03125 3.136719-2.988281 8.128907.097656 11.214844 3.085937 3.085938 8.074219 3.128906 11.214844.097656l8.964843-8.96875v12.679688c0 4.417969 3.582032 8 8 8 4.421876 0 8-3.582031 8-8v-12.679688l8.96875 8.96875c3.140626 3.03125 8.128907 2.988282 11.214844-.097656 3.085938-3.085937 3.128906-8.078125.097656-11.214844l-20.28125-20.289062v-22.832031l19.777344 11.417969 7.417969 27.710937c.933594 3.492187 4.101563 5.925781 7.71875 5.925781.703125 0 1.402344-.089844 2.078125-.269531 4.269531-1.144531 6.800781-5.53125 5.65625-9.800781l-3.277344-12.253906 10.984375 6.34375c2.476563 1.449218 5.539063 1.464843 8.027344.035156 2.492187-1.429688 4.023437-4.085938 4.015625-6.957032-.003906-2.871093-1.550781-5.515624-4.042969-6.9375l-10.984375-6.34375 12.246094-3.277343c4.25-1.160157 6.761719-5.535157 5.625-9.789063-1.140625-4.253906-5.5-6.785156-9.761719-5.667968zm0 0"/><path d="m257.789062 96h32v16h-32zm0 0"/><path d="m257.789062 128h32v16h-32zm0 0"/><path d="m257.789062 160h32v16h-32zm0 0"/><path d="m257.789062 192h32v16h-32zm0 0"/><path d="m257.789062 224h32v16h-32zm0 0"/></g></svg>