<svg height="479pt" viewBox="-136 0 479 479.94761" width="479pt" xmlns="http://www.w3.org/2000/svg"><path d="m94.195312 422.929688c24.738282 5.371093 49.398438-9.398438 56.339844-33.742188 6.945313-24.34375-6.210937-49.898438-30.0625-58.386719v-258.800781l-32 .105469v258.695312c-20.199218 7.152344-33.210937 26.832031-31.882812 48.21875 1.328125 21.390625 16.671875 39.308594 37.605468 43.910157zm0 0" fill="#9bc9ff"/><g fill="#1e81ce"><path d="m160.472656 288.3125v-48.3125h24c4.417969 0 8-3.582031 8-8s-3.582031-8-8-8h-24v-16h24c4.417969 0 8-3.582031 8-8s-3.582031-8-8-8h-24v-16h24c4.417969 0 8-3.582031 8-8s-3.582031-8-8-8h-24v-16h24c4.417969 0 8-3.582031 8-8s-3.582031-8-8-8h-24v-16h24c4.417969 0 8-3.582031 8-8s-3.582031-8-8-8h-24v-40c-.035156-30.914062-25.085937-55.9648438-56-56-30.914062.0351562-55.964844 25.085938-56 56v232.3125c-38.929687 24.878906-56.785156 72.457031-43.824218 116.804688 12.960937 44.347656 53.621093 74.832031 99.824218 74.832031s86.867188-30.484375 99.828125-74.832031c12.957031-44.347657-4.894531-91.925782-43.828125-116.804688zm-56 175.6875c-39.871094.046875-74.792968-26.71875-85.109375-65.230469-10.316406-38.515625 6.550781-79.152343 41.109375-99.042969 2.476563-1.425781 4-4.070312 4-6.925781v-236.800781c.027344-22.082031 17.921875-39.972656 40-40 22.074219.039062 39.960938 17.925781 40 40v236.800781c0 2.855469 1.527344 5.5 4 6.925781 34.558594 19.890626 51.429688 60.527344 41.113282 99.042969-10.316407 38.511719-45.238282 65.277344-85.113282 65.230469zm0 0"/><path d="m128.472656 325.433594v-253.433594c0-2.125-.84375-4.164062-2.351562-5.664062-1.414063-1.617188-3.503906-2.484376-5.648438-2.335938l-32 .105469c-4.417968 0-8 3.582031-8 8v253.320312c-21.667968 10.261719-34.398437 33.175781-31.664062 56.992188 2.734375 23.820312 20.324218 43.253906 43.753906 48.34375 3.890625.8125 7.855469 1.230469 11.832031 1.238281 26.179688.007812 48.871094-18.121094 54.640625-43.65625 5.773438-25.539062-6.921875-51.664062-30.5625-62.910156zm1.191406 81.597656c-9.480468 7.664062-21.921874 10.625-33.839843 8.046875-17.414063-3.859375-30.164063-18.785156-31.261719-36.589844-1.097656-17.804687 9.726562-34.183593 26.535156-40.152343 3.210938-1.113282 5.367188-4.136719 5.375-7.535157v-250.722656l16-.078125v250.800781c.003906 3.402344 2.15625 6.433594 5.371094 7.550781 13.632812 4.816407 23.597656 16.628907 26.050781 30.882813 2.453125 14.25-2.988281 28.714844-14.230469 37.8125zm0 0"/></g></svg>