<svg height="483pt" viewBox="-2 0 483 483.29629" width="483pt" xmlns="http://www.w3.org/2000/svg"><path d="m376.148438 103.984375c-10.957032-.03125-21.839844 1.839844-32.160157 5.519531.082031-1.839844.160157-3.679687.160157-5.519531.003906-44.792969-30.96875-83.632813-74.640626-93.601563-1.679687-.398437-3.4375-.71875-5.199218-.957031-2.480469-.480469-4.960938-.800781-7.519532-1.042969-2.878906-.238281-5.761718-.398437-8.640624-.398437-25.824219-.03125-50.570313 10.351563-68.640626 28.800781-6.082031 6.136719-11.253906 13.113282-15.359374 20.71875-.105469.230469-.238282.445313-.398438.640625v.078125c-3.273438 5.933594-5.875 12.214844-7.761719 18.722656-1.589843 5.515626-2.6875 11.167969-3.28125 16.878907-.390625 3.371093-.574219 6.765625-.558593 10.160156-.019532 4.171875.25 8.34375.800781 12.480469-7.921875-3.003906-16.328125-4.523438-24.800781-4.480469-10.742188.003906-21.347657 2.410156-31.039063 7.039063-3.128906 1.53125-6.148437 3.265624-9.039063 5.199218-1.714843 1.113282-3.34375 2.339844-4.882812 3.679688-2.726562 2.15625-5.296875 4.511718-7.679688 7.042968-2.300781 2.421876-4.414062 5.015626-6.320312 7.757813-5.691406 8.085937-9.640625 17.269531-11.597656 26.960937-4.628906 1.070313-9.113282 2.679688-13.363282 4.800782-5.207031 2.539062-10.050781 5.769531-14.398437 9.597656-3.101563 2.691406-5.917969 5.691406-8.398437 8.960938-14.875 19.316406-17.472657 45.40625-6.703126 67.273437 10.773438 21.871094 33.042969 35.710937 57.421876 35.6875h304c2.71875 0 5.359374-.082031 8-.320313 51.355468-4.203124 90.234374-48.199218 88.085937-99.683593s-44.558594-92.085938-96.085937-91.996094zm0 0" fill="#9bc9ff"/><g fill="#1e81ce"><path d="m376.148438 303.984375h-304c-39.746094-.042969-71.957032-32.253906-72-72-.039063-15.871094 5.21875-31.300781 14.945312-43.839844 2.800781-3.691406 5.976562-7.078125 9.480469-10.113281 4.863281-4.289062 10.285156-7.902344 16.117187-10.742188 3.277344-1.664062 6.691406-3.039062 10.207032-4.105468 2.421874-8.992188 6.398437-17.492188 11.753906-25.109375 2.140625-3.082031 4.515625-5.988281 7.105468-8.707031 2.625-2.785157 5.449219-5.371094 8.453126-7.742188 1.710937-1.488281 3.527343-2.851562 5.433593-4.082031 3.1875-2.128907 6.515625-4.042969 9.960938-5.726563 15.738281-7.460937 33.464843-9.644531 50.542969-6.230468 0-.53125 0-1.066407 0-1.601563-.015626-3.71875.1875-7.433594.617187-11.128906.644531-6.148438 1.832031-12.226563 3.550781-18.167969 1.992188-6.847656 4.707032-13.464844 8.105469-19.734375.183594-.4375.410156-.855469.671875-1.25l.054688-.085937c4.457031-8.234376 10.070312-15.789063 16.664062-22.433594 21.867188-22.261719 52.566406-33.554688 83.648438-30.765625 2.894531.269531 5.597656.621093 8.351562 1.140625 1.601562.21875 3.617188.585937 5.542969 1.042968 45.257812 10.601563 78.101562 49.773438 80.65625 96.183594 37.910156-8.894531 77.609375 4.128906 102.882812 33.753906 25.269531 29.621094 31.875 70.878907 17.117188 106.914063-14.757813 36.03125-48.410157 60.800781-87.199219 64.1875-2.816406.253906-5.695312.34375-8.664062.34375zm-248-184c-9.554688.003906-18.988282 2.144531-27.609376 6.265625-2.765624 1.363281-5.4375 2.914062-8 4.628906-1.394531.90625-2.730468 1.90625-4 2.984375-2.558593 2.003907-4.964843 4.195313-7.199218 6.554688-2.039063 2.152343-3.910156 4.460937-5.597656 6.902343-5.039063 7.1875-8.539063 15.335938-10.289063 23.9375-.617187 3.046876-2.945313 5.460938-5.96875 6.191407-4.019531.914062-7.917969 2.304687-11.609375 4.144531-4.597656 2.230469-8.875 5.078125-12.710938 8.453125-2.707031 2.335937-5.164062 4.945313-7.328124 7.792969-7.59375 9.761718-11.707032 21.777344-11.6875 34.144531.035156 30.914063 25.085937 55.964844 56 56h304c2.472656 0 4.871093-.070313 7.273437-.289063 47.089844-3.816406 82.765625-44.144531 80.8125-91.351562s-40.839844-84.445312-88.085937-84.359375c-10.035157-.035156-20 1.671875-29.449219 5.046875-2.507813.90625-5.304688.5-7.453125-1.082031-2.148438-1.582031-3.367188-4.132813-3.25-6.796875.082031-1.71875.152344-3.441406.152344-5.167969-.195313-40.984375-28.496094-76.480469-68.40625-85.800781-1.515626-.359375-3.019532-.632813-4.523438-.839844-2.65625-.496094-4.886719-.800781-7.199219-1-2.558593-.207031-5.214843-.359375-7.871093-.359375-23.6875-.074219-46.390626 9.449219-62.9375 26.398437-5.546876 5.601563-10.265626 11.964844-14.015626 18.898438l-.261718.496094c-.058594.101562-.113282.222656-.175782.335937-2.992187 5.410157-5.367187 11.136719-7.089843 17.070313-1.460938 5.074218-2.46875 10.269531-3.007813 15.519531-.359375 3.082031-.527344 6.179687-.511718 9.28125-.019532 3.808594.226562 7.617187.726562 11.390625.386719 2.804688-.738281 5.601562-2.957031 7.359375s-5.199219 2.210937-7.839844 1.195313c-7.007813-2.65625-14.441406-3.992188-21.929687-3.945313zm0 0"/><path d="m300.835938 355.296875c-3.234376 0-6.152344-1.949219-7.390626-4.9375-1.234374-2.992187-.550781-6.429687 1.734376-8.71875l22.625-22.625c3.140624-3.03125 8.128906-2.988281 11.214843.097656 3.085938 3.085938 3.128907 8.074219.097657 11.214844l-22.625 22.625c-1.5 1.5-3.535157 2.34375-5.65625 2.34375zm0 0"/><path d="m364.835938 355.296875c-3.234376 0-6.152344-1.949219-7.390626-4.9375-1.234374-2.992187-.550781-6.429687 1.734376-8.71875l22.625-22.625c3.140624-3.03125 8.128906-2.988281 11.214843.097656 3.085938 3.085938 3.128907 8.074219.097657 11.214844l-22.625 22.625c-1.5 1.5-3.535157 2.34375-5.65625 2.34375zm0 0"/><path d="m300.835938 419.296875c-3.234376 0-6.152344-1.949219-7.390626-4.9375-1.234374-2.992187-.550781-6.429687 1.734376-8.71875l22.625-22.625c3.140624-3.03125 8.128906-2.988281 11.214843.097656 3.085938 3.085938 3.128907 8.074219.097657 11.214844l-22.625 22.625c-1.5 1.5-3.535157 2.34375-5.65625 2.34375zm0 0"/><path d="m364.835938 419.296875c-3.234376 0-6.152344-1.949219-7.390626-4.9375-1.234374-2.992187-.550781-6.429687 1.734376-8.71875l22.625-22.625c3.140624-3.03125 8.128906-2.988281 11.214843.097656 3.085938 3.085938 3.128907 8.074219.097657 11.214844l-22.625 22.625c-1.5 1.5-3.535157 2.34375-5.65625 2.34375zm0 0"/><path d="m268.835938 483.296875c-3.234376 0-6.152344-1.949219-7.390626-4.9375-1.234374-2.992187-.550781-6.429687 1.734376-8.71875l22.625-22.625c3.140624-3.03125 8.128906-2.988281 11.214843.097656 3.085938 3.085938 3.128907 8.074219.097657 11.214844l-22.625 22.625c-1.5 1.5-3.535157 2.34375-5.65625 2.34375zm0 0"/><path d="m332.835938 483.296875c-3.234376 0-6.152344-1.949219-7.390626-4.9375-1.234374-2.992187-.550781-6.429687 1.734376-8.71875l22.625-22.625c3.140624-3.03125 8.128906-2.988281 11.214843.097656 3.085938 3.085938 3.128907 8.074219.097657 11.214844l-22.625 22.625c-1.5 1.5-3.535157 2.34375-5.65625 2.34375zm0 0"/><path d="m108.835938 355.296875c-3.234376 0-6.152344-1.949219-7.390626-4.9375-1.234374-2.992187-.550781-6.429687 1.734376-8.71875l22.625-22.625c2.007812-2.078125 4.984374-2.914063 7.78125-2.179687 2.796874.730468 4.980468 2.914062 5.710937 5.710937.734375 2.796875-.101563 5.773437-2.179687 7.78125l-22.625 22.625c-1.5 1.5-3.535157 2.34375-5.65625 2.34375zm0 0"/><path d="m172.835938 355.296875c-3.234376 0-6.152344-1.949219-7.390626-4.9375-1.234374-2.992187-.550781-6.429687 1.734376-8.71875l22.625-22.625c2.007812-2.078125 4.984374-2.914063 7.78125-2.179687 2.796874.730468 4.980468 2.914062 5.710937 5.710937.734375 2.796875-.101563 5.773437-2.179687 7.78125l-22.625 22.625c-1.5 1.5-3.535157 2.34375-5.65625 2.34375zm0 0"/><path d="m76.835938 419.296875c-3.234376 0-6.152344-1.949219-7.390626-4.9375-1.234374-2.992187-.550781-6.429687 1.734376-8.71875l22.625-22.625c2.007812-2.078125 4.984374-2.914063 7.78125-2.179687 2.796874.730468 4.980468 2.914062 5.710937 5.710937.734375 2.796875-.101563 5.773437-2.179687 7.78125l-22.625 22.625c-1.5 1.5-3.535157 2.34375-5.65625 2.34375zm0 0"/><path d="m140.835938 419.296875c-3.234376 0-6.152344-1.949219-7.390626-4.9375-1.234374-2.992187-.550781-6.429687 1.734376-8.71875l22.625-22.625c2.007812-2.078125 4.984374-2.914063 7.78125-2.179687 2.796874.730468 4.980468 2.914062 5.710937 5.710937.734375 2.796875-.101563 5.773437-2.179687 7.78125l-22.625 22.625c-1.5 1.5-3.535157 2.34375-5.65625 2.34375zm0 0"/><path d="m44.835938 483.296875c-3.234376 0-6.152344-1.949219-7.390626-4.9375-1.234374-2.992187-.550781-6.429687 1.734376-8.71875l22.625-22.625c2.007812-2.078125 4.984374-2.914063 7.78125-2.179687 2.796874.730468 4.980468 2.914062 5.710937 5.710937.734375 2.796875-.101563 5.773437-2.179687 7.78125l-22.625 22.625c-1.5 1.5-3.535157 2.34375-5.65625 2.34375zm0 0"/><path d="m108.835938 483.296875c-3.234376 0-6.152344-1.949219-7.390626-4.9375-1.234374-2.992187-.550781-6.429687 1.734376-8.71875l22.625-22.625c2.007812-2.078125 4.984374-2.914063 7.78125-2.179687 2.796874.730468 4.980468 2.914062 5.710937 5.710937.734375 2.796875-.101563 5.773437-2.179687 7.78125l-22.625 22.625c-1.5 1.5-3.535157 2.34375-5.65625 2.34375zm0 0"/><path d="m280.148438 367.984375c0-4.417969-3.582032-8-8-8h-44.6875l32.976562-32.96875c2.078125-2.007813 2.914062-4.980469 2.179688-7.78125-.730469-2.796875-2.914063-4.980469-5.710938-5.710937-2.800781-.734376-5.773438.101562-7.78125 2.179687l-45.265625 45.25c-.195313.253906-.375.519531-.535156.800781-1.980469 1.460938-3.15625 3.769532-3.175781 6.230469 0 4.417969 3.582031 8 8 8h44.6875l-40.976563 40.96875c-2.078125 2.007813-2.914063 4.980469-2.179687 7.777344.730468 2.800781 2.914062 4.984375 5.710937 5.714843 2.796875.734376 5.773437-.101562 7.78125-2.179687l53.265625-53.25c.195312-.253906.375-.519531.535156-.800781 1.980469-1.460938 3.15625-3.769532 3.175782-6.230469zm0 0"/><path d="m172.835938 483.296875c-3.234376 0-6.152344-1.949219-7.390626-4.9375-1.234374-2.992187-.550781-6.429687 1.734376-8.71875l22.625-22.625c2.007812-2.078125 4.984374-2.914063 7.78125-2.179687 2.796874.730468 4.980468 2.914062 5.710937 5.710937.734375 2.796875-.101563 5.773437-2.179687 7.78125l-22.625 22.625c-1.5 1.5-3.535157 2.34375-5.65625 2.34375zm0 0"/></g></svg>