<svg height="479pt" viewBox="-39 0 479 479.79563" width="479pt" xmlns="http://www.w3.org/2000/svg"><g fill="#9bc9ff"><path d="m296.398438 279.460938c-.089844-26.511719 21.324218-48.074219 47.835937-48.164063 26.507813-.09375 48.074219 21.324219 48.164063 47.835937-.398438-106.027343-86.636719-191.675781-192.664063-191.34375 53.039063-.183593 96.296875 85.671876 96.664063 191.671876zm0 0"/><path d="m199.734375 87.789062c-106.027344.386719-191.675781 86.628907-191.335937 192.65625-.089844-26.511718 21.324218-48.074218 47.835937-48.164062 26.507813-.09375 48.074219 21.324219 48.164063 47.835938-.367188-106 42.296874-192.144532 95.335937-192.328126zm0 0"/><path d="m248.230469 231.621094c26.5-.066406 48.054687 21.335937 48.167969 47.839844-.367188-106-43.625-191.855469-96.664063-191.671876-53.039063.183594-95.703125 86.328126-95.335937 192.328126-.089844-26.511719 21.324218-48.074219 47.835937-48.164063 26.507813-.09375 48.074219 21.324219 48.164063 47.835937-.09375-26.511718 21.320312-48.078124 47.832031-48.167968zm0 0"/></g><path d="m208.476562 79.996094v-24.207032c0-4.417968-3.578124-8-8-8-4.417968 0-8 3.582032-8 8v24.207032c-107.484374 4.367187-192.304687 92.890625-192.078124 200.464844 0 4.417968 3.582031 8 8 8 4.417968 0 8-3.582032 8-8-.070313-22.085938 17.769531-40.050782 39.855468-40.128907h.128906c22.023438.035157 39.890626 17.839844 40 39.863281 0 4.417969 3.582032 8 8 8 1.070313 0 2.128907-.21875 3.113282-.640624.222656-.09375.382812-.296876.605468-.414063.703126-.335937 1.351563-.777344 1.921876-1.304687.183593-.246094.355468-.496094.511718-.761719.476563-.535157.878906-1.136719 1.191406-1.78125.113282-.394531.191407-.796875.238282-1.203125.210937-.609375.339844-1.25.386718-1.894532-.003906-2.6875.261719-5.367187.796876-8 .128906-.640624.402343-1.238281.5625-1.871093.4375-1.90625 1.015624-3.777344 1.726562-5.601563.296875-.695312.738281-1.320312 1.074219-2.007812.753906-1.65625 1.621093-3.257813 2.589843-4.800782 1.171876-1.683593 2.472657-3.273437 3.890626-4.757812.679687-.746094 1.375-1.464844 2.109374-2.152344 2.78125-2.824218 6.074219-5.089844 9.703126-6.679687.65625-.320313 1.265624-.761719 1.945312-1.046875 1.820312-.726563 3.691406-1.316406 5.601562-1.761719.648438-.167969 1.253907-.449219 1.910157-.585937 2.632812-.535157 5.3125-.804688 8-.796876h.128906c22.027344.019532 39.898437 17.828126 40 39.855469l.664063 144c.144531 30.835938 25.164062 55.769531 56 55.808594h.222656c30.90625-.152344 55.863281-25.28125 55.800781-56.183594l-.054687-16c0-4.421875-3.582032-8-8-8-4.417969 0-8 3.578125-8 8l.054687 16c.03125 22.066407-17.789063 40.007813-39.855469 40.125h-.136718c-22.03125-.023437-39.902344-17.839843-40-39.871093l-.664063-144c-.042969-22.082032 17.789063-40.039063 39.871094-40.144532h.136719c10.566406-.019531 20.703124 4.164063 28.175781 11.632813 1.875 1.859375 3.5625 3.894531 5.039062 6.082031 1.007813 1.585938 1.902344 3.238281 2.671875 4.949219.3125.648437.746094 1.242187 1.027344 1.898437.648438 1.675782 1.183594 3.398438 1.597656 5.152344.207032.796875.542969 1.492188.703125 2.285156.210938 1.363282.347657 2.734375.417969 4.113282.121094 1.253906.375 2.480468.375 3.75 0 4.421874 3.582031 8 8 8 1.070312 0 2.128906-.21875 3.113281-.636719.308594-.179688.605469-.378907.886719-.601563 1.109375-.449218 2-1.308594 2.488281-2.398437.332031-.402344.621094-.835938.863281-1.296875.15625-.5.257813-1.015625.3125-1.535156.160157-.523438.265626-1.058594.3125-1.601563-.046874-22.085937 17.789063-40.042969 39.871094-40.144531h.136719c22.027344 0 39.90625 17.808594 40 39.832031 0 4.417969 3.582031 8 8 8s8-3.582031 8-8c-.441406-107.035156-84.996094-194.789063-191.945313-199.207031zm-152.09375 144.289062h-.183593c-12.597657.027344-24.808594 4.324219-34.648438 12.191406 15.855469-64.789062 65.417969-115.992187 129.65625-133.945312-10.753906 11.246094-19.644531 24.136719-26.335937 38.183594-15.039063 32.21875-24.117188 66.890625-26.792969 102.34375-10.578125-11.925782-25.753906-18.757813-41.695313-18.773438zm191.816407-.664062c-19.664063.078125-37.84375 10.46875-47.898438 27.367187-10.152343-16.757812-28.324219-27-47.917969-27.007812h-.183593c-1.824219 0-3.625.101562-5.417969.277343-.519531.050782-1.03125.152344-1.550781.226563-1.265625.160156-2.519531.320313-3.761719.566406-.605469.121094-1.207031.289063-1.804688.433594-1.128906.261719-2.257812.519531-3.363281.847656-.648437.199219-1.277343.441407-1.917969.65625-1.03125.351563-2.066406.703125-3.082031 1.113281-.65625.269532-1.285156.574219-1.933593.871094-.96875.429688-1.929688.871094-2.863282 1.367188-.65625.335937-1.28125.710937-1.921875 1.078125-.894531.523437-1.792969 1.042969-2.664062 1.601562-.632813.417969-1.246094.855469-1.863281 1.296875-.839844.597656-1.664063 1.207032-2.472657 1.847656-.601562.480469-1.183593.984376-1.769531 1.488282-.429688.375-.878906.703125-1.292969 1.085937 2.902344-31.515625 11.261719-62.292969 24.695313-90.949219 16.582031-33.449218 38.0625-51.921874 60.542968-52h.144532c40.855468 0 76.464844 61.824219 86 142.261719-.375-.335937-.800782-.632812-1.167969-.960937-.632813-.542969-1.265625-1.070313-1.914063-1.597656-.644531-.527344-1.511718-1.144532-2.285156-1.6875-.777344-.546876-1.359375-.960938-2.066406-1.410157-.703125-.445312-1.597656-.96875-2.398438-1.429687-.800781-.464844-1.441406-.800782-2.175781-1.210938-.734375-.40625-1.695312-.796875-2.550781-1.199218-.738281-.335938-1.472656-.679688-2.226562-.976563-.902344-.359375-1.824219-.664063-2.742188-.972656-.738281-.257813-1.472656-.523438-2.226562-.746094-.980469-.289063-1.980469-.511719-2.988282-.742187-.714844-.167969-1.410156-.363282-2.128906-.496094-1.144531-.226563-2.296875-.363282-3.457031-.511719-.601563-.074219-1.199219-.195313-1.808594-.25-1.765625-.167969-3.558594-.265625-5.367187-.265625zm96.207031-.328125h-.199219c-15.980469.078125-31.160156 7.003906-41.6875 19.023437-6-61.601562-26.175781-112.488281-53.992187-140.082031 64.277344 17.554687 114.113281 68.382813 130.398437 132.992187-9.832031-7.753906-21.996093-11.960937-34.519531-11.933593zm0 0" fill="#1e81ce"/><path d="m56.476562 111.789062c-22.078124-.027343-39.972656-17.921874-40-40 0-19.203124 27.832032-60.472656 33.417969-68.546874 1.570313-2.042969 4.003907-3.242188 6.582031-3.242188 2.582032 0 5.015626 1.199219 6.585938 3.242188 5.582031 8.074218 33.414062 49.34375 33.414062 68.546874-.023437 22.078126-17.917968 39.972657-40 40zm0-89.539062c-11.511718 18-24 40.800781-24 49.539062 0 13.253907 10.746094 24 24 24 13.257813 0 24-10.746093 24-24 0-8.753906-12.484374-31.546874-24-49.539062zm0 0" fill="#1e81ce"/></svg>