<svg height="479pt" viewBox="-40 0 479 479.976" width="479pt" xmlns="http://www.w3.org/2000/svg"><g fill="#9bc9ff"><path d="m296.488281 231.671875c-.089843-26.507813 21.328125-48.074219 47.835938-48.164063 26.511719-.089843 48.074219 21.328126 48.164062 47.835938-.398437-106.027344-86.636719-191.675781-192.664062-191.34375 53.039062-.183594 96.296875 85.671875 96.664062 191.671875zm0 0"/><path d="m199.824219 40c-106.027344.386719-191.675781 86.628906-191.335938 192.65625-.089843-26.511719 21.328125-48.074219 47.835938-48.164062 26.511719-.089844 48.074219 21.324218 48.164062 47.835937-.367187-106 42.296875-192.144531 95.335938-192.328125zm0 0"/><path d="m199.824219 40c-53.039063.183594-95.703125 86.328125-95.335938 192.328125-.089843-26.511719 21.328125-48.074219 47.835938-48.164063 26.511719-.089843 48.074219 21.328126 48.164062 47.835938-.089843-26.507812 21.328125-48.074219 47.835938-48.164062 26.511719-.089844 48.074219 21.328124 48.164062 47.835937-.367187-106-43.625-191.855469-96.664062-191.671875zm0 0"/></g><path d="m208.570312 32.207031v-24.207031c0-4.417969-3.582031-8-8-8-4.417968 0-8 3.582031-8 8v24.199219c-107.5 4.261719-192.367187 92.792969-192.082031 200.375v.113281c0 4.417969 3.582031 8 8 8s8-3.582031 8-8c-.050781-22.082031 17.78125-40.039062 39.863281-40.136719h.144532c22.027344.023438 39.898437 17.832031 40 39.855469 0 4.421875 3.582031 8 8 8 1.070312 0 2.128906-.21875 3.113281-.636719.234375-.140625.457031-.292969.671875-.457031 1.492188-.949219 2.71875-2.257812 3.566406-3.808594.128906-.441406.21875-.894531.273438-1.351562.183594-.566406.300781-1.152344.351562-1.746094-.074218-22.089844 17.773438-40.058594 39.863282-40.132812h.136718c2.671875 0 5.335938.265624 7.953125.796874.632813.128907 1.222657.402344 1.839844.554688 1.921875.445312 3.808594 1.027344 5.648437 1.75.679688.289062 1.292969.722656 1.957032 1.050781 1.65625.761719 3.261718 1.636719 4.800781 2.613281 1.1875.871094 2.328125 1.800782 3.417969 2.792969.847656.710938 1.773437 1.328125 2.558594 2.113281 1.824218 1.8125 3.46875 3.796876 4.914062 5.925782 1.074219 1.660156 2.023438 3.398437 2.839844 5.199218.261718.546876.621094 1.042969.863281 1.601563.75 1.878906 1.359375 3.8125 1.816406 5.785156.144531.574219.40625 1.117188.527344 1.710938.53125 2.632812.800781 5.3125.800781 8l.65625 192c.105469 30.851562 25.144532 55.808593 56 55.808593h.300782c30.914062-.140624 55.878906-25.277343 55.808593-56.191406l-.054687-16c0-4.417968-3.582032-8-8-8-4.417969 0-8 3.582032-8 8l.054687 16c.035157 22.074219-17.789062 40.019532-39.863281 40.136719-10.625.042969-20.828125-4.140625-28.363281-11.628906-7.535157-7.488281-11.785157-17.667969-11.804688-28.292969l-.65625-192c-.058593-22.085938 17.777344-40.046875 39.863281-40.144531.464844 0 .898438.113281 1.351563.121093 10.121094.257813 19.761719 4.371094 26.945313 11.503907.320312.320312.550781.703125.855468 1.03125 3.238282 3.28125 5.824219 7.148437 7.617188 11.390625 0 .082031.09375.160156.128906.242187.921875 2.203125 1.644531 4.484375 2.160156 6.816407.0625.246093.175782.480468.230469.734374.554687 2.632813.835937 5.3125.847656 8 0 4.417969 3.582031 8 8 8 1.070313-.003906 2.128907-.222656 3.113281-.640624.234376-.136719.457032-.289063.671876-.453126 1.492187-.949218 2.71875-2.257812 3.566406-3.808593.128906-.441407.21875-.894531.273437-1.351563.183594-.566406.300781-1.152344.351563-1.746094-.058594-22.085937 17.777344-40.046874 39.863281-40.144531h.144531c22.03125.023438 39.902344 17.835938 40 39.863281 0 4.421876 3.582032 8 8 8 4.417969 0 8-3.578124 8-8-.441406-107.019531-84.972656-194.769531-191.902344-199.207031zm-112.632812 160.59375c-10.457031-10.457031-24.652344-16.316406-39.441406-16.28125h-.199219c-12.628906.03125-24.871094 4.347657-34.726563 12.242188 15.714844-64.792969 65.25-116.015625 129.476563-133.890625-27.574219 27.800781-47.359375 78.730468-52.941406 140.328125-.738281-.800781-1.394531-1.65625-2.167969-2.398438zm145.597656-16.464843c-.589844.070312-1.175781.175781-1.757812.265624-1.769532.277344-3.519532.636719-5.242188 1.078126-.453125.121093-.910156.214843-1.359375.34375-4.320312 1.230468-8.476562 2.984374-12.375 5.222656-.34375.195312-.671875.402344-1.007812.601562-1.566407.945313-3.089844 1.96875-4.566407 3.074219-.394531.285156-.800781.566406-1.160156.863281-1.574218 1.234375-3.082031 2.546875-4.523437 3.933594-.140625.144531-.300781.273438-.445313.417969-.144531.144531-.207031.175781-.304687.269531-1.410157 1.457031-2.746094 2.984375-4 4.578125-.097657.128906-.214844.238281-.320313.367187-1.453125 1.851563-2.789062 3.792969-4 5.808594-1.230468-2.011718-2.589844-3.945312-4.0625-5.785156-1.359375-1.710938-2.8125-3.34375-4.363281-4.886719-.085937-.089843-.191406-.167969-.285156-.257812l-.351563-.328125c-1.464844-1.410156-3.003906-2.746094-4.609375-4-.382812-.292969-.800781-.566406-1.167969-.855469-1.472656-1.066406-2.988281-2.074219-4.550781-3.023437l-1.023437-.609376c-3.898438-2.203124-8.042969-3.925781-12.355469-5.132812-.445313-.128906-.910156-.226562-1.367187-.335938-1.714844-.433593-3.457032-.785156-5.214844-1.058593-.585938-.085938-1.167969-.183594-1.761719-.253907-2.242187-.285156-4.5-.4375-6.757813-.449218h-.191406c-2.242187.015625-4.476562.171875-6.699218.464844-.621094.078124-1.230469.175781-1.847657.273437-1.730469.269531-3.441406.621094-5.125 1.054687-.472656.121094-.945312.214844-1.410156.34375-2.046875.582032-4.058594 1.28125-6.023437 2.09375-.464844.195313-.902344.417969-1.359376.617188-1.550781.6875-3.066406 1.445312-4.535156 2.273438-.511718.28125-1.027344.558593-1.53125.863281-1.816406 1.074219-3.570312 2.253906-5.253906 3.527343l-.175781.144532c-1.253907.964844-2.46875 1.980468-3.640625 3.046875 8.871094-80.621094 44.160156-142.742188 85.046875-142.886719h.136719c40.855468 0 76.472656 61.824219 86 142.289062-.335938-.3125-.710938-.585937-1.0625-.882812-.679688-.582031-1.367188-1.160156-2.074219-1.71875-.703125-.558594-1.367188-1.015625-2.0625-1.511719-.695313-.496093-1.496094-1.054687-2.265625-1.550781-.765625-.496094-1.390625-.800781-2.085938-1.242188-.800781-.480468-1.664062-.96875-2.511718-1.40625-.625-.320312-1.273438-.601562-1.914063-.898437-.976563-.453125-1.941406-.917969-2.941406-1.308594-.410157-.167969-.839844-.296875-1.265625-.449219-5.785156-2.15625-11.898438-3.3125-18.070313-3.425781-.417969 0-.800781-.0625-1.25-.0625h-.191406c-2.273437.023438-4.539063.183594-6.792969.480469zm102.792969-.800782c-15.976563.078125-31.152344 7.007813-41.679687 19.023438-6-61.597656-26.183594-112.488282-54-140.078125 64.277343 17.554687 114.113281 68.378906 130.398437 132.992187-9.921875-7.753906-22.15625-11.964844-34.75-11.96875zm0 0" fill="#1e81ce"/></svg>