<svg height="480pt" viewBox="0 0 480 480.064" width="480pt" xmlns="http://www.w3.org/2000/svg"><path d="m56.03125 67.742188c-9.886719 5.761718-22.109375 5.761718-32 0v404.320312h32zm0 0" fill="#9bc9ff"/><path d="m408.03125 136.0625h-99.679688c-8.140624.019531-16.207031-1.527344-23.757812-4.558594l-25.683594-10.238281c-28.335937-11.367187-58.585937-17.207031-89.117187-17.203125h-17.761719c2.128906 0 4.210938.613281 6 1.761719 14.800781 8.398437 26 47.359375 26 94.238281 0 46.882812-11.199219 85.839844-26 94.320312-1.8125 1.089844-3.882812 1.671876-6 1.679688h17.761719c30.53125.003906 60.78125-5.832031 89.117187-17.199219l25.683594-10.238281c7.550781-3.03125 15.617188-4.582031 23.757812-4.5625h99.679688c35.347656 0 64-28.652344 64-64 0-35.34375-28.652344-64-64-64zm0 0" fill="#9bc9ff"/><path d="m408.03125 128.0625h-99.679688c-7.125.023438-14.191406-1.332031-20.800781-4l-25.664062-10.222656c-29.273438-11.773438-60.539063-17.808594-92.09375-17.777344h-17.097657l-88.664062-15.125v-8.9375c13.773438-10.332031 19.394531-28.316406 13.949219-44.648438-5.445313-16.335937-20.730469-27.351562-37.949219-27.351562-17.214844 0-32.503906 11.015625-37.945312 27.351562-5.445313 16.332032.171874 34.316407 13.945312 44.648438v400.0625c0 4.417969 3.582031 8 8 8h32c4.417969 0 8-3.582031 8-8v-153.597656l88.664062-14.402344h17.097657c31.546875.03125 62.808593-6.003906 92.078125-17.773438l25.714844-10.226562c6.609374-2.660156 13.671874-4.019531 20.796874-4h99.648438c39.765625 0 72-32.234375 72-72 0-39.761719-32.234375-72-72-72zm-254.015625 159.410156c-.59375.375-1.28125.578125-1.984375.589844-8.144531 0-24-31.0625-24-88 0-56.933594 15.855469-88 24-88 .742188.027344 1.453125.277344 2.046875.722656 10.5625 5.984375 21.953125 41.0625 21.953125 87.277344 0 46.21875-11.40625 81.328125-22.015625 87.410156zm-113.984375-271.410156c9.320312 0 17.796875 5.394531 21.742188 13.835938 3.949218 8.441406 2.652343 18.40625-3.324219 25.558593-5.976563 7.148438-15.554688 10.191407-24.5625 7.808594-2.050781-.542969-4.019531-1.351563-5.863281-2.402344-9.425782-5.425781-14.023438-16.507812-11.207032-27.011719 2.816406-10.503906 12.339844-17.804687 23.214844-17.789062zm8 448h-16v-384.796875c.296875.0625.601562 0 .890625.09375 2.34375.449219 4.722656.6875 7.109375.703125 2.386719-.023438 4.769531-.269531 7.113281-.726562.296875-.054688.597657 0 .886719-.097657zm16-366.902344 67.871094 11.582032c-13.09375 18.609374-19.871094 55.082031-19.871094 91.320312 0 36.242188 6.746094 72.53125 19.769531 91.203125l-67.769531 11.007813zm344 158.902344h-99.679688c-9.152343-.027344-18.226562 1.71875-26.71875 5.136719l-25.695312 10.242187c-25.914062 10.417969-53.507812 16.03125-81.433594 16.574219.113282-.191406.207032-.441406.320313-.640625 1.355469-2.328125 2.582031-4.734375 3.671875-7.199219.214844-.480469.414062-1 .625-1.496093.984375-2.320313 1.910156-4.75 2.773437-7.289063.203125-.574219.410157-1.132813.601563-1.726563.949218-2.917968 1.824218-5.953124 2.625-9.113281.183594-.695312.34375-1.40625.511718-2.109375.6875-2.832031 1.316407-5.734375 1.886719-8.707031.113281-.558594.234375-1.101563.335938-1.664063.613281-3.378906 1.148437-6.824218 1.601562-10.328124.109375-.796876.214844-1.644532.320313-2.476563.414062-3.261719.773437-6.539063 1.070312-9.839844 0-.378906.082032-.753906.113282-1.136719.304687-3.601562.527343-7.199218.695312-10.824218.039062-.863282.070312-1.722656.105469-2.585938.175781-3.613281.269531-7.238281.269531-10.816406 0-3.574219-.09375-7.199219-.230469-10.855469 0-.871093-.066406-1.734375-.105469-2.605469-.167968-3.609374-.390624-7.203124-.695312-10.824218 0-.394532-.078125-.800782-.113281-1.175782-.292969-3.296874-.664063-6.570312-1.070313-9.808593-.105468-.839844-.207031-1.664063-.320312-2.496094-.480469-3.496094-1.015625-6.945313-1.601563-10.3125-.101562-.585937-.222656-1.144531-.335937-1.71875-.570313-2.960937-1.195313-5.851563-1.878906-8.671875-.167969-.707031-.328126-1.417969-.503907-2.105469-.800781-3.148437-1.671875-6.175781-2.617187-9.089843-.191406-.605469-.40625-1.175782-.605469-1.757813-.863281-2.539063-1.785156-4.960937-2.761719-7.265625-.207031-.488281-.398437-1-.605468-1.472656-1.085938-2.4375-2.300782-4.820313-3.640626-7.125-.121093-.210938-.21875-.464844-.34375-.664063 27.898438.550781 55.460938 6.171875 81.351563 16.582031l25.597656 10.214844c8.515625 3.433594 17.617188 5.183594 26.800781 5.152344h99.679688c30.929688 0 56 25.074219 56 56 0 30.929688-25.070312 56-56 56zm0 0" fill="#1e81ce"/></svg>