<?xml version="1.0" encoding="UTF-8" standalone="yes"?>
<!-- Created with sK1/UniConvertor (http://sk1project.org/) -->
<svg xmlns="http://www.w3.org/2000/svg" xmlns:xlink="http://www.w3.org/1999/xlink"
  width="595.276pt" height="841.89pt" viewBox="0 0 595.276 841.89"
  fill-rule="evenodd">
<g>
<g>
<path style="stroke:none; fill:none" d="M 5 516.89L 325 516.89L 325 836.89L 5 836.89L 5 516.89z"/>
<g>
<path style="stroke:none; fill:none" d="M 5 516.89L 325 516.89L 325 836.89L 5 836.89L 5 516.89z"/>
<path style="stroke:none; fill:none" d="M 5 516.89L 325 516.89L 325 836.89L 5 836.89L 5 516.89z"/>
<path style="stroke:none; fill:none" d="M 5 516.89L 325 516.89L 325 836.89L 5 836.89L 5 516.89z"/>
<path style="stroke:none; fill:none" d="M 5 516.89L 325 516.89L 325 836.89L 5 836.89L 5 516.89z"/>
<path style="stroke:none; fill:none" d="M 5 516.89L 325 516.89L 325 836.89L 5 836.89L 5 516.89z"/>
<path style="stroke:none; fill:none" d="M 5 44.8898L 617 44.8898L 617 836.89L 5 836.89L 5 44.8898z"/>
<path style="stroke:none; fill:#9f0000" d="M 0 511.89L 330 511.89L 330 841.89L 0 841.89L 0 511.89z"/>
</g>
</g>
<g>
<path style="stroke:none; fill:none" d="M 5 516.89L 325 516.89L 325 836.89L 5 836.89L 5 516.89z"/>
<g>
<path style="stroke:none; fill:none" d="M 5 516.89L 325 516.89L 325 836.89L 5 836.89L 5 516.89z"/>
<path style="stroke:none; fill:none" d="M 5 516.89L 325 516.89L 325 836.89L 5 836.89L 5 516.89z"/>
<path style="stroke:none; fill:none" d="M 5 516.89L 325 516.89L 325 836.89L 5 836.89L 5 516.89z"/>
<path style="stroke:none; fill:none" d="M 5 516.89L 325 516.89L 325 836.89L 5 836.89L 5 516.89z"/>
<path style="stroke:none; fill:none" d="M 5 516.89L 325 516.89L 325 836.89L 5 836.89L 5 516.89z"/>
<path style="stroke:none; fill:none" d="M 5 44.8898L 617 44.8898L 617 836.89L 5 836.89L 5 44.8898z"/>
<path style="stroke:none; fill:#ffffff" d="M 5 516.89L 325 516.89L 325 836.89L 5 836.89L 5 516.89z"/>
</g>
</g>
<g>
<path style="stroke:none; fill:none" d="M 5 516.89L 326 516.89L 326 836.89L 5 836.89L 5 516.89z"/>
<g>
<path style="stroke:none; fill:none" d="M 5 516.89L 326 516.89L 326 836.89L 5 836.89L 5 516.89z"/>
<path style="stroke:none; fill:none" d="M 5 516.89L 326 516.89L 326 836.89L 5 836.89L 5 516.89z"/>
<path style="stroke:none; fill:none" d="M 5 516.89L 325 516.89L 325 836.89L 5 836.89L 5 516.89z"/>
<path style="stroke:none; fill:none" d="M 5 516.89L 326 516.89L 326 836.89L 5 836.89L 5 516.89z"/>
<path style="stroke:none; fill:none" d="M 5 516.89L 325 516.89L 325 836.89L 5 836.89L 5 516.89z"/>
<path style="stroke:none; fill:none" d="M 5 44.8898L 617 44.8898L 617 836.89L 5 836.89L 5 44.8898z"/>
<path style="stroke:none; fill:#900000" d="M 10 521.89L 320 521.89L 320 831.89L 10 831.89L 10 521.89z"/>
</g>
</g>
<path style="stroke:none; fill:#ffffff" d="M 87.8 688.69L 87.8 707.29C 87.8 729.69 76.6 742.49 55 742.49C 33.4 742.49 22.2 729.69 22.2 707.29L 22.2 634.49C 22.2 612.09 33.4 599.29 55 599.29C 76.6 599.29 87.8 612.09 87.8 634.49L 87.8 648.09L 67 648.09L 67 633.09C 67 623.09 62.6 619.29 55.6 619.29C 48.6 619.29 44.2 623.09 44.2 633.09L 44.2 708.69C 44.2 718.69 48.6 722.29 55.6 722.29C 62.6 722.29 67 718.69 67 708.69L 67 688.69L 87.8 688.69L 87.8 688.69z"/>
<path style="stroke:none; fill:#ffffff" d="M 167.2 740.89L 145 740.89L 141.2 715.49L 114.2 715.49L 110.4 740.89L 90.2 740.89L 112.6 600.89L 144.8 600.89L 167.2 740.89zM 117 696.49L 138.2 696.49L 127.6 625.69L 117 696.49z"/>
<path style="stroke:none; fill:#ffffff" d="M 202.8 599.29C 224.2 599.29 235.2 612.09 235.2 634.49L 235.2 638.89L 214.4 638.89L 214.4 633.09C 214.4 623.09 210.4 619.29 203.4 619.29C 196.4 619.29 192.4 623.09 192.4 633.09C 192.4 661.89 235.4 667.29 235.4 707.29C 235.4 729.69 224.2 742.49 202.6 742.49C 181 742.49 169.8 729.69 169.8 707.29L 169.8 698.69L 190.6 698.69L 190.6 708.69C 190.6 718.69 195 722.29 202 722.29C 209 722.29 213.4 718.69 213.4 708.69C 213.4 679.89 170.4 674.49 170.4 634.49C 170.4 612.09 181.4 599.29 202.8 599.29z"/>
<g>
<path style="stroke:none; fill:none" d="M 3 516.89L 324 516.89L 324 836.89L 3 836.89L 3 516.89z"/>
<path style="stroke:none; fill:#ffffff" d="M 21.8 754.89L 308 754.89L 308 774.89L 21.8 774.89L 21.8 754.89z"/>
</g>
<path style="stroke:none; fill:#ffffff" d="M 239.4 600.89L 307.4 600.89L 307.4 620.89L 284.4 620.89L 284.4 740.89L 262.4 740.89L 262.4 620.89L 239.4 620.89L 239.4 600.89z"/>
<path style="stroke:none; fill:#ffffff" d="M 37.3 793.59L 37.3 794.79C 37.3 798.19 36.3 800.29 34 801.39C 36.8 802.49 37.9 804.99 37.9 808.39L 37.9 811.09C 37.9 816.19 35.2 818.89 30 818.89L 21.9 818.89L 21.9 786.09L 29.7 786.09C 35 785.99 37.3 788.49 37.3 793.59zM 27 790.69L 27 799.39L 29 799.39C 30.9 799.39 32.1 798.59 32.1 795.89L 32.1 794.09C 32.1 791.69 31.3 790.69 29.5 790.69L 27 790.69L 27 790.69zM 27 804.09L 27 814.19L 30 814.19C 31.7 814.19 32.7 813.39 32.7 810.99L 32.7 808.09C 32.7 805.09 31.7 804.09 29.4 804.09L 27 804.09L 27 804.09z"/>
<path style="stroke:none; fill:#ffffff" d="M 50.7 818.89C 50.3 817.59 50.1 816.29 50.2 814.89L 50.2 809.69C 50.2 806.59 49.2 805.49 46.8 805.49L 45 805.49L 45 818.89L 39.8 818.89L 39.8 785.99L 47.6 785.99C 53 785.99 55.3 788.49 55.3 793.59L 55.3 796.19C 55.3 799.59 54.2 801.79 51.9 802.89C 54.5 803.99 55.3 806.49 55.3 809.89L 55.3 814.99C 55.2 816.39 55.4 817.69 55.9 818.99L 50.7 818.99C 50.7 818.99 50.7 818.89 50.7 818.89zM 45.1 790.69L 45.1 800.79L 47.1 800.79C 49 800.79 50.2 799.99 50.2 797.29L 50.2 794.09C 50.2 791.69 49.4 790.69 47.6 790.69L 45.1 790.69L 45.1 790.69z"/>
<path style="stroke:none; fill:#ffffff" d="M 57.4 793.89C 57.4 788.59 60.2 785.59 65.3 785.59C 70.4 785.59 73.2 788.59 73.2 793.89L 73.2 810.99C 73.2 816.29 70.4 819.29 65.3 819.29C 60.2 819.29 57.4 816.29 57.4 810.99L 57.4 793.89zM 62.6 811.29C 62.6 813.59 63.6 814.49 65.3 814.49C 67 814.49 68 813.59 68 811.29L 68 793.49C 68 791.09 67 790.29 65.3 790.29C 63.6 790.29 62.6 791.19 62.6 793.49L 62.6 811.29L 62.6 811.29z"/>
<path style="stroke:none; fill:#ffffff" d="M 92.2 818.89L 87 818.89L 86.1 812.89L 79.8 812.89L 78.9 818.89L 74.1 818.89L 79.4 785.99L 87 785.99L 92.2 818.89zM 80.4 808.49L 85.4 808.49L 82.9 791.89L 80.4 808.49z"/>
<path style="stroke:none; fill:#ffffff" d="M 93.6 785.99L 101.8 785.99C 107 785.99 109.5 788.89 109.5 794.09L 109.5 810.69C 109.5 815.99 107 818.79 101.8 818.79L 93.6 818.79L 93.6 785.99zM 98.7 790.69L 98.7 814.19L 101.6 814.19C 103.2 814.19 104.2 813.39 104.2 810.99L 104.2 793.89C 104.2 791.49 103.2 790.69 101.6 790.69L 98.7 790.69L 98.7 790.69z"/>
<path style="stroke:none; fill:#ffffff" d="M 126.8 806.59L 126.8 810.99C 126.8 816.29 124.2 819.29 119.1 819.29C 114 819.29 111.4 816.29 111.4 810.99L 111.4 793.89C 111.4 788.59 114 785.59 119.1 785.59C 124.2 785.59 126.8 788.59 126.8 793.89L 126.8 797.09L 121.9 797.09L 121.9 793.59C 121.9 791.19 120.9 790.39 119.2 790.39C 117.5 790.39 116.5 791.29 116.5 793.59L 116.5 811.39C 116.5 813.69 117.5 814.59 119.2 814.59C 120.9 814.59 121.9 813.79 121.9 811.39L 121.9 806.69L 126.8 806.59L 126.8 806.59z"/>
<path style="stroke:none; fill:#ffffff" d="M 145.6 818.89L 140.4 818.89L 139.5 812.89L 133.2 812.89L 132.3 818.89L 127.5 818.89L 132.8 785.99L 140.4 785.99L 145.6 818.89zM 133.8 808.49L 138.8 808.49L 136.3 791.89L 133.8 808.49z"/>
<path style="stroke:none; fill:#ffffff" d="M 154 785.59C 159 785.59 161.6 788.59 161.6 793.89L 161.6 794.89L 156.7 794.89L 156.7 793.49C 156.7 791.09 155.8 790.29 154.1 790.29C 152.4 790.29 151.5 791.19 151.5 793.49C 151.5 800.29 161.6 801.49 161.6 810.89C 161.6 816.19 159 819.19 153.9 819.19C 148.8 819.19 146.2 816.19 146.2 810.89L 146.2 808.89L 151.1 808.89L 151.1 811.19C 151.1 813.49 152.1 814.39 153.8 814.39C 155.5 814.39 156.5 813.59 156.5 811.19C 156.5 804.39 146.4 803.19 146.4 793.79C 146.4 788.59 149 785.59 154 785.59z"/>
<path style="stroke:none; fill:#ffffff" d="M 162.1 785.99L 178.1 785.99L 178.1 790.69L 172.7 790.69L 172.7 818.89L 167.5 818.89L 167.5 790.69L 162.1 790.69L 162.1 785.99L 162.1 785.99z"/>
<path style="stroke:none; fill:#ffffff" d="M 192.6 785.59C 197.6 785.59 200.2 788.59 200.2 793.89L 200.2 794.89L 195.3 794.89L 195.3 793.49C 195.3 791.09 194.4 790.29 192.7 790.29C 191 790.29 190.1 791.19 190.1 793.49C 190.1 800.29 200.2 801.49 200.2 810.89C 200.2 816.19 197.6 819.19 192.5 819.19C 187.4 819.19 184.8 816.19 184.8 810.89L 184.8 808.89L 189.7 808.89L 189.7 811.19C 189.7 813.49 190.7 814.39 192.4 814.39C 194.1 814.39 195.1 813.59 195.1 811.19C 195.1 804.39 185 803.19 185 793.79C 185 788.59 187.6 785.59 192.6 785.59z"/>
<path style="stroke:none; fill:#ffffff" d="M 207.1 807.99L 200.6 785.99L 206 785.99L 210 800.99L 214 785.99L 218.9 785.99L 212.4 807.99L 212.4 818.89L 207.2 818.89L 207.1 807.99L 207.1 807.99z"/>
<path style="stroke:none; fill:#ffffff" d="M 226.9 785.59C 231.9 785.59 234.5 788.59 234.5 793.89L 234.5 794.89L 229.6 794.89L 229.6 793.49C 229.6 791.09 228.7 790.29 227 790.29C 225.3 790.29 224.4 791.19 224.4 793.49C 224.4 800.29 234.5 801.49 234.5 810.89C 234.5 816.19 231.9 819.19 226.8 819.19C 221.7 819.19 219.1 816.19 219.1 810.89L 219.1 808.89L 224 808.89L 224 811.19C 224 813.49 225 814.39 226.7 814.39C 228.4 814.39 229.4 813.59 229.4 811.19C 229.4 804.39 219.3 803.19 219.3 793.79C 219.2 788.59 221.8 785.59 226.9 785.59z"/>
<path style="stroke:none; fill:#ffffff" d="M 235 785.99L 251 785.99L 251 790.69L 245.6 790.69L 245.6 818.89L 240.4 818.89L 240.4 790.69L 235 790.69L 235 785.99L 235 785.99z"/>
<path style="stroke:none; fill:#ffffff" d="M 257.4 799.89L 264.5 799.89L 264.5 804.59L 257.4 804.59L 257.4 814.19L 266.3 814.19L 266.3 818.89L 252.2 818.89L 252.2 785.99L 266.3 785.99L 266.3 790.69L 257.4 790.69L 257.4 799.89z"/>
<path style="stroke:none; fill:#ffffff" d="M 279.5 809.39L 283 785.99L 290.2 785.99L 290.2 818.89L 285.3 818.89L 285.3 795.29L 281.8 818.89L 276.9 818.89L 273 795.59L 273 818.89L 268.5 818.89L 268.5 785.99L 275.7 785.99L 279.5 809.39z"/>
<path style="stroke:none; fill:#ffffff" d="M 300.5 785.59C 305.5 785.59 308.1 788.59 308.1 793.89L 308.1 794.89L 303.2 794.89L 303.2 793.49C 303.2 791.09 302.3 790.29 300.6 790.29C 298.9 790.29 298 791.19 298 793.49C 298 800.29 308.1 801.49 308.1 810.89C 308.1 816.19 305.5 819.19 300.4 819.19C 295.3 819.19 292.7 816.19 292.7 810.89L 292.7 808.89L 297.6 808.89L 297.6 811.19C 297.6 813.49 298.6 814.39 300.3 814.39C 302 814.39 303 813.59 303 811.19C 303 804.39 292.9 803.19 292.9 793.79C 292.8 788.59 295.4 785.59 300.5 785.59z"/>
<path style="stroke:none; fill:#ffffff" d="M 30 558.49L 41.3 558.49L 41.3 565.99L 30 565.99L 30 581.39L 44.2 581.39L 44.2 588.89L 21.8 588.89L 21.8 536.39L 44.3 536.39L 44.3 543.89L 30 543.89L 30 558.49L 30 558.49z"/>
<path style="stroke:none; fill:#ffffff" d="M 89.9 536.39L 81.2 561.89L 90.4 588.89L 81.7 588.89L 75 568.09L 68.2 588.89L 60.5 588.89L 69.7 561.89L 61.1 536.39L 69.7 536.39L 75.9 555.79L 82.3 536.39L 89.9 536.39L 89.9 536.39z"/>
<path style="stroke:none; fill:#ffffff" d="M 105.2 536.39L 130.7 536.39L 130.7 543.89L 122 543.89L 122 588.89L 113.8 588.89L 113.8 543.89L 105.2 543.89L 105.2 536.39L 105.2 536.39z"/>
<path style="stroke:none; fill:#ffffff" d="M 164.5 588.89C 164 587.49 163.7 586.69 163.7 582.39L 163.7 574.19C 163.7 569.29 162.1 567.49 158.3 567.49L 155.4 567.49L 155.4 588.89L 147.2 588.89L 147.2 536.39L 159.7 536.39C 168.2 536.39 171.9 540.39 171.9 548.49L 171.9 552.59C 171.9 557.99 170.2 561.49 166.5 563.19C 170.6 564.89 172 568.89 172 574.39L 172 582.49C 171.9 584.69 172.2 586.79 172.9 588.89L 164.5 588.89L 164.5 588.89zM 155.5 543.89L 155.5 559.99L 158.7 559.99C 161.8 559.99 163.7 558.59 163.7 554.49L 163.7 549.29C 163.7 545.49 162.4 543.89 159.5 543.89L 155.5 543.89L 155.5 543.89z"/>
<path style="stroke:none; fill:#ffffff" d="M 198.6 558.49L 209.9 558.49L 209.9 565.99L 198.6 565.99L 198.6 581.39L 212.8 581.39L 212.8 588.89L 190.3 588.89L 190.3 536.39L 212.8 536.39L 212.8 543.89L 198.6 543.89L 198.6 558.49L 198.6 558.49z"/>
<path style="stroke:none; fill:#ffffff" d="M 248.4 573.69L 254 536.39L 265.5 536.39L 265.5 588.89L 257.7 588.89L 257.7 551.29L 252 588.89L 244.2 588.89L 238.1 551.79L 238.1 588.89L 230.9 588.89L 230.9 536.39L 242.4 536.39L 248.4 573.69z"/>
<path style="stroke:none; fill:#ffffff" d="M 292.7 558.49L 304 558.49L 304 565.99L 292.7 565.99L 292.7 581.39L 307 581.39L 307 588.89L 284.5 588.89L 284.5 536.39L 307 536.39L 307 543.89L 292.7 543.89L 292.7 558.49L 292.7 558.49z"/>
</g>
</svg>