<?xml version="1.0" encoding="utf-8"?>
<!-- Generator: Adobe Illustrator 22.1.0, SVG Export Plug-In . SVG Version: 6.00 Build 0)  -->
<svg version="1.1" id="Layer_1" xmlns="http://www.w3.org/2000/svg" xmlns:xlink="http://www.w3.org/1999/xlink" x="0px" y="0px"
	 viewBox="0 0 330 330" style="enable-background:new 0 0 330 330;" xml:space="preserve">
<style type="text/css">
	.st0{display:none;fill:#900000;}
	.st1{fill:#FFFFFF;}
	.st2{clip-path:url(#SVGID_2_);}
</style>
<rect x="10" y="10" class="st0" width="310" height="310"/>
<path class="st1" d="M87.8,176.8v18.6c0,22.4-11.2,35.2-32.8,35.2s-32.8-12.8-32.8-35.2v-72.8c0-22.4,11.2-35.2,32.8-35.2
	s32.8,12.8,32.8,35.2v13.6H67v-15c0-10-4.4-13.8-11.4-13.8s-11.4,3.8-11.4,13.8v75.6c0,10,4.4,13.6,11.4,13.6S67,206.8,67,196.8v-20
	H87.8L87.8,176.8z"/>
<path class="st1" d="M167.2,229H145l-3.8-25.4h-27l-3.8,25.4H90.2l22.4-140h32.2L167.2,229z M117,184.6h21.2l-10.6-70.8L117,184.6z"
	/>
<path class="st1" d="M202.8,87.4c21.4,0,32.4,12.8,32.4,35.2v4.4h-20.8v-5.8c0-10-4-13.8-11-13.8s-11,3.8-11,13.8
	c0,28.8,43,34.2,43,74.2c0,22.4-11.2,35.2-32.8,35.2s-32.8-12.8-32.8-35.2v-8.6h20.8v10c0,10,4.4,13.6,11.4,13.6s11.4-3.6,11.4-13.6
	c0-28.8-43-34.2-43-74.2C170.4,100.2,181.4,87.4,202.8,87.4z"/>
<g>
	<g>
		<g>
			<g>
				<defs>
					<rect id="SVGID_1_" x="3" y="5" width="321" height="320"/>
				</defs>
				<clipPath id="SVGID_2_">
					<use xlink:href="#SVGID_1_"  style="overflow:visible;"/>
				</clipPath>
				<g class="st2">
					<rect x="21.8" y="243" class="st1" width="286.2" height="20"/>
				</g>
			</g>
		</g>
	</g>
</g>
<polygon class="st1" points="239.4,89 307.4,89 307.4,109 284.4,109 284.4,229 262.4,229 262.4,109 239.4,109 "/>
<path class="st1" d="M37.3,281.7v1.2c0,3.4-1,5.5-3.3,6.6c2.8,1.1,3.9,3.6,3.9,7v2.7c0,5.1-2.7,7.8-7.9,7.8h-8.1v-32.8h7.8
	C35,274.1,37.3,276.6,37.3,281.7z M27,278.8v8.7h2c1.9,0,3.1-0.8,3.1-3.5v-1.8c0-2.4-0.8-3.4-2.6-3.4H27L27,278.8z M27,292.2v10.1h3
	c1.7,0,2.7-0.8,2.7-3.2v-2.9c0-3-1-4-3.3-4H27L27,292.2z"/>
<path class="st1" d="M50.7,307c-0.4-1.3-0.6-2.6-0.5-4v-5.2c0-3.1-1-4.2-3.4-4.2H45V307h-5.2v-32.9h7.8c5.4,0,7.7,2.5,7.7,7.6v2.6
	c0,3.4-1.1,5.6-3.4,6.7c2.6,1.1,3.4,3.6,3.4,7v5.1c-0.1,1.4,0.1,2.7,0.6,4h-5.2V307z M45.1,278.8v10.1h2c1.9,0,3.1-0.8,3.1-3.5v-3.2
	c0-2.4-0.8-3.4-2.6-3.4H45.1L45.1,278.8z"/>
<path class="st1" d="M57.4,282c0-5.3,2.8-8.3,7.9-8.3s7.9,3,7.9,8.3v17.1c0,5.3-2.8,8.3-7.9,8.3s-7.9-3-7.9-8.3V282z M62.6,299.4
	c0,2.3,1,3.2,2.7,3.2c1.7,0,2.7-0.9,2.7-3.2v-17.8c0-2.4-1-3.2-2.7-3.2c-1.7,0-2.7,0.9-2.7,3.2V299.4L62.6,299.4z"/>
<path class="st1" d="M92.2,307H87l-0.9-6h-6.3l-0.9,6h-4.8l5.3-32.9H87L92.2,307z M80.4,296.6h5L82.9,280L80.4,296.6z"/>
<path class="st1" d="M93.6,274.1h8.2c5.2,0,7.7,2.9,7.7,8.1v16.6c0,5.3-2.5,8.1-7.7,8.1h-8.2V274.1z M98.7,278.8v23.5h2.9
	c1.6,0,2.6-0.8,2.6-3.2V282c0-2.4-1-3.2-2.6-3.2H98.7L98.7,278.8z"/>
<path class="st1" d="M126.8,294.7v4.4c0,5.3-2.6,8.3-7.7,8.3s-7.7-3-7.7-8.3V282c0-5.3,2.6-8.3,7.7-8.3s7.7,3,7.7,8.3v3.2h-4.9v-3.5
	c0-2.4-1-3.2-2.7-3.2c-1.7,0-2.7,0.9-2.7,3.2v17.8c0,2.3,1,3.2,2.7,3.2c1.7,0,2.7-0.8,2.7-3.2v-4.7L126.8,294.7L126.8,294.7z"/>
<path class="st1" d="M145.6,307h-5.2l-0.9-6h-6.3l-0.9,6h-4.8l5.3-32.9h7.6L145.6,307z M133.8,296.6h5l-2.5-16.6L133.8,296.6z"/>
<path class="st1" d="M154,273.7c5,0,7.6,3,7.6,8.3v1h-4.9v-1.4c0-2.4-0.9-3.2-2.6-3.2c-1.7,0-2.6,0.9-2.6,3.2
	c0,6.8,10.1,8,10.1,17.4c0,5.3-2.6,8.3-7.7,8.3c-5.1,0-7.7-3-7.7-8.3v-2h4.9v2.3c0,2.3,1,3.2,2.7,3.2s2.7-0.8,2.7-3.2
	c0-6.8-10.1-8-10.1-17.4C146.4,276.7,149,273.7,154,273.7z"/>
<polygon class="st1" points="162.1,274.1 178.1,274.1 178.1,278.8 172.7,278.8 172.7,307 167.5,307 167.5,278.8 162.1,278.8 
	162.1,274.1 "/>
<path class="st1" d="M192.6,273.7c5,0,7.6,3,7.6,8.3v1h-4.9v-1.4c0-2.4-0.9-3.2-2.6-3.2s-2.6,0.9-2.6,3.2c0,6.8,10.1,8,10.1,17.4
	c0,5.3-2.6,8.3-7.7,8.3s-7.7-3-7.7-8.3v-2h4.9v2.3c0,2.3,1,3.2,2.7,3.2c1.7,0,2.7-0.8,2.7-3.2c0-6.8-10.1-8-10.1-17.4
	C185,276.7,187.6,273.7,192.6,273.7z"/>
<polygon class="st1" points="207.1,296.1 200.6,274.1 206,274.1 210,289.1 214,274.1 218.9,274.1 212.4,296.1 212.4,307 207.2,307 
	207.1,296.1 "/>
<path class="st1" d="M226.9,273.7c5,0,7.6,3,7.6,8.3v1h-4.9v-1.4c0-2.4-0.9-3.2-2.6-3.2s-2.6,0.9-2.6,3.2c0,6.8,10.1,8,10.1,17.4
	c0,5.3-2.6,8.3-7.7,8.3c-5.1,0-7.7-3-7.7-8.3v-2h4.9v2.3c0,2.3,1,3.2,2.7,3.2s2.7-0.8,2.7-3.2c0-6.8-10.1-8-10.1-17.4
	C219.2,276.7,221.8,273.7,226.9,273.7z"/>
<polygon class="st1" points="235,274.1 251,274.1 251,278.8 245.6,278.8 245.6,307 240.4,307 240.4,278.8 235,278.8 235,274.1 "/>
<polygon class="st1" points="257.4,288 264.5,288 264.5,292.7 257.4,292.7 257.4,302.3 266.3,302.3 266.3,307 252.2,307 
	252.2,274.1 266.3,274.1 266.3,278.8 257.4,278.8 "/>
<polygon class="st1" points="279.5,297.5 283,274.1 290.2,274.1 290.2,307 285.3,307 285.3,283.4 281.8,307 276.9,307 273,283.7 
	273,307 268.5,307 268.5,274.1 275.7,274.1 "/>
<path class="st1" d="M300.5,273.7c5,0,7.6,3,7.6,8.3v1h-4.9v-1.4c0-2.4-0.9-3.2-2.6-3.2c-1.7,0-2.6,0.9-2.6,3.2
	c0,6.8,10.1,8,10.1,17.4c0,5.3-2.6,8.3-7.7,8.3s-7.7-3-7.7-8.3v-2h4.9v2.3c0,2.3,1,3.2,2.7,3.2c1.7,0,2.7-0.8,2.7-3.2
	c0-6.8-10.1-8-10.1-17.4C292.8,276.7,295.4,273.7,300.5,273.7z"/>
<polygon class="st1" points="30,46.6 41.3,46.6 41.3,54.1 30,54.1 30,69.5 44.2,69.5 44.2,77 21.8,77 21.8,24.5 44.3,24.5 44.3,32 
	30,32 30,46.6 "/>
<polygon class="st1" points="89.9,24.5 81.2,50 90.4,77 81.7,77 75,56.2 68.2,77 60.5,77 69.7,50 61.1,24.5 69.7,24.5 75.9,43.9 
	82.3,24.5 89.9,24.5 "/>
<polygon class="st1" points="105.2,24.5 130.7,24.5 130.7,32 122,32 122,77 113.8,77 113.8,32 105.2,32 105.2,24.5 "/>
<path class="st1" d="M164.5,77c-0.5-1.4-0.8-2.2-0.8-6.5v-8.2c0-4.9-1.6-6.7-5.4-6.7h-2.9V77h-8.2V24.5h12.5c8.5,0,12.2,4,12.2,12.1
	v4.1c0,5.4-1.7,8.9-5.4,10.6c4.1,1.7,5.5,5.7,5.5,11.2v8.1c-0.1,2.2,0.2,4.3,0.9,6.4H164.5L164.5,77z M155.5,32v16.1h3.2
	c3.1,0,5-1.4,5-5.5v-5.2c0-3.8-1.3-5.4-4.2-5.4H155.5L155.5,32z"/>
<polygon class="st1" points="198.6,46.6 209.9,46.6 209.9,54.1 198.6,54.1 198.6,69.5 212.8,69.5 212.8,77 190.3,77 190.3,24.5 
	212.8,24.5 212.8,32 198.6,32 198.6,46.6 "/>
<polygon class="st1" points="248.4,61.8 254,24.5 265.5,24.5 265.5,77 257.7,77 257.7,39.4 252,77 244.2,77 238.1,39.9 238.1,77 
	230.9,77 230.9,24.5 242.4,24.5 "/>
<polygon class="st1" points="292.7,46.6 304,46.6 304,54.1 292.7,54.1 292.7,69.5 307,69.5 307,77 284.5,77 284.5,24.5 307,24.5 
	307,32 292.7,32 292.7,46.6 "/>
</svg>
