<?xml version="1.0" encoding="utf-8"?>
<!-- Generator: Adobe Illustrator 20.0.0, SVG Export Plug-In . SVG Version: 6.00 Build 0)  -->
<svg version="1.1" id="Layer_1" xmlns="http://www.w3.org/2000/svg" xmlns:xlink="http://www.w3.org/1999/xlink" x="0px" y="0px"
	 viewBox="0 0 330 330" style="enable-background:new 0 0 330 330;" xml:space="preserve">
<style type="text/css">
	.st0{clip-path:url(#SVGID_7_);}
	.st1{clip-path:url(#SVGID_12_);}
	.st2{clip-path:url(#SVGID_13_);}
	.st3{clip-path:url(#SVGID_14_);}
	.st4{fill:#A00000;}
	.st5{clip-path:url(#SVGID_21_);}
	.st6{clip-path:url(#SVGID_26_);}
	.st7{clip-path:url(#SVGID_27_);}
	.st8{clip-path:url(#SVGID_28_);}
	.st9{fill:#FFFFFF;}
	.st10{clip-path:url(#SVGID_35_);}
	.st11{clip-path:url(#SVGID_40_);}
	.st12{clip-path:url(#SVGID_41_);}
	.st13{clip-path:url(#SVGID_42_);}
	.st14{fill:#900000;}
	.st15{clip-path:url(#SVGID_44_);}
</style>
<title>ex-cast-logo</title>
<g>
	<g>
		<g>
			<defs>
				<rect id="SVGID_1_" x="5" y="5" width="320" height="320"/>
			</defs>
			<clipPath id="SVGID_2_">
				<use xlink:href="#SVGID_1_"  style="overflow:visible;"/>
			</clipPath>
		</g>
	</g>
	<g>
		<g>
			<defs>
				<rect id="SVGID_3_" x="5" y="5" width="320" height="320"/>
			</defs>
			<clipPath id="SVGID_4_">
				<use xlink:href="#SVGID_3_"  style="overflow:visible;"/>
			</clipPath>
		</g>
		<g>
			<defs>
				<rect id="SVGID_5_" x="5" y="5" width="320" height="320"/>
			</defs>
			<defs>
				<rect id="SVGID_6_" x="5" y="5" width="320" height="320"/>
			</defs>
			<clipPath id="SVGID_7_">
				<use xlink:href="#SVGID_5_"  style="overflow:visible;"/>
			</clipPath>
			<clipPath id="SVGID_8_" class="st0">
				<use xlink:href="#SVGID_6_"  style="overflow:visible;"/>
			</clipPath>
		</g>
		<g>
			<defs>
				<rect id="SVGID_9_" x="5" y="5" width="320" height="320"/>
			</defs>
			<defs>
				<rect id="SVGID_10_" x="5" y="5" width="320" height="320"/>
			</defs>
			<defs>
				<rect id="SVGID_11_" x="5" y="-467" width="612" height="792"/>
			</defs>
			<clipPath id="SVGID_12_">
				<use xlink:href="#SVGID_9_"  style="overflow:visible;"/>
			</clipPath>
			<clipPath id="SVGID_13_" class="st1">
				<use xlink:href="#SVGID_10_"  style="overflow:visible;"/>
			</clipPath>
			<clipPath id="SVGID_14_" class="st2">
				<use xlink:href="#SVGID_11_"  style="overflow:visible;"/>
			</clipPath>
			<g class="st3">
				<rect class="st4" width="330" height="330"/>
			</g>
		</g>
	</g>
</g>
<g>
	<g>
		<g>
			<defs>
				<rect id="SVGID_15_" x="5" y="5" width="320" height="320"/>
			</defs>
			<clipPath id="SVGID_16_">
				<use xlink:href="#SVGID_15_"  style="overflow:visible;"/>
			</clipPath>
		</g>
	</g>
	<g>
		<g>
			<defs>
				<rect id="SVGID_17_" x="5" y="5" width="320" height="320"/>
			</defs>
			<clipPath id="SVGID_18_">
				<use xlink:href="#SVGID_17_"  style="overflow:visible;"/>
			</clipPath>
		</g>
		<g>
			<defs>
				<rect id="SVGID_19_" x="5" y="5" width="320" height="320"/>
			</defs>
			<defs>
				<rect id="SVGID_20_" x="5" y="5" width="320" height="320"/>
			</defs>
			<clipPath id="SVGID_21_">
				<use xlink:href="#SVGID_19_"  style="overflow:visible;"/>
			</clipPath>
			<clipPath id="SVGID_22_" class="st5">
				<use xlink:href="#SVGID_20_"  style="overflow:visible;"/>
			</clipPath>
		</g>
		<g>
			<defs>
				<rect id="SVGID_23_" x="5" y="5" width="320" height="320"/>
			</defs>
			<defs>
				<rect id="SVGID_24_" x="5" y="5" width="320" height="320"/>
			</defs>
			<defs>
				<rect id="SVGID_25_" x="5" y="-467" width="612" height="792"/>
			</defs>
			<clipPath id="SVGID_26_">
				<use xlink:href="#SVGID_23_"  style="overflow:visible;"/>
			</clipPath>
			<clipPath id="SVGID_27_" class="st6">
				<use xlink:href="#SVGID_24_"  style="overflow:visible;"/>
			</clipPath>
			<clipPath id="SVGID_28_" class="st7">
				<use xlink:href="#SVGID_25_"  style="overflow:visible;"/>
			</clipPath>
			<g class="st8">
				<rect x="5" y="5" class="st9" width="320" height="320"/>
			</g>
		</g>
	</g>
</g>
<g>
	<g>
		<g>
			<defs>
				<rect id="SVGID_29_" x="5" y="5" width="321" height="320"/>
			</defs>
			<clipPath id="SVGID_30_">
				<use xlink:href="#SVGID_29_"  style="overflow:visible;"/>
			</clipPath>
		</g>
	</g>
	<g>
		<g>
			<defs>
				<rect id="SVGID_31_" x="5" y="5" width="321" height="320"/>
			</defs>
			<clipPath id="SVGID_32_">
				<use xlink:href="#SVGID_31_"  style="overflow:visible;"/>
			</clipPath>
		</g>
		<g>
			<defs>
				<rect id="SVGID_33_" x="5" y="5" width="321" height="320"/>
			</defs>
			<defs>
				<rect id="SVGID_34_" x="5" y="5" width="320" height="320"/>
			</defs>
			<clipPath id="SVGID_35_">
				<use xlink:href="#SVGID_33_"  style="overflow:visible;"/>
			</clipPath>
			<clipPath id="SVGID_36_" class="st10">
				<use xlink:href="#SVGID_34_"  style="overflow:visible;"/>
			</clipPath>
		</g>
		<g>
			<defs>
				<rect id="SVGID_37_" x="5" y="5" width="321" height="320"/>
			</defs>
			<defs>
				<rect id="SVGID_38_" x="5" y="5" width="320" height="320"/>
			</defs>
			<defs>
				<rect id="SVGID_39_" x="5" y="-467" width="612" height="792"/>
			</defs>
			<clipPath id="SVGID_40_">
				<use xlink:href="#SVGID_37_"  style="overflow:visible;"/>
			</clipPath>
			<clipPath id="SVGID_41_" class="st11">
				<use xlink:href="#SVGID_38_"  style="overflow:visible;"/>
			</clipPath>
			<clipPath id="SVGID_42_" class="st12">
				<use xlink:href="#SVGID_39_"  style="overflow:visible;"/>
			</clipPath>
			<g class="st13">
				<rect x="10" y="10" class="st14" width="310" height="310"/>
			</g>
		</g>
	</g>
</g>
<path class="st9" d="M87.8,176.8v18.6c0,22.4-11.2,35.2-32.8,35.2s-32.8-12.8-32.8-35.2v-72.8c0-22.4,11.2-35.2,32.8-35.2
	s32.8,12.8,32.8,35.2v13.6H67v-15c0-10-4.4-13.8-11.4-13.8s-11.4,3.8-11.4,13.8v75.6c0,10,4.4,13.6,11.4,13.6S67,206.8,67,196.8v-20
	H87.8L87.8,176.8z"/>
<path class="st9" d="M167.2,229H145l-3.8-25.4h-27l-3.8,25.4H90.2l22.4-140h32.2L167.2,229z M117,184.6h21.2l-10.6-70.8L117,184.6z"
	/>
<path class="st9" d="M202.8,87.4c21.4,0,32.4,12.8,32.4,35.2v4.4h-20.8v-5.8c0-10-4-13.8-11-13.8s-11,3.8-11,13.8
	c0,28.8,43,34.2,43,74.2c0,22.4-11.2,35.2-32.8,35.2s-32.8-12.8-32.8-35.2v-8.6h20.8v10c0,10,4.4,13.6,11.4,13.6s11.4-3.6,11.4-13.6
	c0-28.8-43-34.2-43-74.2C170.4,100.2,181.4,87.4,202.8,87.4z"/>
<g>
	<g>
		<g>
			<defs>
				<rect id="SVGID_43_" x="3" y="5" width="321" height="320"/>
			</defs>
			<clipPath id="SVGID_44_">
				<use xlink:href="#SVGID_43_"  style="overflow:visible;"/>
			</clipPath>
			<g class="st15">
				<rect x="21.8" y="243" class="st9" width="286.2" height="20"/>
			</g>
		</g>
	</g>
</g>
<path class="st9" d="M239.4,89h68v20h-23v120h-22V109h-23V89z"/>
<path class="st9" d="M37.3,281.7v1.2c0,3.4-1,5.5-3.3,6.6c2.8,1.1,3.9,3.6,3.9,7v2.7c0,5.1-2.7,7.8-7.9,7.8h-8.1v-32.8h7.8
	C35,274.1,37.3,276.6,37.3,281.7z M27,278.8v8.7h2c1.9,0,3.1-0.8,3.1-3.5v-1.8c0-2.4-0.8-3.4-2.6-3.4L27,278.8L27,278.8z M27,292.2
	v10.1h3c1.7,0,2.7-0.8,2.7-3.2v-2.9c0-3-1-4-3.3-4H27L27,292.2z"/>
<path class="st9" d="M50.7,307c-0.4-1.3-0.6-2.6-0.5-4v-5.2c0-3.1-1-4.2-3.4-4.2H45V307h-5.2v-32.9h7.8c5.4,0,7.7,2.5,7.7,7.6v2.6
	c0,3.4-1.1,5.6-3.4,6.7c2.6,1.1,3.4,3.6,3.4,7v5.1c-0.1,1.4,0.1,2.7,0.6,4h-5.2C50.7,307.1,50.7,307,50.7,307z M45.1,278.8v10.1h2
	c1.9,0,3.1-0.8,3.1-3.5v-3.2c0-2.4-0.8-3.4-2.6-3.4H45.1L45.1,278.8z"/>
<path class="st9" d="M57.4,282c0-5.3,2.8-8.3,7.9-8.3s7.9,3,7.9,8.3v17.1c0,5.3-2.8,8.3-7.9,8.3s-7.9-3-7.9-8.3V282z M62.6,299.4
	c0,2.3,1,3.2,2.7,3.2s2.7-0.9,2.7-3.2v-17.8c0-2.4-1-3.2-2.7-3.2s-2.7,0.9-2.7,3.2L62.6,299.4L62.6,299.4z"/>
<path class="st9" d="M92.2,307H87l-0.9-6h-6.3l-0.9,6h-4.8l5.3-32.9H87L92.2,307z M80.4,296.6h5L82.9,280L80.4,296.6z"/>
<path class="st9" d="M93.6,274.1h8.2c5.2,0,7.7,2.9,7.7,8.1v16.6c0,5.3-2.5,8.1-7.7,8.1h-8.2V274.1z M98.7,278.8v23.5h2.9
	c1.6,0,2.6-0.8,2.6-3.2V282c0-2.4-1-3.2-2.6-3.2H98.7L98.7,278.8z"/>
<path class="st9" d="M126.8,294.7v4.4c0,5.3-2.6,8.3-7.7,8.3s-7.7-3-7.7-8.3V282c0-5.3,2.6-8.3,7.7-8.3s7.7,3,7.7,8.3v3.2h-4.9v-3.5
	c0-2.4-1-3.2-2.7-3.2s-2.7,0.9-2.7,3.2v17.8c0,2.3,1,3.2,2.7,3.2s2.7-0.8,2.7-3.2v-4.7L126.8,294.7L126.8,294.7z"/>
<path class="st9" d="M145.6,307h-5.2l-0.9-6h-6.3l-0.9,6h-4.8l5.3-32.9h7.6L145.6,307z M133.8,296.6h5l-2.5-16.6L133.8,296.6z"/>
<path class="st9" d="M154,273.7c5,0,7.6,3,7.6,8.3v1h-4.9v-1.4c0-2.4-0.9-3.2-2.6-3.2s-2.6,0.9-2.6,3.2c0,6.8,10.1,8,10.1,17.4
	c0,5.3-2.6,8.3-7.7,8.3s-7.7-3-7.7-8.3v-2h4.9v2.3c0,2.3,1,3.2,2.7,3.2s2.7-0.8,2.7-3.2c0-6.8-10.1-8-10.1-17.4
	C146.4,276.7,149,273.7,154,273.7z"/>
<path class="st9" d="M162.1,274.1h16v4.7h-5.4V307h-5.2v-28.2h-5.4L162.1,274.1L162.1,274.1z"/>
<path class="st9" d="M192.6,273.7c5,0,7.6,3,7.6,8.3v1h-4.9v-1.4c0-2.4-0.9-3.2-2.6-3.2s-2.6,0.9-2.6,3.2c0,6.8,10.1,8,10.1,17.4
	c0,5.3-2.6,8.3-7.7,8.3s-7.7-3-7.7-8.3v-2h4.9v2.3c0,2.3,1,3.2,2.7,3.2s2.7-0.8,2.7-3.2c0-6.8-10.1-8-10.1-17.4
	C185,276.7,187.6,273.7,192.6,273.7z"/>
<path class="st9" d="M207.1,296.1l-6.5-22h5.4l4,15l4-15h4.9l-6.5,22V307h-5.2L207.1,296.1L207.1,296.1z"/>
<path class="st9" d="M226.9,273.7c5,0,7.6,3,7.6,8.3v1h-4.9v-1.4c0-2.4-0.9-3.2-2.6-3.2s-2.6,0.9-2.6,3.2c0,6.8,10.1,8,10.1,17.4
	c0,5.3-2.6,8.3-7.7,8.3s-7.7-3-7.7-8.3v-2h4.9v2.3c0,2.3,1,3.2,2.7,3.2s2.7-0.8,2.7-3.2c0-6.8-10.1-8-10.1-17.4
	C219.2,276.7,221.8,273.7,226.9,273.7z"/>
<path class="st9" d="M235,274.1h16v4.7h-5.4V307h-5.2v-28.2H235V274.1L235,274.1z"/>
<path class="st9" d="M257.4,288h7.1v4.7h-7.1v9.6h8.9v4.7h-14.1v-32.9h14.1v4.7h-8.9V288z"/>
<path class="st9" d="M279.5,297.5l3.5-23.4h7.2V307h-4.9v-23.6l-3.5,23.6h-4.9l-3.9-23.3V307h-4.5v-32.9h7.2L279.5,297.5z"/>
<path class="st9" d="M300.5,273.7c5,0,7.6,3,7.6,8.3v1h-4.9v-1.4c0-2.4-0.9-3.2-2.6-3.2s-2.6,0.9-2.6,3.2c0,6.8,10.1,8,10.1,17.4
	c0,5.3-2.6,8.3-7.7,8.3s-7.7-3-7.7-8.3v-2h4.9v2.3c0,2.3,1,3.2,2.7,3.2s2.7-0.8,2.7-3.2c0-6.8-10.1-8-10.1-17.4
	C292.8,276.7,295.4,273.7,300.5,273.7z"/>
<path class="st9" d="M30,46.6h11.3v7.5H30v15.4h14.2V77H21.8V24.5h22.5V32H30V46.6L30,46.6z"/>
<path class="st9" d="M89.9,24.5L81.2,50l9.2,27h-8.7L75,56.2L68.2,77h-7.7l9.2-27l-8.6-25.5h8.6l6.2,19.4l6.4-19.4L89.9,24.5
	L89.9,24.5z"/>
<path class="st9" d="M105.2,24.5h25.5V32H122v45h-8.2V32h-8.6L105.2,24.5L105.2,24.5z"/>
<path class="st9" d="M164.5,77c-0.5-1.4-0.8-2.2-0.8-6.5v-8.2c0-4.9-1.6-6.7-5.4-6.7h-2.9V77h-8.2V24.5h12.5c8.5,0,12.2,4,12.2,12.1
	v4.1c0,5.4-1.7,8.9-5.4,10.6c4.1,1.7,5.5,5.7,5.5,11.2v8.1c-0.1,2.2,0.2,4.3,0.9,6.4H164.5L164.5,77z M155.5,32v16.1h3.2
	c3.1,0,5-1.4,5-5.5v-5.2c0-3.8-1.3-5.4-4.2-5.4L155.5,32L155.5,32z"/>
<path class="st9" d="M198.6,46.6h11.3v7.5h-11.3v15.4h14.2V77h-22.5V24.5h22.5V32h-14.2V46.6L198.6,46.6z"/>
<path class="st9" d="M248.4,61.8l5.6-37.3h11.5V77h-7.8V39.4L252,77h-7.8l-6.1-37.1V77h-7.2V24.5h11.5L248.4,61.8z"/>
<path class="st9" d="M292.7,46.6H304v7.5h-11.3v15.4H307V77h-22.5V24.5H307V32h-14.3V46.6L292.7,46.6z"/>
</svg>
